#N canvas 120 112 450 300 10;
#X obj 23 45 colorpanel;
#X obj 23 20 bng 17 250 50 0 empty empty empty 17 7 0 10 -262144 -1
-1;
#X text 52 19 choose a color;
#N canvas 0 22 454 304 generate 0;
#X obj 101 15 inlet;
#X obj 103 275 outlet;
#X obj 103 58 unpack float float float;
#X obj 103 82 * 255;
#X obj 103 105 int;
#X obj 103 128 makefilename %x;
#X obj 203 82 * 255;
#X obj 203 105 int;
#X obj 203 128 makefilename %x;
#X obj 303 82 * 255;
#X obj 303 105 int;
#X obj 303 128 makefilename %x;
#X obj 103 163 pack symbol symbol symbol;
#X obj 103 187 zexy/makesymbol #%s%s%s;
#X msg 103 212 set set obj_box_fill \$1;
#X obj 103 238 trigger bang anything;
#X connect 0 0 2 0;
#X connect 2 0 3 0;
#X connect 2 1 6 0;
#X connect 2 2 9 0;
#X connect 3 0 4 0;
#X connect 4 0 5 0;
#X connect 5 0 12 0;
#X connect 6 0 7 0;
#X connect 7 0 8 0;
#X connect 8 0 12 1;
#X connect 9 0 10 0;
#X connect 10 0 11 0;
#X connect 11 0 12 2;
#X connect 12 0 13 0;
#X connect 13 0 14 0;
#X connect 14 0 15 0;
#X connect 15 0 1 0;
#X connect 15 1 1 0;
#X restore 23 71 pd generate web color;
#X msg 23 95 set obj_box_fill #ffff76;
#X obj 23 159 sys_gui;
#X connect 0 0 3 0;
#X connect 1 0 0 0;
#X connect 3 0 4 0;
#X connect 4 0 5 0;
