#N canvas 572 24 689 502 10;
#X obj 240 186 gemhead;
#X floatatom 200 227 0 0 0 0 - - -;
#X obj 240 246 color;
#X msg 342 191 1 1 1;
#X msg 342 156 1 0 0;
#X obj 240 339 square;
#X text 109 26 this demonstrates how to create a red square;
#X text 328 119 change the color;
#X text 341 226 rotate the square;
#X msg 343 302 draw line;
#X msg 343 322 draw fill;
#X msg 346 375 width 1;
#X msg 347 395 width 10;
#X obj 240 297 rotate;
#X obj 20 59 cnv 15 220 70 empty empty empty 20 12 0 14 -195568 -66577
0;
#N canvas 0 22 454 304 gemwin 0;
#X obj 132 136 gemwin;
#X obj 67 89 outlet;
#X obj 67 10 inlet;
#X obj 67 41 route create;
#X msg 67 70 set destroy;
#X msg 182 68 set create;
#X msg 132 112 create \, 1;
#X msg 238 112 destroy;
#N canvas 87 154 247 179 Gem.init 0;
#X obj 59 46 loadbang;
#X msg 118 81 reset;
#X obj 118 113 outlet;
#X obj 59 65 t b b;
#X connect 0 0 3 0;
#X connect 1 0 2 0;
#X connect 3 1 1 0;
#X restore 289 80 pd Gem.init;
#X connect 2 0 3 0;
#X connect 3 0 4 0;
#X connect 3 0 6 0;
#X connect 3 1 5 0;
#X connect 3 1 7 0;
#X connect 4 0 1 0;
#X connect 5 0 1 0;
#X connect 6 0 0 0;
#X connect 7 0 0 0;
#X connect 8 0 0 0;
#X restore 25 103 pd gemwin;
#X msg 25 79 destroy;
#X text 21 59 Create window and render;
#X text 386 157 red;
#X text 389 192 white;
#X text 379 260 (in degree);
#X msg 45 247 1;
#X obj 133 294 f;
#X obj 25 292 +;
#X msg 86 271 0;
#X obj 21 217 metro 1200;
#X obj 9 158 tgl 15 0 empty empty empty 17 7 0 10 -262144 -1 -1 1 1
;
#X obj 46 337 mod 10;
#X floatatom 102 214 5 0 0 0 - - -;
#X obj 107 370 mod 360;
#X obj 429 57 select 0 2 4 6 8;
#X obj 196 388 rotateXYZ;
#X obj 181 451 square;
#X obj 459 362 color;
#X obj 395 463 sphere;
#X obj 49 427 mod 5;
#X floatatom 485 205 5 0 0 0 - - -;
#X obj 473 177 / 10;
#X obj 473 150 random 10;
#X floatatom 560 206 5 0 0 0 - - -;
#X obj 548 178 / 10;
#X obj 548 151 random 10;
#X floatatom 587 316 5 0 0 0 - - -;
#X obj 564 278 / 10;
#X obj 564 251 random 10;
#X msg 477 253 \$1 \$2 \$3;
#X obj 539 360 pack f f f;
#X floatatom 472 419 5 0 0 0 - - -;
#X obj 313 422 mod 5;
#X connect 0 0 2 0;
#X connect 0 0 33 0;
#X connect 1 0 13 1;
#X connect 1 0 31 1;
#X connect 1 0 31 2;
#X connect 1 0 31 3;
#X connect 2 0 13 0;
#X connect 2 0 31 0;
#X connect 3 0 2 1;
#X connect 4 0 2 1;
#X connect 9 0 5 0;
#X connect 9 0 32 0;
#X connect 10 0 5 0;
#X connect 11 0 5 0;
#X connect 12 0 5 0;
#X connect 13 0 5 0;
#X connect 15 0 16 0;
#X connect 16 0 15 0;
#X connect 21 0 23 0;
#X connect 22 0 23 1;
#X connect 23 0 22 0;
#X connect 23 0 27 0;
#X connect 23 0 29 0;
#X connect 23 0 35 0;
#X connect 23 0 48 0;
#X connect 24 0 23 0;
#X connect 24 0 22 0;
#X connect 25 0 21 0;
#X connect 25 0 38 0;
#X connect 25 0 41 0;
#X connect 25 0 44 0;
#X connect 26 0 25 0;
#X connect 27 0 5 1;
#X connect 27 0 30 0;
#X connect 28 0 25 1;
#X connect 29 0 1 0;
#X connect 30 0 4 0;
#X connect 30 1 3 0;
#X connect 30 2 4 0;
#X connect 30 3 3 0;
#X connect 30 4 4 0;
#X connect 31 0 32 0;
#X connect 33 0 34 0;
#X connect 35 0 32 1;
#X connect 37 0 36 0;
#X connect 37 0 46 0;
#X connect 38 0 37 0;
#X connect 40 0 39 0;
#X connect 40 0 46 1;
#X connect 41 0 40 0;
#X connect 43 0 42 0;
#X connect 43 0 46 2;
#X connect 44 0 43 0;
#X connect 45 0 33 1;
#X connect 46 0 45 0;
#X connect 47 0 34 2;
#X connect 48 0 34 1;
