#N canvas 12 24 1024 672 10;
#X declare -lib iemmatrix;
#X declare -lib iem_tab;
#X declare -lib iemmatrix;
#X declare -lib iem_tab;
#X obj 838 335 output~;
#X obj 24 38 nvl;
#X msg 859 15 wav erasehead_140.wav;
#X msg 859 40 preset erasehead_140.nvl;
#X obj 26 377 nvl;
#X msg 889 85 wav erasehead_440.wav;
#X obj 895 578 netsend;
#X msg 900 495 connect localhost 3000;
#X msg 875 467 send \$1;
#X floatatom 187 347 5 0 0 0 - - -;
#X obj 69 345 print;
#X obj 445 331 unpack f f f;
#X floatatom 569 351 5 0 0 0 - - -;
#X connect 1 1 8 0;
#X connect 1 1 9 0;
#X connect 1 1 10 0;
#X connect 1 1 11 0;
#X connect 1 3 0 0;
#X connect 1 4 0 1;
#X connect 2 0 1 1;
#X connect 4 3 0 0;
#X connect 4 4 0 1;
#X connect 5 0 4 1;
#X connect 7 0 6 0;
#X connect 8 0 6 0;
#X connect 11 1 12 0;
#X connect 11 1 8 0;
