#N canvas 0 25 1280 696 10;
#X obj 833 6 microkontrol-sliders;
#X obj 9 39 perk-cymbal;
#X obj 1012 14 ctlin 105;
#X obj 1205 641 output~;
#X obj 1012 37 sel 127;
#X obj 200 39 perk-hightom;
#X obj 386 40 perk-lowtom;
#X obj 570 40 perk-bassdrum;
#X obj 1075 37 sel 127;
#X obj 1075 14 ctlin 106;
#X obj 1139 36 sel 127;
#X obj 1139 13 ctlin 107;
#X obj 1202 36 sel 127;
#X obj 1202 13 ctlin 108;
#X obj 9 136 throw~;
#X obj 1205 611 catch~;
#X obj 200 93 throw~;
#X obj 387 91 throw~;
#X obj 570 160 throw~;
#X obj 3 206 perk-cowbell;
#X obj 193 206 perk-hihat;
#X obj 381 207 perk-clap;
#X obj 569 206 perk-andyHat;
#X obj 9 15 r p1;
#X obj 200 16 r p2;
#X obj 386 18 r p3;
#X obj 570 18 r p4;
#X obj 3 181 r p5;
#X obj 3 305 throw~;
#X obj 193 182 r p6;
#X obj 193 371 throw~;
#X obj 381 182 r p7;
#X obj 382 326 throw~;
#X obj 569 184 r p8;
#X obj 570 325 throw~;
#X obj 3 423 perk-bell;
#X obj 3 397 r p9;
#X obj 3 497 throw~;
#X obj 196 423 perk-cymbal2;
#X obj 196 399 r p10;
#X obj 197 521 throw~;
#X obj 386 423 perk-gunshot;
#X obj 386 399 r p11;
#X obj 387 476 throw~;
#X obj 577 424 perk-snare;
#X obj 577 399 r p12;
#X obj 578 568 throw~;
#X obj 1011 112 sel 127;
#X obj 1074 112 sel 127;
#X obj 1138 111 sel 127;
#X obj 1201 111 sel 127;
#X obj 1009 190 sel 127;
#X obj 1072 190 sel 127;
#X obj 1136 189 sel 127;
#X obj 1199 189 sel 127;
#X obj 1012 62 s p1;
#X obj 1075 62 s p2;
#X obj 1139 61 s p3;
#X obj 1202 61 s p4;
#X obj 1011 139 s p5;
#X obj 1074 137 s p6;
#X obj 1138 136 s p7;
#X obj 1201 136 s p8;
#X obj 1009 215 s p9;
#X obj 1072 215 s p10;
#X obj 1136 214 s p11;
#X obj 1199 214 s p12;
#X obj 1011 89 ctlin 109;
#X obj 1074 89 ctlin 110;
#X obj 1138 88 ctlin 111;
#X obj 1201 88 ctlin 112;
#X obj 1009 167 ctlin 113;
#X obj 1072 167 ctlin 114;
#X obj 1136 166 ctlin 115;
#X obj 1199 166 ctlin 116;
#X msg 930 378 80 80 80 80;
#X obj 930 343 prepend set;
#X obj 845 228 ctlin;
#X obj 845 288 spigot;
#X obj 877 343 bng 15 250 50 0 empty empty empty 17 7 0 10 -262144
-1 -1;
#X obj 930 307 zl group 4;
#X obj 818 377 tgl 15 0 empty empty empty 17 7 0 10 -262144 -1 -1 1
1;
#X obj 930 410 unpack f f f f;
#X obj 819 434 i;
#X obj 846 435 + 1;
#X obj 819 462 mod 4;
#X obj 930 446 mux 0 1 2 3;
#X obj 931 478 sel 105 106 107 108 109 110 111 112 113 114 115 116
;
#X obj 931 507 s p1;
#X obj 956 529 s p2;
#X obj 981 554 s p3;
#X obj 1006 576 s p4;
#X obj 1032 509 s p5;
#X obj 1057 531 s p6;
#X obj 1082 556 s p7;
#X obj 1107 578 s p8;
#X obj 1133 512 s p9;
#X obj 1158 534 s p10;
#X obj 1183 559 s p11;
#X obj 1208 581 s p12;
#X obj 817 406 metro 250;
#X obj 833 96 s s1;
#X obj 852 119 s s2;
#X obj 871 142 s s3;
#X obj 890 165 s s4;
#X obj 909 97 s s5;
#X obj 928 120 s s6;
#X obj 947 143 s s7;
#X obj 966 166 s s8;
#X msg 627 16 0 \$1;
#X obj 676 8 r s1;
#X connect 0 0 101 0;
#X connect 0 1 102 0;
#X connect 0 2 103 0;
#X connect 0 3 104 0;
#X connect 0 4 105 0;
#X connect 0 5 106 0;
#X connect 0 6 107 0;
#X connect 0 7 108 0;
#X connect 1 0 14 0;
#X connect 2 0 4 0;
#X connect 4 0 55 0;
#X connect 5 0 16 0;
#X connect 6 0 17 0;
#X connect 7 0 18 0;
#X connect 8 0 56 0;
#X connect 9 0 8 0;
#X connect 10 0 57 0;
#X connect 11 0 10 0;
#X connect 12 0 58 0;
#X connect 13 0 12 0;
#X connect 15 0 3 0;
#X connect 15 0 3 1;
#X connect 19 0 28 0;
#X connect 20 0 30 0;
#X connect 21 0 32 0;
#X connect 22 0 34 0;
#X connect 23 0 1 0;
#X connect 24 0 5 0;
#X connect 25 0 6 0;
#X connect 26 0 7 0;
#X connect 27 0 19 0;
#X connect 29 0 20 0;
#X connect 31 0 21 0;
#X connect 33 0 22 0;
#X connect 35 0 37 0;
#X connect 36 0 35 0;
#X connect 38 0 40 0;
#X connect 39 0 38 0;
#X connect 41 0 43 0;
#X connect 42 0 41 0;
#X connect 44 0 46 0;
#X connect 45 0 44 0;
#X connect 47 0 59 0;
#X connect 48 0 60 0;
#X connect 49 0 61 0;
#X connect 50 0 62 0;
#X connect 51 0 63 0;
#X connect 52 0 64 0;
#X connect 53 0 65 0;
#X connect 54 0 66 0;
#X connect 67 0 47 0;
#X connect 68 0 48 0;
#X connect 69 0 49 0;
#X connect 70 0 50 0;
#X connect 71 0 51 0;
#X connect 72 0 52 0;
#X connect 73 0 53 0;
#X connect 74 0 54 0;
#X connect 75 0 82 0;
#X connect 76 0 75 0;
#X connect 77 0 78 1;
#X connect 77 1 78 0;
#X connect 78 0 79 0;
#X connect 78 0 80 0;
#X connect 80 0 76 0;
#X connect 81 0 100 0;
#X connect 82 0 86 0;
#X connect 82 1 86 1;
#X connect 82 2 86 2;
#X connect 82 3 86 3;
#X connect 83 0 84 0;
#X connect 83 0 85 0;
#X connect 84 0 83 1;
#X connect 85 0 86 4;
#X connect 86 0 87 0;
#X connect 87 0 88 0;
#X connect 87 1 89 0;
#X connect 87 2 90 0;
#X connect 87 3 91 0;
#X connect 87 4 92 0;
#X connect 87 5 93 0;
#X connect 87 6 94 0;
#X connect 87 7 95 0;
#X connect 87 8 96 0;
#X connect 87 9 97 0;
#X connect 87 10 98 0;
#X connect 87 11 99 0;
#X connect 100 0 75 0;
#X connect 100 0 83 0;
#X connect 109 0 7 1;
#X connect 110 0 109 0;
