#N canvas 760 39 480 652 10;
#N canvas 0 0 450 300 fire 0;
#X obj 98 15 noise~;
#N canvas 0 0 450 300 crackles 0;
#X obj 80 223 *~;
#X obj 112 117 lop~ 1;
#X obj 123 149 *~;
#X obj 125 180 *~ 300;
#X obj 51 159 hip~ 1000;
#X obj 88 34 inlet~;
#X obj 152 279 outlet~;
#X connect 0 0 6 0;
#X connect 1 0 2 0;
#X connect 1 0 2 1;
#X connect 2 0 3 0;
#X connect 3 0 0 1;
#X connect 4 0 0 0;
#X connect 5 0 4 0;
#X connect 5 0 1 0;
#X restore 3 73 pd crackles;
#X obj 3 107 *~ 0.2;
#N canvas 0 0 450 549 hissing 0;
#X obj 154 431 *~;
#X msg 212 192 bang;
#X obj 243 284 line~;
#X obj 243 317 *~;
#X obj 166 75 lop~ 1;
#X obj 166 103 env~;
#X obj 164 132 moses 50;
#X obj 211 160 moses 51;
#X obj 216 218 random 30;
#X obj 170 277 * 500;
#X obj 171 302 + 1500;
#X obj 130 362 bp~ 4000 1;
#X obj 131 31 inlet~;
#X obj 162 492 outlet~;
#X msg 238 248 1 \, 0 \$1;
#X connect 0 0 13 0;
#X connect 1 0 8 0;
#X connect 2 0 3 0;
#X connect 2 0 3 1;
#X connect 3 0 0 1;
#X connect 4 0 5 0;
#X connect 5 0 6 0;
#X connect 6 1 7 0;
#X connect 7 0 1 0;
#X connect 8 0 9 0;
#X connect 8 0 14 0;
#X connect 9 0 10 0;
#X connect 10 0 11 1;
#X connect 11 0 0 0;
#X connect 12 0 4 0;
#X connect 12 0 11 0;
#X connect 14 0 2 0;
#X restore 91 71 pd hissing;
#X obj 81 110 *~ 0.3;
#N canvas 0 0 450 300 lapping 0;
#X obj 137 73 bp~ 30 5;
#X obj 148 102 *~ 100;
#X obj 148 130 hip~ 25;
#X obj 149 161 clip~ -0.9 0.9;
#X obj 153 193 hip~ 25;
#X obj 113 31 inlet~;
#X obj 122 220 outlet~;
#X connect 0 0 1 0;
#X connect 1 0 2 0;
#X connect 2 0 3 0;
#X connect 3 0 4 0;
#X connect 4 0 6 0;
#X connect 5 0 0 0;
#X restore 175 72 pd lapping;
#X obj 174 114 *~ 0.6;
#X obj 81 215 outlet~;
#X connect 0 0 1 0;
#X connect 0 0 3 0;
#X connect 0 0 5 0;
#X connect 1 0 2 0;
#X connect 2 0 7 0;
#X connect 3 0 4 0;
#X connect 4 0 7 0;
#X connect 5 0 6 0;
#X connect 6 0 7 0;
#X restore -46 30 pd fire;
#X obj -45 56 bp~ 600 0.2;
#N canvas 0 0 450 300 fire 0;
#X obj 98 15 noise~;
#N canvas 0 0 450 300 crackles 0;
#X obj 80 223 *~;
#X obj 112 117 lop~ 1;
#X obj 123 149 *~;
#X obj 125 180 *~ 300;
#X obj 51 159 hip~ 1000;
#X obj 88 34 inlet~;
#X obj 152 279 outlet~;
#X connect 0 0 6 0;
#X connect 1 0 2 0;
#X connect 1 0 2 1;
#X connect 2 0 3 0;
#X connect 3 0 0 1;
#X connect 4 0 0 0;
#X connect 5 0 4 0;
#X connect 5 0 1 0;
#X restore 3 73 pd crackles;
#X obj 3 107 *~ 0.2;
#N canvas 0 0 450 549 hissing 0;
#X obj 154 431 *~;
#X msg 212 192 bang;
#X obj 243 284 line~;
#X obj 243 317 *~;
#X obj 166 75 lop~ 1;
#X obj 166 103 env~;
#X obj 164 132 moses 50;
#X obj 211 160 moses 51;
#X obj 216 218 random 30;
#X obj 170 277 * 500;
#X obj 171 302 + 1500;
#X obj 130 362 bp~ 4000 1;
#X obj 131 31 inlet~;
#X obj 162 492 outlet~;
#X msg 238 248 1 \, 0 \$1;
#X connect 0 0 13 0;
#X connect 1 0 8 0;
#X connect 2 0 3 0;
#X connect 2 0 3 1;
#X connect 3 0 0 1;
#X connect 4 0 5 0;
#X connect 5 0 6 0;
#X connect 6 1 7 0;
#X connect 7 0 1 0;
#X connect 8 0 9 0;
#X connect 8 0 14 0;
#X connect 9 0 10 0;
#X connect 10 0 11 1;
#X connect 11 0 0 0;
#X connect 12 0 4 0;
#X connect 12 0 11 0;
#X connect 14 0 2 0;
#X restore 91 71 pd hissing;
#X obj 81 110 *~ 0.3;
#N canvas 0 0 450 300 lapping 0;
#X obj 137 73 bp~ 30 5;
#X obj 148 102 *~ 100;
#X obj 148 130 hip~ 25;
#X obj 149 161 clip~ -0.9 0.9;
#X obj 153 193 hip~ 25;
#X obj 113 31 inlet~;
#X obj 122 220 outlet~;
#X connect 0 0 1 0;
#X connect 1 0 2 0;
#X connect 2 0 3 0;
#X connect 3 0 4 0;
#X connect 4 0 6 0;
#X connect 5 0 0 0;
#X restore 175 72 pd lapping;
#X obj 174 114 *~ 0.6;
#X obj 81 215 outlet~;
#X connect 0 0 1 0;
#X connect 0 0 3 0;
#X connect 0 0 5 0;
#X connect 1 0 2 0;
#X connect 2 0 7 0;
#X connect 3 0 4 0;
#X connect 4 0 7 0;
#X connect 5 0 6 0;
#X connect 6 0 7 0;
#X restore 31 27 pd fire;
#N canvas 0 0 450 300 fire 0;
#X obj 98 15 noise~;
#N canvas 0 0 450 300 crackles 0;
#X obj 80 223 *~;
#X obj 112 117 lop~ 1;
#X obj 123 149 *~;
#X obj 125 180 *~ 300;
#X obj 51 159 hip~ 1000;
#X obj 88 34 inlet~;
#X obj 152 279 outlet~;
#X connect 0 0 6 0;
#X connect 1 0 2 0;
#X connect 1 0 2 1;
#X connect 2 0 3 0;
#X connect 3 0 0 1;
#X connect 4 0 0 0;
#X connect 5 0 4 0;
#X connect 5 0 1 0;
#X restore 3 73 pd crackles;
#X obj 3 107 *~ 0.2;
#N canvas 0 0 450 549 hissing 0;
#X obj 154 431 *~;
#X msg 212 192 bang;
#X obj 243 284 line~;
#X obj 243 317 *~;
#X obj 166 75 lop~ 1;
#X obj 166 103 env~;
#X obj 164 132 moses 50;
#X obj 211 160 moses 51;
#X obj 216 218 random 30;
#X obj 170 277 * 500;
#X obj 171 302 + 1500;
#X obj 130 362 bp~ 4000 1;
#X obj 131 31 inlet~;
#X obj 162 492 outlet~;
#X msg 238 248 1 \, 0 \$1;
#X connect 0 0 13 0;
#X connect 1 0 8 0;
#X connect 2 0 3 0;
#X connect 2 0 3 1;
#X connect 3 0 0 1;
#X connect 4 0 5 0;
#X connect 5 0 6 0;
#X connect 6 1 7 0;
#X connect 7 0 1 0;
#X connect 8 0 9 0;
#X connect 8 0 14 0;
#X connect 9 0 10 0;
#X connect 10 0 11 1;
#X connect 11 0 0 0;
#X connect 12 0 4 0;
#X connect 12 0 11 0;
#X connect 14 0 2 0;
#X restore 91 71 pd hissing;
#X obj 81 110 *~ 0.3;
#N canvas 0 0 450 300 lapping 0;
#X obj 137 73 bp~ 30 5;
#X obj 148 102 *~ 100;
#X obj 148 130 hip~ 25;
#X obj 149 161 clip~ -0.9 0.9;
#X obj 153 193 hip~ 25;
#X obj 113 31 inlet~;
#X obj 122 220 outlet~;
#X connect 0 0 1 0;
#X connect 1 0 2 0;
#X connect 2 0 3 0;
#X connect 3 0 4 0;
#X connect 4 0 6 0;
#X connect 5 0 0 0;
#X restore 175 72 pd lapping;
#X obj 174 114 *~ 0.6;
#X obj 81 215 outlet~;
#X connect 0 0 1 0;
#X connect 0 0 3 0;
#X connect 0 0 5 0;
#X connect 1 0 2 0;
#X connect 2 0 7 0;
#X connect 3 0 4 0;
#X connect 4 0 7 0;
#X connect 5 0 6 0;
#X connect 6 0 7 0;
#X restore 132 26 pd fire;
#N canvas 0 0 450 300 fire 0;
#X obj 98 15 noise~;
#N canvas 0 0 450 300 crackles 0;
#X obj 80 223 *~;
#X obj 112 117 lop~ 1;
#X obj 123 149 *~;
#X obj 125 180 *~ 300;
#X obj 51 159 hip~ 1000;
#X obj 88 34 inlet~;
#X obj 152 279 outlet~;
#X connect 0 0 6 0;
#X connect 1 0 2 0;
#X connect 1 0 2 1;
#X connect 2 0 3 0;
#X connect 3 0 0 1;
#X connect 4 0 0 0;
#X connect 5 0 4 0;
#X connect 5 0 1 0;
#X restore 3 73 pd crackles;
#X obj 3 107 *~ 0.2;
#N canvas 0 0 450 549 hissing 0;
#X obj 154 431 *~;
#X msg 212 192 bang;
#X obj 243 284 line~;
#X obj 243 317 *~;
#X obj 166 75 lop~ 1;
#X obj 166 103 env~;
#X obj 164 132 moses 50;
#X obj 211 160 moses 51;
#X obj 216 218 random 30;
#X obj 170 277 * 500;
#X obj 171 302 + 1500;
#X obj 130 362 bp~ 4000 1;
#X obj 131 31 inlet~;
#X obj 162 492 outlet~;
#X msg 238 248 1 \, 0 \$1;
#X connect 0 0 13 0;
#X connect 1 0 8 0;
#X connect 2 0 3 0;
#X connect 2 0 3 1;
#X connect 3 0 0 1;
#X connect 4 0 5 0;
#X connect 5 0 6 0;
#X connect 6 1 7 0;
#X connect 7 0 1 0;
#X connect 8 0 9 0;
#X connect 8 0 14 0;
#X connect 9 0 10 0;
#X connect 10 0 11 1;
#X connect 11 0 0 0;
#X connect 12 0 4 0;
#X connect 12 0 11 0;
#X connect 14 0 2 0;
#X restore 91 71 pd hissing;
#X obj 81 110 *~ 0.3;
#N canvas 0 0 450 300 lapping 0;
#X obj 137 73 bp~ 30 5;
#X obj 148 102 *~ 100;
#X obj 148 130 hip~ 25;
#X obj 149 161 clip~ -0.9 0.9;
#X obj 153 193 hip~ 25;
#X obj 113 31 inlet~;
#X obj 122 220 outlet~;
#X connect 0 0 1 0;
#X connect 1 0 2 0;
#X connect 2 0 3 0;
#X connect 3 0 4 0;
#X connect 4 0 6 0;
#X connect 5 0 0 0;
#X restore 175 72 pd lapping;
#X obj 174 114 *~ 0.6;
#X obj 81 215 outlet~;
#X connect 0 0 1 0;
#X connect 0 0 3 0;
#X connect 0 0 5 0;
#X connect 1 0 2 0;
#X connect 2 0 7 0;
#X connect 3 0 4 0;
#X connect 4 0 7 0;
#X connect 5 0 6 0;
#X connect 6 0 7 0;
#X restore 224 24 pd fire;
#X obj 32 53 bp~ 1200 0.6;
#X obj 133 52 bp~ 2600 0.4;
#X obj 225 50 hip~ 1000;
#X obj 70 217 *~ 0.2;
#X obj 64 291 dac~;
#X connect 0 0 1 0;
#X connect 1 0 8 0;
#X connect 2 0 5 0;
#X connect 3 0 6 0;
#X connect 4 0 7 0;
#X connect 5 0 8 0;
#X connect 6 0 8 0;
#X connect 7 0 8 0;
#X connect 8 0 9 0;
#X connect 8 0 9 1;
