#N canvas 653 221 346 165 10;
#X obj 12 18 adc~;
#N canvas 834 112 335 300 glitch 1;
#X obj 14 109 gemhead;
#X obj 176 -4 inlet~;
#X obj 250 21 block~ 4096;
#X obj 14 251 pix_texture;
#X obj 14 228 pix_sig2pix 64 64;
#X obj 30 184 *~;
#X obj 107 183 *~;
#X obj 175 183 *~;
#X obj 14 273 square 5;
#X obj 46 162 osc~ 100;
#X obj 123 161 osc~ 200;
#X obj 191 161 osc~ 400;
#X connect 0 0 4 0;
#X connect 1 0 5 0;
#X connect 1 0 6 0;
#X connect 1 0 7 0;
#X connect 3 0 8 0;
#X connect 4 0 3 0;
#X connect 5 0 4 0;
#X connect 6 0 4 1;
#X connect 7 0 4 2;
#X connect 9 0 5 1;
#X connect 10 0 6 1;
#X connect 11 0 7 1;
#X restore 13 44 pd glitch;
#X obj 257 128 gemwin;
#X msg 257 69 create \, 1;
#X msg 269 97 destroy;
#X text 56 18 <-- turn on your microphone...;
#X text 110 69 ... and click here -->;
#X connect 0 0 1 0;
#X connect 3 0 2 0;
#X connect 4 0 2 0;
