#N canvas 19 44 661 627 10;
#X obj 20 10 gemhead;
#X obj 183 14 inlet~;
#X obj 247 12 block~ 4096;
#X obj 20 225 pix_texture;
#X obj 20 202 pix_sig2pix 64 64;
#X obj 97 157 hip~ 100;
#X obj 161 158 lop~ 20;
#X obj 35 158 lop~ 200;
#X obj 20 69 translateXYZ;
#X obj 20 123 rotateXYZ;
#X floatatom 36 92 5 0 0 0 - - -;
#X floatatom 73 92 5 0 0 0 - - -;
#X floatatom 111 91 5 0 0 0 - - -;
#X floatatom 45 36 5 0 0 0 - - -;
#X floatatom 82 36 5 0 0 0 - - -;
#X floatatom 120 35 5 0 0 0 - - -;
#X obj 428 67 macbook;
#X obj 429 44 metro 100;
#X obj 420 23 tgl 15 0 empty empty empty 17 7 0 10 -262144 -1 -1 0
1;
#X obj 20 247 cube 5;
#X connect 0 0 8 0;
#X connect 1 0 5 0;
#X connect 1 0 6 0;
#X connect 1 0 7 0;
#X connect 3 0 19 0;
#X connect 4 0 3 0;
#X connect 5 0 4 1;
#X connect 6 0 4 2;
#X connect 7 0 4 0;
#X connect 8 0 9 0;
#X connect 9 0 4 0;
#X connect 10 0 9 1;
#X connect 11 0 9 2;
#X connect 12 0 9 3;
#X connect 13 0 8 1;
#X connect 14 0 8 2;
#X connect 15 0 8 3;
#X connect 17 0 16 0;
#X connect 18 0 17 0;
