#N canvas 177 134 334 300 10;
#X obj 11 100 gemhead;
#X obj 183 14 inlet~;
#X obj 247 12 block~ 4096;
#X obj 11 242 pix_texture;
#X obj 11 219 pix_sig2pix 64 64;
#X obj 27 175 *~;
#X obj 99 174 *~;
#X obj 172 174 *~;
#X obj 11 264 square 5;
#X obj 41 153 osc~ 100;
#X obj 113 153 osc~ 200;
#X obj 188 152 osc~ 400;
#X connect 0 0 4 0;
#X connect 1 0 5 0;
#X connect 1 0 6 0;
#X connect 1 0 7 0;
#X connect 3 0 8 0;
#X connect 4 0 3 0;
#X connect 5 0 4 0;
#X connect 6 0 4 1;
#X connect 7 0 4 2;
#X connect 9 0 5 1;
#X connect 10 0 6 1;
#X connect 11 0 7 1;
