#N canvas 579 73 669 582 10;
#N canvas 508 144 652 502 imgs 0;
#X obj 103 136 shell;
#X obj 151 261 shell;
#X obj 363 314 f;
#X obj 393 316 + 1;
#X obj 184 296 zl group;
#X obj 362 346 mod;
#X obj 106 12 inlet;
#X obj 362 368 + 1;
#X obj 274 399 zl nth;
#X obj 274 457 outlet;
#X obj 274 430 prepend open;
#X obj 301 -1 inlet;
#X obj 275 333 zl reg;
#X obj 163 338 zl len;
#X obj 162 372 i;
#X obj 426 54 t b b b;
#X obj 105 100 sprintf ls /home/vilson/images/%s/*.jpg | wc -l;
#X obj 173 157 sprintf ls /home/vilson/images/%s/*.jpg;
#X connect 0 0 4 1;
#X connect 1 0 4 0;
#X connect 2 0 3 0;
#X connect 2 0 5 0;
#X connect 3 0 2 1;
#X connect 4 0 12 0;
#X connect 4 0 13 0;
#X connect 5 0 7 0;
#X connect 6 0 16 0;
#X connect 6 0 17 0;
#X connect 7 0 8 1;
#X connect 8 0 10 0;
#X connect 10 0 9 0;
#X connect 11 0 15 0;
#X connect 12 0 8 0;
#X connect 13 0 14 0;
#X connect 14 0 5 1;
#X connect 15 0 12 0;
#X connect 15 1 2 0;
#X connect 15 2 14 0;
#X connect 16 0 0 0;
#X connect 17 0 1 0;
#X restore 255 74 pd imgs;
#X msg 274 31 arduino;
#X msg 266 -5 hacking;
#X obj 90 91 gemwin;
#X msg 90 42 create \, 1;
#X msg 114 61 destroy;
#X obj 193 -14 gemhead;
#X obj 193 184 pix_texture;
#X obj 193 141 pix_image;
#X obj 193 254 rotateXYZ;
#X floatatom 210 218 5 0 0 0 - - -;
#X floatatom 252 219 5 0 0 0 - - -;
#X floatatom 294 219 5 0 0 0 - - -;
#X obj 193 299 square 3;
#X obj 359 21 metro 500;
#X obj 363 -12 tgl 15 0 empty empty empty 17 7 0 10 -262144 -1 -1 0
1;
#X obj 219 447 text3d;
#X msg 246 425 font /usr/share/fonts/truetype/ttf-bitstream-vera/Vera.ttf
;
#X obj 400 391 loadbang;
#X obj 119 386 gemhead;
#X obj 183 368 prepend text;
#X floatatom 417 -14 5 0 0 0 - - -;
#X msg 333 67 freesoftware;
#X msg 339 91 puredata;
#X msg 352 112 processing;
#X floatatom 260 281 5 0 0 0 - - -;
#X obj 437 19 bng 15 250 50 0 empty empty empty 17 7 0 10 -262144 -1
-1;
#X connect 0 0 8 0;
#X connect 1 0 0 0;
#X connect 1 0 20 0;
#X connect 2 0 0 0;
#X connect 2 0 20 0;
#X connect 4 0 3 0;
#X connect 5 0 3 0;
#X connect 6 0 8 0;
#X connect 7 0 9 0;
#X connect 8 0 7 0;
#X connect 9 0 13 0;
#X connect 10 0 9 1;
#X connect 11 0 9 2;
#X connect 12 0 9 3;
#X connect 14 0 0 1;
#X connect 15 0 14 0;
#X connect 17 0 16 0;
#X connect 18 0 17 0;
#X connect 19 0 16 0;
#X connect 20 0 16 0;
#X connect 21 0 14 1;
#X connect 22 0 0 0;
#X connect 22 0 20 0;
#X connect 23 0 0 0;
#X connect 23 0 20 0;
#X connect 24 0 0 0;
#X connect 24 0 20 0;
#X connect 25 0 13 1;
#X connect 26 0 0 1;
