#N canvas 12 49 1222 642 10;
#X obj 32 101 gemwin;
#X msg 18 36 create \, 1;
#X msg 36 61 destroy;
#X obj 178 198 tgl 15 1 empty empty empty 0 -6 0 8 -262144 -1 -1 1
1;
#X text 197 196 show/hide cursor;
#X obj 174 138 tgl 15 1 empty empty empty 0 -6 0 8 -262144 -1 -1 0
1;
#X text 193 136 on/off fullscreen;
#X msg 174 157 \; janela fullscreen \$1;
#X msg 178 217 \; janela cursor \$1;
#X obj 174 97 s janela;
#X msg 172 23 dimen 1280 768;
#X obj 175 253 tgl 15 1 empty empty empty 0 -6 0 8 -262144 -1 -1 1
1;
#X text 194 251 with/out borders;
#X msg 175 272 \; janela border \$1;
#X obj 99 87 r janela;
#X obj 432 80 gemhead;
#X floatatom 540 152 0 0 0 0 - - -;
#X obj 432 140 color;
#X msg 534 85 1 1 1;
#X msg 534 50 1 0 0;
#X obj 432 233 square;
#X text 520 13 change the color;
#X text 533 120 rotate the square;
#X msg 535 196 draw line;
#X msg 535 216 draw fill;
#X msg 538 269 width 1;
#X msg 539 289 width 10;
#X obj 432 191 rotate;
#X text 578 51 red;
#X text 581 86 white;
#X text 571 154 (in degree);
#X msg 194 57 dimen 800 600;
#X obj 661 26 netreceive 3000;
#X floatatom 761 59 5 0 0 0 - - -;
#X obj 700 53 bng 15 250 50 0 empty empty empty 17 7 0 10 -262144 -1
-1;
#X obj 689 122 + 1;
#X obj 729 122 f;
#X msg 688 86 1;
#X floatatom 702 149 5 0 0 0 - - -;
#X obj 692 229 mod 360;
#X obj 719 179 mod 2;
#X obj 765 216 sel 0 1;
#X floatatom 675 292 5 0 0 0 - - -;
#X obj 857 242 circle;
#X obj 829 197 color;
#X obj 788 271 mod 10;
#X msg 851 168 \$1 \$2 \$3;
#X obj 808 95 mod 255;
#X obj 817 129 pack f f f;
#X connect 1 0 0 0;
#X connect 2 0 0 0;
#X connect 3 0 8 0;
#X connect 5 0 7 0;
#X connect 10 0 9 0;
#X connect 11 0 13 0;
#X connect 14 0 0 0;
#X connect 15 0 17 0;
#X connect 15 0 44 0;
#X connect 16 0 27 1;
#X connect 16 0 27 2;
#X connect 17 0 27 0;
#X connect 18 0 17 1;
#X connect 19 0 17 1;
#X connect 23 0 20 0;
#X connect 24 0 20 0;
#X connect 25 0 20 0;
#X connect 26 0 20 0;
#X connect 27 0 20 0;
#X connect 31 0 9 0;
#X connect 32 0 34 0;
#X connect 32 1 33 0;
#X connect 34 0 37 0;
#X connect 35 0 36 0;
#X connect 35 0 38 0;
#X connect 36 0 35 1;
#X connect 37 0 35 0;
#X connect 38 0 39 0;
#X connect 38 0 40 0;
#X connect 38 0 45 0;
#X connect 38 0 47 0;
#X connect 39 0 16 0;
#X connect 40 0 41 0;
#X connect 41 0 19 0;
#X connect 41 1 18 0;
#X connect 42 0 20 1;
#X connect 44 0 43 0;
#X connect 45 0 43 1;
#X connect 46 0 44 1;
#X connect 47 0 48 0;
#X connect 47 0 48 1;
#X connect 47 0 48 2;
#X connect 48 0 46 0;
