#N canvas 0 24 1280 698 10;
#X obj 359 276 unpack;
#X floatatom 359 326 0 0 0 0 - - -;
#X floatatom 373 303 0 0 0 0 - - -;
#X floatatom 436 326 0 0 0 0 - - -;
#X obj 251 326 print attack;
#X obj 160 326 print pitch;
#X obj 364 91 fiddle~ 1024 1 20 3;
#X obj 363 35 adc~;
#X obj 437 393 phasor~;
#X obj 332 384 mtof;
#X floatatom 351 418 5 0 0 0 - - -;
#X obj 538 626 output~;
#X obj 590 401 osc~;
#X obj 526 358 mtof;
#X obj 561 457 *~;
#X obj 38 12 control-gemwin;
#X obj 620 80 gemhead;
#X obj 613 299 square;
#X obj 612 261 color;
#X obj 652 175 pack f f f;
#X obj 652 146 autoscale 0 255;
#X obj 755 146 autoscale 0 255;
#X obj 857 146 autoscale 0 255;
#X msg 642 219 \$1 \$2 \$3;
#X obj 699 316 autoscale 0 10;
#X connect 0 0 1 0;
#X connect 0 1 2 0;
#X connect 1 0 9 0;
#X connect 1 0 20 0;
#X connect 2 0 22 0;
#X connect 3 0 13 0;
#X connect 3 0 21 0;
#X connect 3 0 24 0;
#X connect 6 0 5 0;
#X connect 6 1 4 0;
#X connect 6 2 0 0;
#X connect 6 3 3 0;
#X connect 7 0 6 0;
#X connect 8 0 14 0;
#X connect 9 0 10 0;
#X connect 9 0 8 0;
#X connect 12 0 14 1;
#X connect 13 0 12 0;
#X connect 16 0 18 0;
#X connect 18 0 17 0;
#X connect 19 0 23 0;
#X connect 20 0 19 0;
#X connect 21 0 19 1;
#X connect 22 0 19 2;
#X connect 23 0 18 1;
#X connect 24 0 17 1;
