#N canvas 176 35 1078 668 10;
#X obj 15 54 mtof;
#X obj 18 28 hsl 128 15 0 127 0 0 empty empty empty -2 -8 0 10 -262144
-1 -1 2800 1;
#X obj 820 476 output~;
#X obj 15 79 osc~;
#X obj 14 131 *~;
#X obj 55 79 +~ 1;
#X obj 54 104 *~ 0.5;
#X obj 54 54 osc~ 20;
#X text 20 9 AM;
#X obj 172 29 hsl 128 15 0 127 0 0 empty empty empty -2 -8 0 10 -262144
-1 -1 0 1;
#X obj 169 55 mtof~;
#X obj 183 106 osc~;
#X obj 185 84 nbx 5 14 -1e+37 1e+37 0 0 empty empty empty 0 -8 0 10
-262144 -1 -1 957 256;
#X obj 202 133 nbx 5 14 -1e+37 1e+37 0 0 empty empty empty 0 -8 0 10
-262144 -1 -1 2051 256;
#X obj 184 158 *~;
#X obj 170 189 +~;
#X obj 171 221 osc~;
#X text 176 12 FM;
#X obj 388 32 noise~;
#X obj 411 59 hsl 128 15 0 127 0 0 empty empty empty -2 -8 0 10 -262144
-1 -1 0 1;
#X obj 408 88 mtof;
#X obj 389 134 lop~;
#X obj 353 134 hip~;
#X obj 289 134 bp~ 220 1;
#X floatatom 449 88 5 0 0 0 - - -;
#X obj 555 139 vcf~ 220 1;
#X obj 601 -65 hsl 128 15 0 127 0 0 empty empty empty -2 -8 0 10 -262144
-1 -1 4400 1;
#X obj 598 -39 mtof~;
#X obj 612 12 osc~;
#X obj 614 -10 nbx 5 14 -1e+37 1e+37 0 0 empty empty empty 0 -8 0 10
-262144 -1 -1 33 256;
#X obj 631 39 nbx 5 14 -1e+37 1e+37 0 0 empty empty empty 0 -8 0 10
-262144 -1 -1 5956 256;
#X obj 613 64 *~;
#X obj 599 95 +~;
#X text 605 -82 FM;
#X obj 826 125 vline~;
#X msg 826 99 1 1000 \, 0.7 1000 1000 \, 0 1000 3000;
#X obj 804 172 *~;
#X text 725 32 ENVELOPE;
#X obj 554 192 noise~;
#X obj 554 222 lop~;
#X obj 553 244 lop~;
#X obj 553 267 lop~;
#X obj 553 293 lop~;
#X floatatom 606 194 5 0 0 0 - - -;
#X obj 833 -23 tgl 15 0 empty empty empty 17 7 0 10 -262144 -1 -1 1
1;
#X obj 832 15 metro 5000;
#X obj 373 210 osc~;
#X obj 411 211 phasor~;
#X floatatom 435 179 5 0 0 0 - - -;
#X floatatom 378 177 5 0 0 0 - - -;
#X obj 378 252 *~;
#X obj 233 401 vline~;
#X msg 233 375 1 1000 \, 0.7 1000 1000 \, 0 1000 3000;
#X obj 211 448 *~;
#X obj 240 253 tgl 15 0 empty empty empty 17 7 0 10 -262144 -1 -1 1
1;
#X obj 239 291 metro 5000;
#X obj 391 313 random 200;
#X obj 843 239 phasor~ 30;
#X obj 882 306 vline~;
#X msg 878 267 1 \, 0 1000;
#X obj 861 339 *~;
#X obj 864 169 tgl 15 0 empty empty empty 17 7 0 10 -262144 -1 -1 1
1;
#X obj 866 206 metro 2500;
#X obj 957 227 float;
#X obj 999 227 + 1;
#X obj 961 276 mod 8;
#X obj 943 310 sel 0 1 2 3 4 5 6 7;
#X floatatom 922 340 5 0 0 0 - - -;
#X floatatom 938 363 5 0 0 0 - - -;
#X floatatom 952 384 5 0 0 0 - - -;
#X floatatom 960 407 5 0 0 0 - - -;
#X floatatom 976 434 5 0 0 0 - - -;
#X floatatom 986 456 5 0 0 0 - - -;
#X floatatom 993 479 5 0 0 0 - - -;
#X floatatom 1005 503 5 0 0 0 - - -;
#X obj 697 252 noise~;
#X floatatom 748 258 5 0 0 0 - - -;
#X obj 724 318 vline~;
#X obj 707 351 *~;
#X obj 698 289 lop~;
#X obj 754 218 delay 500;
#X msg 741 290 1 \, 0 500;
#X connect 0 0 3 0;
#X connect 1 0 0 0;
#X connect 3 0 4 0;
#X connect 4 0 36 0;
#X connect 5 0 6 0;
#X connect 6 0 4 1;
#X connect 7 0 5 0;
#X connect 9 0 10 0;
#X connect 10 0 15 0;
#X connect 11 0 14 0;
#X connect 12 0 11 0;
#X connect 13 0 14 1;
#X connect 14 0 15 1;
#X connect 15 0 16 0;
#X connect 18 0 21 0;
#X connect 18 0 22 0;
#X connect 18 0 23 0;
#X connect 18 0 25 0;
#X connect 19 0 20 0;
#X connect 19 0 23 1;
#X connect 20 0 21 1;
#X connect 20 0 22 1;
#X connect 24 0 23 2;
#X connect 24 0 25 2;
#X connect 26 0 27 0;
#X connect 27 0 32 0;
#X connect 28 0 31 0;
#X connect 29 0 28 0;
#X connect 30 0 31 1;
#X connect 31 0 32 1;
#X connect 32 0 25 1;
#X connect 34 0 36 1;
#X connect 35 0 34 0;
#X connect 36 0 2 1;
#X connect 36 0 2 0;
#X connect 38 0 39 0;
#X connect 39 0 40 0;
#X connect 40 0 41 0;
#X connect 41 0 42 0;
#X connect 42 0 2 0;
#X connect 42 0 36 0;
#X connect 43 0 39 1;
#X connect 43 0 40 1;
#X connect 43 0 41 1;
#X connect 43 0 42 1;
#X connect 44 0 45 0;
#X connect 45 0 35 0;
#X connect 46 0 50 0;
#X connect 47 0 50 1;
#X connect 48 0 47 0;
#X connect 49 0 46 0;
#X connect 50 0 53 0;
#X connect 51 0 53 1;
#X connect 52 0 51 0;
#X connect 53 0 2 0;
#X connect 54 0 55 0;
#X connect 55 0 52 0;
#X connect 55 0 56 0;
#X connect 56 0 48 0;
#X connect 57 0 60 0;
#X connect 58 0 60 1;
#X connect 59 0 58 0;
#X connect 60 0 2 1;
#X connect 61 0 62 0;
#X connect 62 0 59 0;
#X connect 62 0 63 0;
#X connect 63 0 64 0;
#X connect 63 0 65 0;
#X connect 64 0 63 1;
#X connect 65 0 66 0;
#X connect 65 0 80 0;
#X connect 66 0 67 0;
#X connect 66 2 69 0;
#X connect 66 3 70 0;
#X connect 66 4 71 0;
#X connect 66 5 72 0;
#X connect 66 6 73 0;
#X connect 66 7 74 0;
#X connect 67 0 57 0;
#X connect 68 0 57 0;
#X connect 69 0 57 0;
#X connect 70 0 57 0;
#X connect 71 0 57 0;
#X connect 72 0 57 0;
#X connect 73 0 57 0;
#X connect 74 0 57 0;
#X connect 75 0 79 0;
#X connect 76 0 79 1;
#X connect 77 0 78 1;
#X connect 78 0 2 1;
#X connect 79 0 78 0;
#X connect 80 0 81 0;
#X connect 81 0 77 0;
