#N canvas 0 24 1272 693 10;
#X obj 232 81 comport 4 9600;
#X obj 626 576 dac~;
#X obj 104 309 mtof;
#X obj 112 351 osc~;
#N canvas 0 0 450 300 (subpatch) 0;
#X array array1 140 float 2;
#X coords 0 1 140 -1 140 140 1;
#X restore -116 540 graph;
#X obj -116 505 tabwrite~ array1;
#X obj -116 469 metro 100;
#X obj -116 441 tgl 15 0 empty empty empty 17 7 0 10 -262144 -1 -1
1 1;
#X obj 104 281 autoscale 0 127;
#X obj 205 312 mtof;
#X obj 213 354 osc~;
#X obj 205 284 autoscale 0 127;
#X obj 308 312 mtof;
#X obj 316 354 osc~;
#X obj 308 284 autoscale 0 127;
#X obj 406 311 mtof;
#X obj 406 283 autoscale 0 127;
#X obj 232 122 zl group 4;
#X obj 232 165 unpack f f f f;
#X floatatom 191 217 5 0 0 0 - - -;
#X floatatom 246 222 5 0 0 0 - - -;
#X floatatom 291 227 5 0 0 0 - - -;
#X floatatom 338 219 5 0 0 0 - - -;
#X obj 622 479 mono-pureverb;
#X msg 544 393 0 \$1;
#X obj 449 376 / 100;
#X obj 869 161 phasor~;
#X connect 0 0 17 0;
#X connect 2 0 3 0;
#X connect 6 0 5 0;
#X connect 7 0 6 0;
#X connect 8 0 2 0;
#X connect 9 0 10 0;
#X connect 11 0 9 0;
#X connect 12 0 13 0;
#X connect 14 0 12 0;
#X connect 15 0 26 0;
#X connect 16 0 15 0;
#X connect 17 0 18 0;
#X connect 18 0 19 0;
#X connect 18 1 20 0;
#X connect 18 2 21 0;
#X connect 18 3 22 0;
#X connect 19 0 8 0;
#X connect 20 0 11 0;
#X connect 21 0 14 0;
#X connect 21 0 25 0;
#X connect 22 0 16 0;
#X connect 23 0 1 0;
#X connect 24 0 23 1;
#X connect 25 0 24 0;
#X connect 26 0 23 0;
#X connect 26 0 5 0;
