#N canvas 0 0 720 537 10;
#X obj 149 -6 comport 4 9600;
#X obj 21 194 autoscale 0 127;
#X obj 122 197 autoscale 0 127;
#X obj 225 197 autoscale 0 127;
#X obj 323 196 autoscale 0 127;
#X obj 149 35 zl group 4;
#X obj 149 78 unpack f f f f;
#X floatatom 108 130 5 0 0 0 - - -;
#X floatatom 163 135 5 0 0 0 - - -;
#X floatatom 208 140 5 0 0 0 - - -;
#X floatatom 255 132 5 0 0 0 - - -;
#X floatatom 302 292 5 0 0 0 - - -;
#X obj 227 473 dac~;
#X obj 250 431 *~;
#X msg 290 386 0;
#X msg 349 368 1;
#X obj 125 323 sel 0 1;
#X obj 105 386 bng 15 250 50 0 empty empty empty 17 7 0 10 -262144
-1 -1;
#X obj 146 363 bng 15 250 50 0 empty empty empty 17 7 0 10 -262144
-1 -1;
#X obj 280 329 osc~;
#X obj 288 262 mtof;
#X msg 222 244 61;
#X obj 178 268 > 250;
#X connect 0 0 5 0;
#X connect 5 0 6 0;
#X connect 6 0 7 0;
#X connect 6 1 8 0;
#X connect 6 1 22 0;
#X connect 6 2 9 0;
#X connect 6 3 10 0;
#X connect 7 0 1 0;
#X connect 8 0 2 0;
#X connect 9 0 3 0;
#X connect 10 0 4 0;
#X connect 11 0 19 0;
#X connect 13 0 12 0;
#X connect 13 0 12 1;
#X connect 14 0 13 1;
#X connect 15 0 13 1;
#X connect 16 0 17 0;
#X connect 16 1 18 0;
#X connect 17 0 14 0;
#X connect 18 0 15 0;
#X connect 19 0 13 0;
#X connect 20 0 11 0;
#X connect 20 0 19 0;
#X connect 21 0 20 0;
#X connect 22 0 16 0;
