#N canvas 379 30 703 482 10;
#N canvas 187 22 406 409 (subpatch) 0;
#X obj 43 179 cnv 15 260 215 empty empty empty 20 12 0 14 -203890 -66577
0;
#X obj 53 236 cnv 15 129 150 empty empty empty 20 12 0 14 -153969 -66577
0;
#N canvas 670 22 386 356 Phase 0;
#X obj 13 0 cnv 15 355 340 empty empty empty 20 12 0 14 -37450 -66577
0;
#X obj 32 157 cnv 15 180 163 empty empty empty 20 12 0 14 -204786 -66577
0;
#X obj 71 258 *~;
#X obj 42 166 rifft~;
#X obj 71 280 outlet~;
#X obj 58 216 *~;
#X obj 73 193 tabreceive~ \$0-hann;
#X obj 86 237 expr 2/(3*$f1);
#X text 88 167 Current Window;
#X text 108 254 Normalize;
#X text 72 300 iFFT;
#X obj 32 18 cnv 15 121 80 empty empty empty 20 12 0 14 -204800 -66577
0;
#X obj 154 18 cnv 15 189 80 empty empty empty 20 12 0 14 -261234 -66577
0;
#X obj 32 99 cnv 15 311 57 empty empty empty 20 12 0 14 -257985 -66577
0;
#X text 42 18 Previous Window;
#N canvas 217 181 573 222 normalize 0;
#X obj 171 118 *~;
#X obj 69 121 *~;
#N canvas 128 81 304 192 magnitude 0;
#X obj 21 25 inlet~;
#X obj 219 27 inlet~;
#X obj 32 145 outlet~;
#X obj 32 110 q8_rsqrt~;
#X obj 32 87 +~ 1e-20;
#X obj 22 64 expr~ (pow ($v1 \, 2) + pow($v2 \, 2));
#X text 95 86 1e-20 prevents overflow.;
#X connect 0 0 5 0;
#X connect 1 0 5 1;
#X connect 3 0 2 0;
#X connect 4 0 3 0;
#X connect 5 0 4 0;
#X restore 75 89 pd magnitude z;
#X obj 157 48 inlet~;
#X obj 48 49 inlet~;
#X obj 172 145 outlet~;
#X obj 68 147 outlet~;
#X text 254 68 recall previous output amplitude. Its phase will be
accumulled (added to Hop Difference).;
#X text 9 176 (make unit-magnitude complex amplitude / phase only)
;
#X connect 0 0 5 0;
#X connect 1 0 6 0;
#X connect 2 0 1 1;
#X connect 2 0 0 0;
#X connect 3 0 2 1;
#X connect 3 0 0 1;
#X connect 4 0 2 0;
#X connect 4 0 1 0;
#X restore 42 76 pd normalize;
#N canvas 101 123 443 344 phase 0;
#X obj 189 109 cnv 15 160 145 empty empty empty 20 12 0 14 -183917
-66577 0;
#X obj 16 29 cnv 15 240 80 empty empty empty 20 12 0 14 -262130 -66577
0;
#X obj 31 51 inlet~;
#X obj 74 51 inlet~;
#X obj 139 50 inlet~;
#X obj 181 50 inlet~;
#X obj 249 139 inlet~;
#X obj 293 139 inlet~;
#X obj 204 208 outlet~;
#X obj 273 209 outlet~;
#N canvas 114 29 512 352 phase 0;
#X text 81 121 Re = (a1*a2) + (b1*b2);
#X text 72 48 a1 = $v1;
#X text 259 47 b2 = $v4;
#X text 275 122 Im = (b1*a2) - (a1*b2);
#X obj 75 88 expr~ ($v1 * $v3) + ($v2 * $v4) \; ($v2 * $v3) - ($v1
* $v4);
#X text 134 47 b1 = $v2;
#X text 197 47 a2 = $v3;
#X text 360 67 /;
#X text 357 55 Z1 = (a1 + b1i);
#X text 358 81 Z2 = (a2 + b2i);
#X text 413 69 /;
#X text 144 -3 Phase Difference;
#X obj 75 66 inlet~;
#X obj 138 65 inlet~;
#X obj 201 65 inlet~;
#X obj 264 65 inlet~;
#X obj 75 147 outlet~;
#X obj 264 145 outlet~;
#X text 116 23 Z1;
#X text 186 23 /;
#X text 245 24 Z2;
#X text 272 24 (Back Window);
#X text 46 22 (s[m-1 \, k]);
#X text 65 288 A Magnitude (Amplitude) é igual a da Janela Anterior.
;
#X text 50 237 A diferença é obtida por meio da mateméatica de números
complexos \, na forma retangular.;
#X text 49 205 A fase é a Diferença de Fase entre o último resulktado
(s[m-1 \, k] e o FFT da janela traseira.;
#X text 82 176 R[k];
#X text 272 170 R[k];
#X connect 4 0 16 0;
#X connect 4 1 17 0;
#X connect 12 0 4 0;
#X connect 13 0 4 1;
#X connect 14 0 4 2;
#X connect 15 0 4 3;
#X restore 63 84 pd phase difference;
#N canvas 357 27 419 284 lock/normalize 0;
#X obj 39 65 cnv 15 108 34 empty empty empty 20 12 0 14 -233017 -66577
0;
#X obj 39 100 cnv 15 320 95 empty empty empty 20 12 0 14 -212265 -66577
0;
#X obj 52 167 *~;
#X obj 134 164 *~;
#X obj 50 106 +~ 1e-15;
#X obj 137 105 +~ 1e-15;
#N canvas 116 92 267 162 magnitude 0;
#X obj 14 14 inlet~;
#X obj 200 14 inlet~;
#X obj 25 134 outlet~;
#X obj 25 99 q8_rsqrt~;
#X obj 15 53 expr~ (pow ($v1 \, 2) + pow($v2 \, 2));
#X connect 0 0 4 0;
#X connect 1 0 4 1;
#X connect 3 0 2 0;
#X connect 4 0 3 0;
#X restore 71 134 pd magnitude;
#X obj 130 199 outlet~;
#X obj 46 199 outlet~;
#X obj 128 42 inlet~;
#X obj 42 41 inlet~;
#N canvas 228 78 842 334 shift 0;
#X obj 128 124 lrshift~ 1;
#X obj 8 126 lrshift~ -1;
#X obj 115 208 *~;
#X obj 97 250 +~;
#X obj 97 280 outlet~;
#X obj 95 37 inlet~;
#X obj 329 120 lrshift~ 1;
#X obj 220 114 lrshift~ -1;
#X obj 316 214 *~;
#X obj 298 256 +~;
#X obj 298 286 outlet~;
#X obj 296 33 inlet~;
#X text 429 113 Lock on: phase-locking version R'[k] (Add lrshift~
to R[k]) Channels in phase by adding 2 neighbor complex amplitudes.
Result tends to strongest amplitude channel. No phase change if paralell
phase output/input (quotient neighbor channel have equal phase).;
#X obj 166 156 r \$0-lock;
#X connect 0 0 2 0;
#X connect 1 0 2 0;
#X connect 2 0 3 1;
#X connect 3 0 4 0;
#X connect 5 0 0 0;
#X connect 5 0 1 0;
#X connect 5 0 3 0;
#X connect 6 0 8 0;
#X connect 7 0 8 0;
#X connect 8 0 9 1;
#X connect 9 0 10 0;
#X connect 11 0 6 0;
#X connect 11 0 7 0;
#X connect 11 0 9 0;
#X connect 13 0 8 1;
#X connect 13 0 2 1;
#X restore 46 74 pd shift & lock;
#X text 196 106 somar 1e-15 previne zeros;
#X text 181 153 Normalizar com a Magnitude;
#X connect 2 0 8 0;
#X connect 3 0 7 0;
#X connect 4 0 6 0;
#X connect 4 0 2 0;
#X connect 5 0 3 1;
#X connect 5 0 6 1;
#X connect 6 0 2 1;
#X connect 6 0 3 0;
#X connect 9 0 11 1;
#X connect 10 0 11 0;
#X connect 11 0 4 0;
#X connect 11 1 5 0;
#X restore 71 116 pd lock/normalize;
#X text 120 27 -;
#X text 37 28 P (Previous);
#X text 141 28 T (Back Window);
#X text 239 116 T' (Front Window);
#X text 214 232 Phase diff + T';
#N canvas 292 98 831 396 phase 0;
#X text 89 159 Re = (a1*a2) - (b1*b2);
#X text 277 155 Im = (b1*a2) + (a1*b2);
#X text 76 86 a1 = $v1;
#X text 263 85 b2 = $v4;
#X text 138 85 b1 = $v2;
#X text 201 85 a2 = $v3;
#X text 371 90 Z1 = (a1 + b1i);
#X text 372 116 Z2 = (a2 + b2i);
#X obj 79 104 inlet~;
#X obj 142 103 inlet~;
#X obj 205 103 inlet~;
#X obj 268 103 inlet~;
#X obj 78 186 outlet~;
#X obj 268 180 outlet~;
#X obj 79 126 expr~ ($v1 * $v3) - ($v2 * $v4) \; ($v2 * $v3) + ($v1
* $v4);
#X text 375 104 *;
#X text 427 104 *;
#X text 148 32 Complex Multiply;
#X text 121 61 Z1;
#X text 191 61 *;
#X text 251 61 Z2;
#X text 74 235 A fase é a soma da fase da Janela dianteira e a diferença
de fases obtida anteriormente.;
#X text 74 271 A soma das fases é obtida pela Multiplicação de números
complexos na forma retangular.;
#X text 91 313 A Magnitude é igual a da Janela Dianteira.;
#X text 425 250 if "lock" on \, they change to agree with inter-channel
phase relationships of the input.;
#X connect 8 0 14 0;
#X connect 9 0 14 1;
#X connect 10 0 14 2;
#X connect 11 0 14 3;
#X connect 14 0 12 0;
#X connect 14 1 13 0;
#X restore 204 184 pd phase sum;
#X text 118 266 Result has Magnitude of Front Window & Phase of Acumullation:
(P + T' - T)!;
#X connect 2 0 10 0;
#X connect 3 0 10 1;
#X connect 4 0 10 2;
#X connect 5 0 10 3;
#X connect 6 0 17 2;
#X connect 7 0 17 3;
#X connect 10 0 11 0;
#X connect 10 1 11 1;
#X connect 11 0 17 0;
#X connect 11 1 17 1;
#X connect 17 0 8 0;
#X connect 17 1 9 0;
#X restore 42 107 pd phase acummulation (Phase Vocoding);
#N canvas 314 189 444 371 FFTs 0;
#X obj 63 155 *~;
#X obj 212 170 *~;
#X obj 236 109 tabreceive~ \$0-hann;
#X obj 47 83 tabread4~ \$0-sample;
#X obj 212 82 tabread4~ \$0-sample;
#X obj 221 208 outlet~;
#X obj 94 199 outlet~;
#X obj 145 -29 line~;
#X obj 132 36 -~;
#X obj 145 -59 inlet;
#X obj 202 -10 r \$0-overlap;
#X connect 0 0 6 0;
#X connect 1 0 5 0;
#X connect 2 0 1 1;
#X connect 2 0 0 1;
#X connect 3 0 0 0;
#X connect 4 0 1 0;
#X connect 7 0 8 0;
#X connect 7 0 4 0;
#X connect 8 0 3 0;
#X connect 9 0 7 0;
#X connect 10 0 8 1;
#X restore 167 46 pd FFTs (Back & Front);
#X obj 294 67 rfft~;
#X obj 167 67 rfft~;
#X text 166 83 T = (Back);
#X text 253 81 T' = (Front);
#X obj 51 131 tabsend~ \$0-re;
#X obj 251 133 tabsend~ \$0-im;
#X obj 35 35 tabreceive~ \$0-re;
#X obj 46 55 tabreceive~ \$0-im;
#X obj 167 23 inlet;
#X obj 213 157 cnv 15 130 163 empty empty empty 20 12 0 14 -233017
-66577 0;
#X obj 232 234 block~;
#X msg 232 212 set \$1 4;
#X text 223 255 Window & Overlaps;
#X obj 232 191 r \$0-window-size;
#X connect 2 0 4 0;
#X connect 3 0 5 0;
#X connect 5 0 2 0;
#X connect 6 0 5 1;
#X connect 7 0 2 1;
#X connect 15 0 16 0;
#X connect 15 1 16 1;
#X connect 16 0 3 0;
#X connect 16 0 22 0;
#X connect 16 1 3 1;
#X connect 16 1 23 0;
#X connect 17 0 19 0;
#X connect 17 1 18 0;
#X connect 18 0 16 4;
#X connect 18 1 16 5;
#X connect 19 0 16 2;
#X connect 19 1 16 3;
#X connect 24 0 15 0;
#X connect 25 0 15 1;
#X connect 26 0 17 0;
#X connect 29 0 28 0;
#X connect 31 0 29 0;
#X connect 31 0 7 0;
#X restore 63 273 pd Phase Vocoder;
#N canvas 70 25 659 694 fft 0;
#N canvas 0 22 450 300 (subpatch) 0;
#X array \$0-im 4096 float 0;
#X coords 0 1000 4096 -1000 400 300 1;
#X restore 169 340 graph;
#N canvas 0 22 450 300 (subpatch) 0;
#X array \$0-re 4096 float 0;
#X coords 0 500 4096 -500 400 300 1;
#X restore 170 17 graph;
#X restore 93 326 pd fft tables;
#X obj 70 208 cnv 15 200 27 empty empty empty 20 12 0 14 -261234 -66577
0;
#X obj 160 215 table \$0-sample;
#N canvas 823 131 532 498 TabWrite 0;
#X obj 89 282 tabwrite~ \$0-sample;
#X obj 224 103 tgl 15 0 empty empty empty 17 7 0 10 -262144 -1 -1 1
1;
#X obj 224 124 sel 0 1;
#X obj 243 147 bng 15 250 50 0 empty empty empty 17 7 0 10 -262144
-1 -1;
#X obj 224 147 bng 15 250 50 0 empty empty empty 17 7 0 10 -262144
-1 -1;
#X msg 100 247 stop;
#X msg 258 212 start \$1;
#X obj -4 205 r \$0-recbangpv;
#X obj 223 -1 inlet;
#X floatatom 81 369 5 0 0 0 - - -;
#X obj 81 345 t b a;
#X obj 67 446 s \$0-speed;
#X obj 67 423 f;
#X obj 257 167 f;
#X obj 279 135 r \$0-rec-point;
#X floatatom 283 166 5 0 0 0 - - -;
#X obj 257 191 * 44100;
#X obj 382 132 s \$0-metro-on-off;
#X obj 81 390 abs;
#X obj 226 342 s \$0-rcv-P-C;
#X obj 238 80 r \$0-snd-P-C;
#X msg 224 44 set 1;
#X obj 277 13 r \$0-rewind;
#X obj 270 284 r \$0-rewind;
#X obj -4 233 t b b;
#X obj 81 321 r \$0-speed-preset;
#X msg 224 248 color 16 12 12 \, label Continue \, label_font 3 10
;
#X msg 246 314 color 15 12 12 \, label Pause \, label_font 3 10;
#X obj 340 70 s \$0-sample;
#X msg 296 41 const 0;
#X obj 89 2 inlet~;
#X obj 89 164 hip~ 5;
#X connect 1 0 2 0;
#X connect 1 0 17 0;
#X connect 2 0 4 0;
#X connect 2 1 3 0;
#X connect 3 0 27 0;
#X connect 3 0 13 0;
#X connect 4 0 5 0;
#X connect 4 0 26 0;
#X connect 5 0 0 0;
#X connect 6 0 0 0;
#X connect 7 0 24 0;
#X connect 8 0 21 0;
#X connect 9 0 18 0;
#X connect 10 0 9 0;
#X connect 10 1 9 0;
#X connect 12 0 11 0;
#X connect 13 0 16 0;
#X connect 14 0 13 1;
#X connect 14 0 15 0;
#X connect 16 0 6 0;
#X connect 18 0 12 1;
#X connect 20 0 1 0;
#X connect 21 0 1 0;
#X connect 22 0 21 0;
#X connect 22 0 29 0;
#X connect 23 0 27 0;
#X connect 24 0 12 0;
#X connect 24 1 0 0;
#X connect 25 0 10 0;
#X connect 26 0 19 0;
#X connect 27 0 19 0;
#X connect 29 0 28 0;
#X connect 30 0 31 0;
#X connect 31 0 0 0;
#X restore 83 214 pd TabWrite;
#N canvas 22 311 640 343 hann 0;
#N canvas 0 22 450 300 (subpatch) 0;
#X array \$0-hann 2048 float 0;
#X coords 0 1 2047 0 300 100 1;
#X restore 298 105 graph;
#X obj 205 220 osc~;
#X obj 205 245 *~ -0.5;
#X obj 205 269 +~ 0.5;
#X obj 194 292 tabwrite~ \$0-hann;
#X obj 51 123 /;
#X obj 140 92 samplerate~;
#X obj 167 129 swap;
#X obj 167 153 /;
#X obj 58 144 * 1000;
#X obj 51 65 t f b f;
#X msg 186 42 resize \$1;
#X obj 186 66 s \$0-hann;
#X msg 226 198 0;
#X obj 167 176 t f b;
#X obj 50 38 r \$0-window-size;
#X obj 58 166 s \$0-window-msec;
#X obj 51 188 s \$0-window-sec;
#X connect 1 0 2 0;
#X connect 2 0 3 0;
#X connect 3 0 4 0;
#X connect 5 0 9 0;
#X connect 5 0 17 0;
#X connect 6 0 5 1;
#X connect 6 0 7 1;
#X connect 7 0 8 0;
#X connect 7 1 8 1;
#X connect 8 0 14 0;
#X connect 9 0 16 0;
#X connect 10 0 5 0;
#X connect 10 0 7 0;
#X connect 10 1 6 0;
#X connect 10 2 11 0;
#X connect 11 0 12 0;
#X connect 13 0 1 1;
#X connect 14 0 1 0;
#X connect 14 1 4 0;
#X connect 14 1 13 0;
#X connect 15 0 10 0;
#X restore 117 352 pd hann;
#N canvas 155 234 472 337 loadbang 0;
#X obj 48 27 loadbang;
#X obj 101 175 s \$0-rcv-P-C;
#X msg 101 152 color 15 12 12 \, label Pause \, label_font 3 10;
#X obj 48 136 outlet;
#X msg 207 79 \; pd dsp 1 \;;
#X obj 17 86 delay 100;
#X obj 18 177 s \$0-rewind;
#X obj 48 51 trigger bang bang bang bang;
#X obj 154 80 f \$1;
#X obj 154 127 s \$0-get-preset;
#X obj 154 103 - 1;
#X connect 0 0 7 0;
#X connect 2 0 1 0;
#X connect 5 0 6 0;
#X connect 7 0 3 0;
#X connect 7 0 5 0;
#X connect 7 1 2 0;
#X connect 7 2 8 0;
#X connect 7 3 4 0;
#X connect 8 0 10 0;
#X connect 10 0 9 0;
#X restore 146 186 pd loadbang;
#N canvas 571 468 554 243 Location 0;
#X obj 326 162 +;
#X floatatom 341 77 7 0 0 0 - - -;
#X obj 314 99 / 2;
#X obj 299 120 -;
#X text 182 121 back up 1/2 window;
#N canvas 7 595 171 154 rewind 0;
#X obj 14 55 f;
#X obj 29 33 inlet;
#X obj 14 11 r \$0-rewind;
#X obj 14 82 expr ($f1/44.1) * -0.5;
#X obj 14 108 outlet;
#X connect 0 0 3 0;
#X connect 1 0 0 1;
#X connect 2 0 0 0;
#X connect 3 0 4 0;
#X restore 379 100 pd rewind;
#X obj 351 106 / 4;
#X obj 299 54 * 44.1;
#X text 387 78 new Window;
#X text 183 53 Location (samples);
#N canvas 438 22 309 174 hop 0;
#X msg 91 109 \$1 \, \$2 \$3;
#X text 12 15 "back" window 1/4 cycle behind "front" one;
#X obj 66 44 inlet;
#X obj 107 45 inlet;
#X obj 91 137 outlet;
#X obj 147 44 r \$0-hopinms;
#X obj 91 80 pack 0 0 f;
#X connect 0 0 4 0;
#X connect 2 0 6 0;
#X connect 3 0 6 1;
#X connect 5 0 6 2;
#X connect 6 0 0 0;
#X restore 257 185 pd hop apart;
#X obj 351 129 s \$0-overlap;
#N canvas 18 137 195 252 transposition 0;
#X obj 22 61 * 0.01;
#X obj 22 82 + 69;
#X obj 23 103 mtof;
#X obj 23 125 / 440;
#X obj 23 146 t b f;
#X obj 15 15 r \$0-window-size;
#X obj 22 36 r \$0-transpo;
#X msg 82 59 set \$1;
#X obj 82 81 s \$0-transpo-set;
#X obj 15 192 *;
#X obj 15 215 outlet;
#X obj 15 170 f;
#X connect 0 0 1 0;
#X connect 1 0 2 0;
#X connect 2 0 3 0;
#X connect 3 0 4 0;
#X connect 4 0 11 0;
#X connect 4 1 9 1;
#X connect 5 0 11 0;
#X connect 6 0 0 0;
#X connect 6 0 7 0;
#X connect 7 0 8 0;
#X connect 9 0 10 0;
#X connect 11 0 9 0;
#X restore 345 52 pd transposition;
#X obj 437 155 s \$0-location;
#X floatatom 437 129 5 0 0 0 - - -;
#X obj 299 143 t f f;
#X obj 257 211 outlet;
#N canvas 842 23 434 247 generate-location 0;
#X msg 40 128 0;
#X msg 314 56 set \$1;
#X obj 193 113 +;
#X obj 208 92 *;
#X obj 232 69 r \$0-hopinms;
#X obj 188 70 * 0.01;
#N canvas 57 48 259 143 bang~ 0;
#X obj -147 -13 bang~;
#X obj -79 -38 cnv 15 130 100 empty empty empty 20 12 0 14 -233017
-66577 0;
#X obj -60 19 block~;
#X msg -60 -3 set \$1 4;
#X text -69 40 Window & Overlaps;
#X obj -60 -24 r \$0-window-size;
#X obj -147 17 outlet;
#X connect 0 0 6 0;
#X connect 3 0 2 0;
#X connect 5 0 3 0;
#X restore 132 85 pd bang~;
#X obj 132 112 float;
#X obj 246 18 r \$0-speed;
#X obj 314 78 s \$0-speed-set;
#X obj 40 151 s \$0-speed;
#X obj 40 73 r \$0-location;
#X floatatom 133 137 8 0 0 0 - - -;
#X obj 133 166 outlet;
#X obj 224 174 outlet;
#X text 225 198 Location;
#X obj 109 28 r \$0-loop-Loc;
#X floatatom 230 141 9 0 0 0 - - -;
#X obj 71 2 r \$0-rewind;
#X msg 71 45 0;
#X obj 63 22 del 5;
#X connect 0 0 10 0;
#X connect 1 0 9 0;
#X connect 2 0 7 1;
#X connect 2 0 14 0;
#X connect 2 0 17 0;
#X connect 3 0 2 1;
#X connect 4 0 3 1;
#X connect 5 0 3 0;
#X connect 6 0 7 0;
#X connect 7 0 2 0;
#X connect 7 0 12 0;
#X connect 8 0 5 0;
#X connect 8 0 1 0;
#X connect 11 0 7 1;
#X connect 11 0 0 0;
#X connect 12 0 13 0;
#X connect 16 0 7 0;
#X connect 18 0 20 0;
#X connect 19 0 7 0;
#X connect 20 0 19 0;
#X restore 299 23 pd generate-location;
#X obj 466 54 outlet;
#X obj 72 77 r \$0-recbangpv;
#X msg 72 105 1;
#X obj 25 174 spigot;
#X obj 39 55 r \$0-rewind;
#X msg 39 76 0;
#X obj 72 126 t b f;
#X obj 25 152 f;
#X obj 23 34 r \$0-to-speed;
#X obj 137 18 nbx 5 18 -1e+37 1e+37 0 0 \$0-speed \$0-speed-set Speed
73 9 0 13 -183930 -1 -1 0 256;
#X obj 25 197 s \$0-speed-set;
#X connect 0 0 10 1;
#X connect 1 0 0 1;
#X connect 1 0 2 0;
#X connect 1 0 5 0;
#X connect 1 0 6 0;
#X connect 2 0 3 1;
#X connect 3 0 15 0;
#X connect 5 0 14 0;
#X connect 6 0 11 0;
#X connect 7 0 3 0;
#X connect 10 0 16 0;
#X connect 12 0 1 0;
#X connect 14 0 13 0;
#X connect 15 0 10 0;
#X connect 15 1 0 0;
#X connect 17 0 7 0;
#X connect 17 1 18 0;
#X connect 19 0 20 0;
#X connect 20 0 24 0;
#X connect 21 0 28 0;
#X connect 22 0 23 0;
#X connect 23 0 21 1;
#X connect 24 0 25 0;
#X connect 24 1 21 1;
#X connect 25 0 21 0;
#X connect 26 0 25 0;
#X restore 63 241 pd Location;
#X obj 183 236 cnv 15 105 114 empty empty empty 20 12 0 14 -233017
-66577 0;
#X obj 182 346 cnv 15 106 40 empty empty empty 20 12 0 14 -170602 -66577
0;
#N canvas 420 613 238 167 preseting 0;
#N canvas 155 22 710 631 presets 0;
#X obj 248 28 inlet;
#X obj 17 29 inlet;
#N canvas 628 63 812 677 set 0;
#X obj 79 15 inlet;
#X obj 29 372 outlet;
#X obj 61 338 outlet;
#X obj 95 291 outlet;
#X obj 79 38 route 0 1 2 3 4 5 6 7;
#X obj 165 503 outlet;
#X obj 141 441 outlet;
#X obj 122 399 outlet;
#X obj 190 572 outlet;
#X obj 235 629 outlet;
#X msg 79 77 set window-size \$1 \, addcomma \, add2 transposition
\$2 \, addcomma \, add2 Pvol \$3 \, addcomma \, add2 minutes \$4 \,
addcomma \, add2 speed \$5 \, addcomma \, add2 lock \$6 \, addcomma
\, add2 Name \$7 \, addcomma \, add2 Loop \$8;
#X msg 97 142 set window-size \$1 \, addcomma \, add2 transposition
\$2 \, addcomma \, add2 Pvol \$3 \, addcomma \, add2 minutes \$4 \,
addcomma \, add2 speed \$5 \, addcomma \, add2 lock \$6 \, addcomma
\, add2 Name \$7 \, addcomma \, add2 Loop \$8;
#X msg 113 210 set window-size \$1 \, addcomma \, add2 transposition
\$2 \, addcomma \, add2 Pvol \$3 \, addcomma \, add2 minutes \$4 \,
addcomma \, add2 speed \$5 \, addcomma \, add2 lock \$6 \, addcomma
\, add2 Name \$7 \, addcomma \, add2 Loop \$8;
#X msg 162 289 set window-size \$1 \, addcomma \, add2 transposition
\$2 \, addcomma \, add2 Pvol \$3 \, addcomma \, add2 minutes \$4 \,
addcomma \, add2 speed \$5 \, addcomma \, add2 lock \$6 \, addcomma
\, add2 Name \$7 \, addcomma \, add2 Loop \$8;
#X msg 179 354 set window-size \$1 \, addcomma \, add2 transposition
\$2 \, addcomma \, add2 Pvol \$3 \, addcomma \, add2 minutes \$4 \,
addcomma \, add2 speed \$5 \, addcomma \, add2 lock \$6 \, addcomma
\, add2 Name \$7 \, addcomma \, add2 Loop \$8;
#X msg 198 422 set window-size \$1 \, addcomma \, add2 transposition
\$2 \, addcomma \, add2 Pvol \$3 \, addcomma \, add2 minutes \$4 \,
addcomma \, add2 speed \$5 \, addcomma \, add2 lock \$6 \, addcomma
\, add2 Name \$7 \, addcomma \, add2 Loop \$8;
#X msg 212 488 set window-size \$1 \, addcomma \, add2 transposition
\$2 \, addcomma \, add2 Pvol \$3 \, addcomma \, add2 minutes \$4 \,
addcomma \, add2 speed \$5 \, addcomma \, add2 lock \$6 \, addcomma
\, add2 Name \$7 \, addcomma \, add2 Loop \$8;
#X msg 237 560 set window-size \$1 \, addcomma \, add2 transposition
\$2 \, addcomma \, add2 Pvol \$3 \, addcomma \, add2 minutes \$4 \,
addcomma \, add2 speed \$5 \, addcomma \, add2 lock \$6 \, addcomma
\, add2 Name \$7 \, addcomma \, add2 Loop \$8;
#X connect 0 0 4 0;
#X connect 4 0 10 0;
#X connect 4 1 11 0;
#X connect 4 2 12 0;
#X connect 4 3 13 0;
#X connect 4 4 14 0;
#X connect 4 5 15 0;
#X connect 4 6 16 0;
#X connect 4 7 17 0;
#X connect 10 0 1 0;
#X connect 11 0 2 0;
#X connect 12 0 3 0;
#X connect 13 0 7 0;
#X connect 14 0 6 0;
#X connect 15 0 5 0;
#X connect 16 0 8 0;
#X connect 17 0 9 0;
#X restore 248 74 pd set preset;
#X obj 309 601 outlet;
#X msg 103 366 window-size 2048 \, transposition 0 \, Pvol 0.992126
\, minutes 1 \, speed 100 \, lock 1 \, Name Normal \, Loop 2;
#X msg 174 317 window-size 2048 \, transposition 24 \, Pvol 0.992126
\, minutes 1 \, speed 500 \, lock 1 \, Name Rápido \, Loop 2;
#X msg 212 271 window-size 2048 \, transposition -51 \, Pvol 0.992126
\, minutes 1 \, speed 25 \, lock 1 \, Name Lento \, Loop 1;
#X msg 61 503 window-size 2048 \, transposition -2000 \, Pvol 0.992126
\, minutes 1 \, speed 95 \, lock 1 \, Name Grave \, Loop 2;
#X msg 93 461 window-size 2048 \, transposition 2000 \, Pvol 0.992126
\, minutes 1 \, speed 95 \, lock 1 \, Name Agudo \, Loop 2;
#X msg 131 415 window-size 2048 \, transposition 73 \, Pvol 0.992126
\, minutes 1 \, speed 110 \, lock 0 \, Name Diálogo \, Loop 2;
#X msg 285 224 window-size 2048 \, transposition 47 \, Pvol 1 \, minutes
1 \, speed 10 \, lock 0 \, Name Parando \, Loop 1;
#X msg 323 178 window-size 2048 \, transposition 0 \, Pvol 1 \, minutes
1 \, speed 50 \, lock 0 \, Name Half \, Loop 0;
#X obj 17 74 route 0 1 2 3 4 5 6 7;
#X connect 0 0 2 0;
#X connect 1 0 12 0;
#X connect 2 0 4 0;
#X connect 2 1 5 0;
#X connect 2 2 6 0;
#X connect 2 3 7 0;
#X connect 2 4 8 0;
#X connect 2 5 9 0;
#X connect 2 6 10 0;
#X connect 2 7 11 0;
#X connect 4 0 3 0;
#X connect 5 0 3 0;
#X connect 6 0 3 0;
#X connect 7 0 3 0;
#X connect 8 0 3 0;
#X connect 9 0 3 0;
#X connect 10 0 3 0;
#X connect 11 0 3 0;
#X connect 12 0 4 0;
#X connect 12 1 5 0;
#X connect 12 2 6 0;
#X connect 12 3 7 0;
#X connect 12 4 8 0;
#X connect 12 5 9 0;
#X connect 12 6 10 0;
#X connect 12 7 11 0;
#X restore 49 65 pd presets;
#N canvas 107 22 582 480 save 0;
#X obj -91 312 outlet;
#X obj -20 80 r \$0-window-size;
#X obj 3 101 r \$0-transpo;
#X obj -64 59 r \$0-save-preset;
#X floatatom 8 196 5 0 0 0 - - -;
#X floatatom -34 200 5 0 0 0 - - -;
#X obj 87 61 r \$0-pvgain;
#X floatatom 58 197 5 0 0 0 - - -;
#X floatatom 114 195 5 0 0 0 - - -;
#X obj 183 68 r \$0-to-speed;
#X obj 234 99 r \$0-lock;
#X obj 108 83 r \$0-temp;
#X floatatom 235 194 5 0 0 0 - - -;
#X obj 183 91 abs;
#X floatatom 192 194 5 0 0 0 - - -;
#X floatatom -86 197 5 0 0 0 - - -;
#X obj -91 286 list;
#X obj -115 34 r \$0-save-preset-bang;
#X obj 266 120 r \$0-pre-name;
#X obj -61 142 f;
#X obj -122 99 t b b;
#X obj -49 172 pack float float float float float float float symbol
float;
#X floatatom 344 194 5 0 0 0 - - -;
#X obj 302 149 r \$0-RadioValue;
#X msg -121 407 menusave;
#X obj -121 428 send pd-LPVoc.pd;
#X connect 1 0 5 0;
#X connect 1 0 21 1;
#X connect 2 0 4 0;
#X connect 2 0 21 2;
#X connect 3 0 15 0;
#X connect 3 0 19 1;
#X connect 6 0 7 0;
#X connect 6 0 21 3;
#X connect 9 0 13 0;
#X connect 10 0 12 0;
#X connect 10 0 21 6;
#X connect 11 0 8 0;
#X connect 11 0 21 4;
#X connect 13 0 14 0;
#X connect 13 0 21 5;
#X connect 16 0 0 0;
#X connect 17 0 20 0;
#X connect 18 0 21 7;
#X connect 19 0 21 0;
#X connect 20 0 16 0;
#X connect 20 0 24 0;
#X connect 20 1 19 0;
#X connect 21 0 16 1;
#X connect 23 0 21 8;
#X connect 23 0 22 0;
#X connect 24 0 25 0;
#X restore 108 40 pd save preset;
#X obj 49 17 r \$0-read-preset;
#N canvas 43 217 432 533 route 0;
#X obj 35 20 inlet;
#N canvas 23 260 357 177 hop 0;
#X floatatom 68 63 5 0 0 0 - - -;
#X obj 31 69 / 4;
#X text 55 117 computation period (msec) for overlap of 4;
#X text 121 62 msec in a window;
#X obj 31 94 s \$0-hopinms;
#X obj 30 17 inlet;
#X obj 30 39 / 44.1;
#X floatatom 124 92 5 0 0 0 - - -;
#X connect 1 0 4 0;
#X connect 1 0 7 0;
#X connect 5 0 6 0;
#X connect 6 0 1 0;
#X connect 6 0 0 0;
#X restore 21 336 pd hop in ms;
#X obj 35 303 s \$0-window-size;
#X obj 75 281 s \$0-transpo;
#X obj 116 252 s \$0-pvol;
#X obj 198 208 s \$0-speed-preset;
#X obj 239 185 s \$0-set-lock;
#X obj 280 160 s \$0-Preset-Name;
#X obj 280 137 symbol;
#X obj 35 47 route window-size transposition Pvol minutes speed lock
Name Loop;
#X obj 321 98 s \$0-AutoRadio;
#X obj 168 230 s \$0-min-nbx;
#X connect 0 0 9 0;
#X connect 8 0 7 0;
#X connect 9 0 2 0;
#X connect 9 0 1 0;
#X connect 9 1 3 0;
#X connect 9 2 4 0;
#X connect 9 3 11 0;
#X connect 9 4 5 0;
#X connect 9 5 6 0;
#X connect 9 6 8 0;
#X connect 9 7 10 0;
#X restore 49 92 pd route preset;
#X obj 54 41 pipe 200;
#N canvas 529 47 159 213 label 0;
#X obj 23 27 inlet;
#X obj 23 173 s \$0-Pre-Cnv;
#X obj 23 64 + 1;
#X obj 59 51 r \$0-pre-name;
#X msg 23 150 label \$1-\$2;
#X obj 23 127 pack f s;
#X obj 23 102 f;
#X obj 59 76 t b s;
#X connect 0 0 2 0;
#X connect 2 0 6 0;
#X connect 3 0 7 0;
#X connect 4 0 1 0;
#X connect 5 0 4 0;
#X connect 6 0 5 0;
#X connect 7 0 6 0;
#X connect 7 1 5 1;
#X restore 22 115 pd label;
#X connect 0 0 3 0;
#X connect 1 0 0 1;
#X connect 2 0 4 0;
#X connect 2 0 0 0;
#X connect 2 0 5 0;
#X connect 4 0 0 0;
#X restore 195 358 pd preseting;
#X obj 1 1 cnv 15 389 154 empty \$0-back-ctr-cnv empty 20 12 0 14 -233017
-33289 0;
#X obj 165 75 tgl 18 0 \$0-lock \$0-set-lock lock -2 -6 0 8 -203904
-1 -1 1 1;
#X obj 5 126 hradio 23 1 0 7 qwqhk14524444 \$0-wsize Window_Size 6
-10 0 11 -4034 -262144 -1 4;
#X obj 94 109 nbx 5 14 -1e+37 1e+37 0 0 gdgf354354 \$0-window-size
empty 0 -6 0 10 -4034 -1 -1 2048 256;
#X text 10 128 7;
#X text 34 128 8;
#X text 57 128 9;
#X text 77 128 10;
#X text 101 128 11;
#X text 124 128 12;
#X text 147 128 13;
#X obj 11 68 bng 30 250 50 0 \$0-rewind \$0-resetpv Rewind 0 -6 0 10
-4032 -1 -1;
#X obj 56 68 bng 30 250 50 0 \$0-recbangpv \$0-recpv Record 0 -6 0
10 -258699 -33289 -33289;
#X obj 13 26 nbx 4 20 0.1 10 0 0 \$0-temp-nbx \$0-min-nbx Min 60 11
1 14 -199398 -1 -1 1 256;
#X obj 356 21 vsl 23 128 0 1 0 0 \$0-pvgain \$0-pvol Vol 0 -10 0 13
-162983 -1 -1 12600 1;
#X obj 250 42 nbx 5 40 -1e+37 1e+37 0 0 \$0-to-speed \$0-speed-preset
Motion 0 -9 0 15 -3187 -1 -1 100 256;
#X obj 250 103 nbx 5 40 -1e+37 1e+37 0 0 \$0-transpo \$0-transpo-set
Transp 0 -9 0 15 -157606 -1 -1 0 256;
#N canvas 132 49 426 154 window 0;
#X obj 18 54 expr pow(2 \, ($f1 + 7));
#X msg 181 66 set \$1;
#X obj 181 44 expr ((log($f1)/log(2)) - 7+ 0.001);
#X obj 18 76 s \$0-window-size;
#X obj 181 88 s \$0-wsize;
#X obj 18 31 inlet;
#X obj 181 23 inlet;
#X connect 0 0 3 0;
#X connect 1 0 4 0;
#X connect 2 0 1 0;
#X connect 5 0 0 0;
#X connect 6 0 2 0;
#X restore 43 157 pd window;
#X obj 101 68 bng 30 250 50 0 \$0-snd-P-C \$0-rcv-P-C Pause 0 -6 0
10 -241291 -33289 -33289;
#X obj 192 113 tgl 30 0 \$0-freeze-it \$0-set-freeze Freeze -1 -8 0
10 -83269 -222849 -1 0 1;
#X obj 104 19 knob 28 28 0 1 0 0 \$0-Loc-Knob \$0-LocControl Location
15 -8 194 11 -4160 -1 -1 0 0;
#X obj 1 1 cnv 15 60 16 empty empty control 5 7 0 12 -58255 -262144
0;
#N canvas 818 104 388 315 freeze 0;
#X obj 109 -132 sel 0;
#X msg 149 56 set \$1;
#X obj 149 82 s \$0-speed-preset;
#X obj 123 27 abs;
#X floatatom 194 -14 5 0 0 0 - - -;
#X obj 208 -77 bng 15 250 50 0 empty empty empty 17 7 0 10 -262144
-1 -1;
#X obj 234 15 s \$0-speed-preset;
#X obj 216 -136 r \$0-freeze-it;
#X obj 216 -109 sel 0 1;
#X msg 234 -86 0;
#X obj 21 -79 s \$0-set-freeze;
#X msg 21 -102 set 0;
#X obj 20 -57 r \$0-rewind;
#X obj 109 -154 r \$0-speed;
#X obj 79 -20 float;
#X obj 180 -44 float;
#X text 155 -183 Freeze;
#X connect 0 1 1 0;
#X connect 0 1 11 0;
#X connect 0 1 14 1;
#X connect 0 1 15 1;
#X connect 1 0 2 0;
#X connect 3 0 1 0;
#X connect 4 0 6 0;
#X connect 5 0 15 0;
#X connect 7 0 8 0;
#X connect 8 0 5 0;
#X connect 8 1 9 0;
#X connect 9 0 6 0;
#X connect 11 0 10 0;
#X connect 12 0 14 0;
#X connect 13 0 0 0;
#X connect 14 0 3 0;
#X connect 15 0 3 0;
#X connect 15 0 4 0;
#X restore 209 244 pd freeze;
#N canvas 414 27 364 595 knob-loc 0;
#X obj 18 24 r \$0-Loc-Knob;
#X msg 213 71 0;
#X msg 95 106 set 1;
#X obj 213 95 s \$0-speed-preset;
#X text 107 22 Location Knob;
#X obj 18 319 pack f f;
#X obj 244 122 inlet;
#X msg 18 345 \$2 \, \$1 500;
#X obj 95 129 s \$0-set-freeze;
#X obj 19 437 *;
#X floatatom 19 484 5 0 0 0 - - -;
#X obj 19 509 * 1000;
#X obj 105 490 /;
#X obj 105 512 * 100;
#X obj 19 461 moses;
#X obj 46 437 r \$0-time-lenght;
#X obj 19 534 s \$0-location;
#X obj 19 389 line;
#X obj 105 534 s \$0-VocTime;
#X obj 34 415 r \$0-moses-timing;
#X obj 63 242 change;
#X msg 63 210 1;
#X msg 101 209 0;
#X obj 101 164 r \$0-freeze-it;
#X obj 101 187 sel 0;
#X obj 63 265 sel 1;
#X obj 63 294 float;
#X obj 245 318 spigot;
#X msg 256 294 1;
#X msg 287 293 0;
#X obj 245 364 s \$0-LocControl;
#X msg 245 341 set \$1;
#X obj 18 47 trigger float bang bang bang bang;
#X connect 0 0 32 0;
#X connect 1 0 3 0;
#X connect 2 0 8 0;
#X connect 5 0 7 0;
#X connect 6 0 26 1;
#X connect 6 0 27 0;
#X connect 7 0 17 0;
#X connect 9 0 14 0;
#X connect 10 0 11 0;
#X connect 11 0 16 0;
#X connect 12 0 13 0;
#X connect 13 0 18 0;
#X connect 14 0 10 0;
#X connect 14 0 12 0;
#X connect 15 0 14 1;
#X connect 17 0 9 0;
#X connect 17 0 5 1;
#X connect 19 0 9 1;
#X connect 19 0 12 1;
#X connect 20 0 25 0;
#X connect 21 0 20 0;
#X connect 22 0 20 0;
#X connect 22 0 28 0;
#X connect 23 0 24 0;
#X connect 24 0 22 0;
#X connect 25 0 26 0;
#X connect 26 0 5 1;
#X connect 27 0 31 0;
#X connect 28 0 27 1;
#X connect 29 0 27 1;
#X connect 31 0 30 0;
#X connect 32 0 5 0;
#X connect 32 1 21 0;
#X connect 32 2 2 0;
#X connect 32 3 29 0;
#X connect 32 4 1 0;
#X restore 188 318 pd knob-loc;
#X obj 319 22 bng 17 250 50 0 \$0-rev-bang \$0-vchbgblooo Bounce -14
-6 0 10 -4032 -1 -1;
#X obj 204 21 vradio 18 1 1 3 \$0-RadioValue \$0-AutoRadio Bounce 0
-8 0 10 -204800 -41667 -1 2;
#N canvas 79 555 515 209 V-Radio 0;
#X obj 86 37 inlet;
#X obj 208 39 inlet;
#N canvas 540 22 715 696 Off 0;
#X obj 343 127 inlet;
#X obj 440 126 inlet;
#X msg 249 414 1;
#X msg 285 414 0;
#X obj 194 232 >;
#X obj 194 256 sel 1;
#X obj 216 525 spigot;
#X obj 429 281 < 0;
#X obj 429 312 sel 1;
#X obj 262 352 r \$0-RadioValue;
#X obj 262 376 sel 0 1 2;
#X obj 326 577 s \$0-loop-Loc;
#X obj 216 553 trigger bang float;
#X obj 204 614 s \$0-set-freeze;
#X msg 211 589 1;
#X floatatom 510 200 5 0 0 0 - - -;
#X obj 440 152 moses 1e-05;
#X obj 502 177 moses;
#X obj 529 152 r \$0-time-lenght;
#X obj 149 365 f;
#X floatatom 151 417 5 0 0 0 - - -;
#X obj 151 443 * 1000;
#X obj 83 107 r \$0-freeze-it;
#X obj 194 33 r \$0-Rev-Status;
#X obj 82 205 f;
#X obj 82 229 sel -1;
#X floatatom 194 55 5 0 0 0 - - -;
#X msg 204 418 0;
#X obj 198 118 f;
#X floatatom 198 142 5 0 0 0 - - -;
#X obj 194 76 t f b;
#X msg 129 523 0;
#X obj 85 271 f;
#X obj 85 295 sel 0;
#X obj 123 278 + 1;
#X obj 83 132 sel 0 1;
#X obj 423 521 spigot;
#X obj 444 352 f;
#X floatatom 446 404 5 0 0 0 - - -;
#X obj 446 430 * 1000;
#X obj 542 588 s \$0-loop-Loc;
#X obj 432 564 trigger bang float;
#X obj 420 625 s \$0-set-freeze;
#X msg 427 600 1;
#X msg 352 519 0;
#X msg 363 391 10;
#X msg 398 425 200;
#X connect 0 0 4 0;
#X connect 0 0 7 0;
#X connect 1 0 4 1;
#X connect 1 0 16 0;
#X connect 2 0 6 1;
#X connect 2 0 36 1;
#X connect 3 0 6 1;
#X connect 3 0 36 1;
#X connect 4 0 5 0;
#X connect 5 0 27 0;
#X connect 6 0 12 0;
#X connect 7 0 8 0;
#X connect 8 0 37 0;
#X connect 8 0 46 0;
#X connect 9 0 10 0;
#X connect 10 0 2 0;
#X connect 10 1 3 0;
#X connect 10 2 3 0;
#X connect 12 0 14 0;
#X connect 12 0 31 0;
#X connect 12 1 11 0;
#X connect 14 0 13 0;
#X connect 15 0 19 1;
#X connect 15 0 37 1;
#X connect 16 1 17 0;
#X connect 17 0 15 0;
#X connect 18 0 17 1;
#X connect 19 0 20 0;
#X connect 20 0 21 0;
#X connect 21 0 6 0;
#X connect 22 0 35 0;
#X connect 23 0 26 0;
#X connect 24 0 25 0;
#X connect 25 0 32 0;
#X connect 26 0 30 0;
#X connect 27 0 6 0;
#X connect 28 0 29 0;
#X connect 29 0 24 1;
#X connect 30 0 28 1;
#X connect 30 1 28 0;
#X connect 31 0 32 1;
#X connect 32 0 33 0;
#X connect 32 0 34 0;
#X connect 33 0 19 0;
#X connect 34 0 32 1;
#X connect 35 0 24 0;
#X connect 36 0 41 0;
#X connect 37 0 38 0;
#X connect 38 0 39 0;
#X connect 41 0 43 0;
#X connect 41 0 44 0;
#X connect 41 1 40 0;
#X connect 43 0 42 0;
#X connect 44 0 32 1;
#X connect 45 0 36 0;
#X connect 46 0 36 0;
#X restore 232 117 pd Off;
#X obj 338 163 s \$0-AutoRadio;
#X msg 338 83 label Off;
#X obj 338 57 sel 0 1 2;
#X obj 338 33 r \$0-RadioValue;
#X msg 356 139 label Bounce;
#N canvas 61 94 530 608 Bounce 0;
#X obj 182 489 f;
#X obj 170 389 moses;
#X obj 101 406 moses 0;
#X obj 165 454 bng 15 250 50 0 empty empty empty 17 7 0 10 -262144
-1 -1;
#X obj 70 459 bng 15 250 50 0 empty empty empty 17 7 0 10 -262144 -1
-1;
#X obj 267 465 expr abs($f1) * -1;
#X obj 267 442 r \$0-speed;
#X obj 139 529 s \$0-speed;
#X obj 71 504 f;
#X obj 91 460 r \$0-speed;
#X obj 91 483 expr abs($f1);
#N canvas 108 65 450 300 time 0;
#X obj 195 29 r \$0-time-lenght;
#X floatatom 185 57 5 0 0 0 - - -;
#X obj 171 31 bng 15 250 50 0 empty empty empty 17 7 0 10 -262144 -1
-1;
#X obj 225 148 s \$0-rcv-ph-slider;
#X obj 231 128 s \$0-rcv-time-slider;
#X msg 225 108 range 0 \$1;
#X obj 91 166 outlet;
#X connect 0 0 1 0;
#X connect 1 0 5 0;
#X connect 1 0 6 0;
#X connect 2 0 1 0;
#X connect 5 0 3 0;
#X connect 5 0 4 0;
#X restore 389 304 pd time length;
#X obj 103 139 moses 0;
#X obj 104 111 r \$0-speed;
#X obj 142 161 bng 15 250 50 0 empty empty empty 17 7 0 10 -262144
-1 -1;
#X obj 103 161 bng 15 250 50 0 empty empty empty 17 7 0 10 -262144
-1 -1;
#X obj 95 251 sel -1 1;
#X obj 95 225 f;
#X msg 105 185 -1;
#X obj 52 77 r \$0-rev-bang;
#X obj 233 299 spigot;
#X obj 267 275 tgl 15 0 empty empty empty 17 7 0 10 -262144 -1 -1 1
1;
#X obj 296 313 spigot;
#X obj 330 289 tgl 15 0 empty empty empty 17 7 0 10 -262144 -1 -1 1
1;
#X obj 264 176 r \$0-RadioValue;
#X obj 264 200 sel 0 1 2;
#X msg 303 236 1;
#X msg 263 235 0;
#X obj 244 111 inlet;
#X obj 370 176 >;
#X obj 370 200 sel 1;
#X obj 388 82 inlet;
#X obj 42 184 bng 15 250 50 0 empty empty empty 17 7 0 10 -262144 -1
-1;
#X obj 128 224 s \$0-Rev-Status;
#X msg 140 188 1;
#X connect 0 0 7 0;
#X connect 1 1 3 0;
#X connect 2 0 4 0;
#X connect 3 0 0 0;
#X connect 4 0 8 0;
#X connect 5 0 0 1;
#X connect 6 0 5 0;
#X connect 8 0 7 0;
#X connect 9 0 10 0;
#X connect 10 0 8 1;
#X connect 11 0 1 1;
#X connect 12 0 15 0;
#X connect 12 1 14 0;
#X connect 13 0 12 0;
#X connect 14 0 34 0;
#X connect 15 0 18 0;
#X connect 16 0 4 0;
#X connect 16 1 3 0;
#X connect 17 0 16 0;
#X connect 18 0 17 1;
#X connect 18 0 33 0;
#X connect 19 0 32 0;
#X connect 20 0 2 0;
#X connect 20 0 1 0;
#X connect 21 0 20 1;
#X connect 22 0 3 0;
#X connect 23 0 22 1;
#X connect 24 0 25 0;
#X connect 25 0 27 0;
#X connect 25 1 27 0;
#X connect 25 2 26 0;
#X connect 26 0 21 0;
#X connect 26 0 23 0;
#X connect 27 0 21 0;
#X connect 27 0 23 0;
#X connect 28 0 20 0;
#X connect 28 0 29 0;
#X connect 29 0 30 0;
#X connect 30 0 22 0;
#X connect 31 0 29 1;
#X connect 32 0 17 0;
#X connect 34 0 17 1;
#X connect 34 0 33 0;
#X restore 27 114 pd Bounce;
#N canvas 986 389 331 428 On 0;
#X obj 52 29 inlet;
#X obj 124 26 inlet;
#X obj 140 197 r \$0-RadioValue;
#X obj 140 221 sel 0 1 2;
#X msg 179 257 1;
#X msg 139 256 0;
#X obj 106 101 >;
#X obj 106 125 sel 1;
#X msg 106 256 0;
#X obj 106 308 s \$0-loop-Loc;
#X obj 106 285 spigot;
#X obj 52 208 f;
#X obj 52 95 < 0;
#X obj 52 126 sel 1;
#X floatatom 186 105 5 0 0 0 - - -;
#X obj 124 57 moses 1e-05;
#X floatatom 52 233 5 0 0 0 - - -;
#X obj 52 256 * 1000;
#X obj 186 82 moses;
#X obj 213 57 r \$0-time-lenght;
#X obj 250 102 >;
#X obj 252 129 sel 1;
#X obj 220 128 f;
#X connect 0 0 6 0;
#X connect 0 0 12 0;
#X connect 1 0 15 0;
#X connect 1 0 20 0;
#X connect 2 0 3 0;
#X connect 3 0 5 0;
#X connect 3 1 4 0;
#X connect 3 2 5 0;
#X connect 4 0 10 1;
#X connect 5 0 10 1;
#X connect 6 0 7 0;
#X connect 7 0 8 0;
#X connect 8 0 10 0;
#X connect 10 0 9 0;
#X connect 11 0 16 0;
#X connect 12 0 13 0;
#X connect 13 0 11 0;
#X connect 14 0 11 1;
#X connect 14 0 6 1;
#X connect 15 1 18 0;
#X connect 16 0 17 0;
#X connect 17 0 10 0;
#X connect 18 0 14 0;
#X connect 19 0 18 1;
#X connect 19 0 20 1;
#X connect 19 0 22 1;
#X connect 20 0 21 0;
#X connect 21 0 22 0;
#X connect 22 0 14 0;
#X restore 138 110 pd On;
#X msg 345 114 label Loop;
#X connect 0 0 8 0;
#X connect 0 0 9 0;
#X connect 0 0 2 0;
#X connect 1 0 8 1;
#X connect 1 0 9 1;
#X connect 1 0 2 1;
#X connect 4 0 3 0;
#X connect 5 0 4 0;
#X connect 5 1 10 0;
#X connect 5 2 7 0;
#X connect 6 0 5 0;
#X connect 7 0 3 0;
#X connect 10 0 3 0;
#X restore 218 293 pd V-Radio;
#N canvas 60 73 590 404 gain 0;
#X obj 110 41 inlet~;
#X obj 224 289 outlet~;
#X obj 224 262 *~;
#X obj 251 213 r \$0-pvgain;
#X connect 0 0 2 0;
#X connect 2 0 1 0;
#X connect 3 0 2 1;
#X restore 63 299 pd gain;
#X obj 83 185 inlet~;
#X obj 63 361 outlet~;
#N canvas 131 526 120 177 (subpatch) 0;
#X obj 2 37 r \$0-VocTime;
#X msg 2 118 label \$1%;
#X obj 1 1 cnv 15 46 16 empty \$0-VocTime-CNV 0% 4 10 1 12 -99865 -262144
0;
#X obj 2 140 s \$0-VocTime-CNV;
#X obj 2 78 int;
#X obj 2 57 * 10;
#X obj 2 98 / 10;
#X connect 0 0 5 0;
#X connect 1 0 3 0;
#X connect 4 0 6 0;
#X connect 5 0 4 0;
#X connect 6 0 1 0;
#X coords 0 1 100 -1 48 18 1 0 0;
#X restore 138 24 graph;
#N canvas 206 22 804 579 Time/sliders 0;
#X msg 194 71 \$1 1000;
#X obj 270 135 line;
#X obj 270 198 moses;
#X obj 332 230 s \$0-stop-time;
#X obj 270 232 nbx 5 14 -1e+37 1e+37 0 0 empty empty empty 0 -8 0 10
-262144 -1 -1 0 256;
#X obj 283 321 f;
#X obj 283 343 s \$0-rec-point;
#X obj 297 178 r \$0-time-lenght;
#X obj 270 49 r \$0-rewind;
#X msg 270 74 0;
#X obj 290 156 r \$0-back-to-moses;
#X obj 302 73 r \$0-stoping-metro;
#X obj 283 299 r \$0-stoping-metro;
#X obj 251 30 r \$0-zeroline;
#N canvas 807 22 462 246 real-time 0;
#X obj 45 23 inlet;
#X obj 322 33 inlet;
#X obj 323 85 s \$0-rcv-time-slider;
#X obj 21 186 mod 60;
#X obj 109 189 div 60;
#X obj 21 209 s \$0-time-sec;
#X obj 109 209 s \$0-time-min;
#X msg 170 89 set \$1;
#X msg 121 153 60;
#X obj 200 23 r \$0-time-lenght;
#X obj 225 89 select;
#X obj 199 45 t f f;
#X obj 66 50 s \$0-rcv-time-slider;
#X connect 0 0 4 0;
#X connect 0 0 3 0;
#X connect 0 0 12 0;
#X connect 1 0 2 0;
#X connect 1 0 10 0;
#X connect 3 0 5 0;
#X connect 4 0 6 0;
#X connect 7 0 8 0;
#X connect 8 0 3 0;
#X connect 8 0 4 0;
#X connect 9 0 11 0;
#X connect 10 0 8 0;
#X connect 11 0 7 0;
#X connect 11 1 10 1;
#X restore 186 231 pd real-time;
#X obj 33 28 inlet;
#X obj 287 260 s \$0-moses-timing;
#X obj 34 328 nbx 6 14 -1e+37 1e+37 0 0 empty empty empty 0 -8 0 10
-262144 -1 -1 0 256;
#X obj 34 399 /;
#X obj -45 438 * 100;
#X obj 63 366 r \$0-time-lenght;
#X obj 302 102 float;
#X obj -45 460 s \$0-VocTime;
#N canvas 209 64 308 517 metro 0;
#X obj 9 427 outlet;
#X obj 9 353 metro 1000;
#X obj 9 280 tgl 15 0 empty empty empty 17 7 0 10 -262144 -1 -1 0 1
;
#X obj 91 377 + 1;
#X msg 9 258 0;
#X obj 17 230 r \$0-stop-time;
#X msg 91 350 0;
#X obj 9 376 float 1;
#X obj -96 49 r \$0-metro-on-off;
#X msg -69 184 0;
#X obj -96 158 t b b;
#X obj 9 207 r \$0-rewind;
#X obj 58 427 s \$0-metro-counter;
#X obj 58 408 nbx 5 14 -1e+37 1e+37 0 0 empty empty empty 0 -8 0 10
-262144 -1 -1 0 256;
#X obj -39 185 r \$0-bang-the-metro-back;
#N canvas 308 176 452 363 restart-metro 0;
#X obj 119 79 expr abs($f1 - $f2) * 1000;
#X obj 74 216 line;
#X obj 74 184 pack f f;
#X obj 74 251 ==;
#X obj 74 138 f;
#X obj 74 273 sel 1;
#X obj 272 32 r \$0-metro-counter;
#X obj 272 56 nbx 5 14 -1e+37 1e+37 0 0 empty empty empty 0 -8 0 10
-262144 -1 -1 0 256;
#X obj 89 115 r \$0-metro-counter;
#X obj 74 295 s \$0-bang-the-metro-back;
#X obj 74 160 trigger float float bang;
#X obj 119 55 r \$0-moses-timing;
#X obj 188 194 r \$0-moses-timing;
#X obj 141 196 float;
#X obj 30 320 s \$0-back-to-moses;
#X obj 74 33 inlet;
#X connect 0 0 2 1;
#X connect 1 0 3 0;
#X connect 1 0 14 0;
#X connect 2 0 1 0;
#X connect 3 0 5 0;
#X connect 4 0 10 0;
#X connect 5 0 9 0;
#X connect 6 0 7 0;
#X connect 7 0 0 1;
#X connect 8 0 4 1;
#X connect 10 0 2 0;
#X connect 10 1 3 1;
#X connect 10 2 13 0;
#X connect 11 0 0 0;
#X connect 12 0 13 1;
#X connect 13 0 1 0;
#X connect 15 0 4 0;
#X restore -42 157 pd restart-metro;
#X obj -96 134 select 0 1;
#X obj -94 467 s \$0-stoping-metro;
#X obj 124 350 s \$0-zeroline;
#X obj 9 322 trigger bang bang;
#X obj 9 299 select 1;
#X obj 74 256 r \$0-recbangpv;
#X msg 74 278 1;
#X obj -84 78 r \$0-snd-P-C;
#X obj -84 114 tgl 15 0 empty empty empty 17 7 0 10 -262144 -1 -1 1
1;
#X msg 13 79 set 1;
#X obj 31 54 r \$0-rewind;
#X obj 13 30 loadbang;
#X connect 1 0 7 0;
#X connect 2 0 20 0;
#X connect 3 0 7 1;
#X connect 4 0 2 0;
#X connect 5 0 4 0;
#X connect 6 0 3 0;
#X connect 7 0 3 0;
#X connect 7 0 13 0;
#X connect 7 0 0 0;
#X connect 8 0 16 0;
#X connect 9 0 1 0;
#X connect 10 0 17 0;
#X connect 10 1 9 0;
#X connect 11 0 4 0;
#X connect 13 0 12 0;
#X connect 14 0 1 0;
#X connect 16 0 10 0;
#X connect 16 1 15 0;
#X connect 19 0 1 0;
#X connect 19 1 6 0;
#X connect 19 1 18 0;
#X connect 20 0 19 0;
#X connect 20 1 1 0;
#X connect 21 0 22 0;
#X connect 22 0 2 0;
#X connect 23 0 24 0;
#X connect 24 0 16 0;
#X connect 25 0 24 0;
#X connect 26 0 25 0;
#X connect 27 0 25 0;
#X restore 194 30 pd metro;
#X obj 194 50 nbx 4 14 -1e+37 1e+37 0 0 empty empty empty 0 -8 0 10
-195568 -1 -1 0 256;
#X obj 34 524 outlet;
#N canvas 405 44 241 271 LocSlider 0;
#X obj 6 2 inlet;
#X obj -19 219 outlet;
#X obj 6 48 nbx 5 14 -1e+37 1e+37 0 0 empty empty empty 0 -8 0 10 -262144
-1 -1 0 256;
#X obj 6 27 / 1000;
#X obj 87 109 mod 60;
#X obj 6 181 s \$0-rcv-ph-slider;
#X obj 42 134 div 60;
#X obj 42 156 s \$0-pv-min;
#X obj 87 131 s \$0-pv-sec;
#X connect 0 0 3 0;
#X connect 2 0 4 0;
#X connect 2 0 5 0;
#X connect 2 0 6 0;
#X connect 2 0 1 0;
#X connect 3 0 2 0;
#X connect 4 0 8 0;
#X connect 6 0 7 0;
#X restore 34 304 pd LocSlider;
#X obj 107 524 outlet;
#X obj 270 505 outlet;
#X obj 526 60 r \$0-temp-nbx;
#X obj 584 105 + 0.4;
#X obj 526 102 int;
#X obj 584 129 int;
#X obj 526 125 ==;
#X obj 526 147 sel 0 1;
#X obj 545 170 f;
#X obj 520 170 f;
#X floatatom 534 194 5 0 0 0 - - -;
#X obj 526 80 t f f;
#X obj 534 279 -;
#X obj 561 258 int;
#X obj 534 320 +;
#X obj 574 299 * 60;
#X floatatom 534 340 5 0 0 0 - - -;
#X obj 534 299 * 100;
#X obj 534 236 t f f;
#X msg 395 442 resize \$1;
#X obj 395 418 * 44100;
#X obj 534 369 pack f 0;
#X obj 591 420 s \$0-hsl_rcv;
#X obj 584 443 s \$0-hsl2_rcv;
#X msg 474 401 \$1;
#X obj 474 424 s \$0-time-lenght;
#X msg 584 396 range \$2 \$1;
#X obj 395 465 s \$0-sample;
#X obj 466 259 s \$0-temp;
#X msg 592 232 set \$1;
#X obj 592 254 s \$0-min-nbx;
#X connect 0 0 1 0;
#X connect 1 0 2 0;
#X connect 1 0 21 1;
#X connect 2 0 4 0;
#X connect 2 0 14 0;
#X connect 2 1 3 0;
#X connect 2 1 4 0;
#X connect 2 1 14 1;
#X connect 4 0 5 1;
#X connect 4 0 16 0;
#X connect 4 0 28 0;
#X connect 5 0 6 0;
#X connect 7 0 2 1;
#X connect 8 0 9 0;
#X connect 9 0 1 0;
#X connect 10 0 2 0;
#X connect 11 0 21 0;
#X connect 12 0 5 0;
#X connect 13 0 9 0;
#X connect 15 0 26 0;
#X connect 17 0 18 0;
#X connect 17 0 27 0;
#X connect 18 0 19 0;
#X connect 18 0 25 0;
#X connect 19 0 22 0;
#X connect 20 0 18 1;
#X connect 21 0 1 0;
#X connect 23 0 24 0;
#X connect 24 0 0 0;
#X connect 26 0 17 0;
#X connect 29 0 38 0;
#X connect 30 0 32 0;
#X connect 30 0 36 1;
#X connect 31 0 33 0;
#X connect 32 0 33 1;
#X connect 33 0 34 0;
#X connect 34 0 36 0;
#X connect 34 1 35 0;
#X connect 35 0 37 0;
#X connect 36 0 37 0;
#X connect 37 0 45 0;
#X connect 37 0 56 0;
#X connect 37 0 55 0;
#X connect 38 0 31 0;
#X connect 38 1 30 0;
#X connect 38 1 35 1;
#X connect 39 0 44 0;
#X connect 40 0 39 1;
#X connect 40 0 42 0;
#X connect 41 0 43 0;
#X connect 42 0 41 1;
#X connect 43 0 48 0;
#X connect 43 0 47 0;
#X connect 44 0 41 0;
#X connect 45 0 39 0;
#X connect 45 1 40 0;
#X connect 46 0 54 0;
#X connect 47 0 46 0;
#X connect 48 0 53 0;
#X connect 48 0 51 0;
#X connect 51 0 52 0;
#X connect 53 0 49 0;
#X connect 53 0 50 0;
#X connect 56 0 57 0;
#X restore 188 268 pd Time/sliders;
#X connect 2 0 40 0;
#X connect 8 0 6 1;
#X connect 9 0 2 0;
#X connect 9 1 44 0;
#X connect 15 0 30 0;
#X connect 16 0 30 1;
#X connect 40 0 42 0;
#X connect 41 0 6 0;
#X connect 44 0 36 0;
#X connect 44 1 39 0;
#X connect 44 2 39 1;
#X coords 0 1 100 -1 389 156 1 0 0;
#X restore 100 114 graph;
#N canvas 736 91 558 124 (subpatch) 0;
#X obj 1 1 cnv 15 520 83 empty empty empty 20 12 0 14 -216373 -66577
0;
#X obj 7 9 hsl 445 33 0 60 0 0 \$0-snd-time-slider \$0-rcv-time-slider
empty -2 -8 0 10 -195581 -1 -1 0 1;
#X obj 7 46 hsl 445 33 0 60 0 0 \$0-snd-ph-slider \$0-rcv-ph-slider
empty -2 -8 0 10 -261234 -167937 -1 0 1;
#X text 469 0 Real;
#X text 470 37 PVoc;
#N canvas 1085 380 201 444 (subpatch) 0;
#X obj 1 1 cnv 15 60 20 empty \$0-RealCanvasTime 0:00 6 12 1 20 -191420
-1 0;
#X obj 30 217 pack float float;
#X obj 8 152 f;
#X obj 8 176 moses 10;
#X obj 45 296 pack symbol float;
#X obj 74 114 trigger b f;
#X obj 19 359 s \$0-RealCanvasTime;
#X msg 19 337 label \$2:\$1;
#X obj 8 247 makefilename 0%d;
#X obj 9 59 r \$0-time-sec;
#X obj 74 85 r \$0-time-min;
#X connect 1 0 7 0;
#X connect 2 0 3 0;
#X connect 3 0 8 0;
#X connect 3 1 1 0;
#X connect 4 0 7 0;
#X connect 5 0 2 0;
#X connect 5 1 1 1;
#X connect 5 1 4 1;
#X connect 7 0 6 0;
#X connect 8 0 4 0;
#X connect 9 0 2 0;
#X connect 10 0 5 0;
#X coords 0 1 100 -1 62 22 1 0 0;
#X restore 457 15 graph;
#N canvas 312 47 340 521 (subpatch) 0;
#X obj 1 1 cnv 15 60 20 empty \$0-PVCanvasTime 0:00 6 12 1 20 -261234
-1 0;
#X obj 8 210 pack float float;
#X obj -14 145 f;
#X obj -14 169 moses 10;
#X obj 23 289 pack symbol float;
#X obj 52 107 trigger b f;
#X msg -3 330 label \$2:\$1;
#X obj -14 240 makefilename 0%d;
#X obj -3 351 s \$0-PVCanvasTime;
#X obj -15 54 r \$0-pv-sec;
#X obj 52 78 r \$0-pv-min;
#X connect 1 0 6 0;
#X connect 2 0 3 0;
#X connect 3 0 7 0;
#X connect 3 1 1 0;
#X connect 4 0 6 0;
#X connect 5 0 2 0;
#X connect 5 1 1 1;
#X connect 5 1 4 1;
#X connect 6 0 8 0;
#X connect 7 0 4 0;
#X connect 9 0 2 0;
#X connect 10 0 5 0;
#X coords 0 1 62 -1 62 22 1 0 0;
#X restore 457 52 graph;
#X coords 0 1 100 -1 522 85 1 0 0;
#X restore 100 270 graph;
#N canvas 37 554 151 173 (subpatch) 0;
#X obj 1 1 cnv 15 129 154 empty \$0-Pre-Cnv 1-Normal 5 26 0 14 -228856
-66577 0;
#X obj 5 102 hradio 15 1 0 8 \$0-save-preset \$0-read-preset Salvar-Preset
0 -8 0 10 -260187 -1 -1 0;
#X obj 105 135 bng 17 250 50 0 \$0-save-preset-bang \$0-PorraNingumis
Save -4 -7 0 10 -231181 -1 -1;
#X obj 5 60 hradio 15 1 0 8 \$0-read-preset \$0-get-preset Ler-Preset
0 -8 0 10 -204786 -1 -1 0;
#X symbolatom 6 136 14 0 0 0 - #0-Preset-Name #0-pre-name;
#X text 6 3 #;
#X text 20 3 Nome:;
#X text 0 70 _____________________;
#X text 1 30 _____________________;
#X text 5 118 Nome:;
#X obj 70 1 cnv 15 60 16 empty empty presets 5 7 0 12 -58255 -262144
0;
#X coords 0 1 112 -1 131 156 1 0 0;
#X restore 491 114 graph;
#X text 123 354 === LIVE PHASE VOCODER ===;
#X obj 75 64 inlet~;
#X obj 71 385 outlet~;
#N canvas 227 78 370 672 English 0;
#X text -214 8 !==> Patch was designed in Pd-Extended \, but the only
external object is the GUI [knob] \, so it should work on Vanilla...
;
#X text -208 437 ** When V-Radio is Off \, it freezes automatically
when you start recording. Do this if you want to record stuff without
the phase vocoder working automatically when you start doing it. This
is the only Presetted way to do this \, but you could as well just
click on the freeze button before. Anyway \, you should wait a tiny
bit before sending an audio stream to it \, otherwise it'll make some
noise even if freezed right in the beggining.;
#X text -210 402 * If you want to change Window Size you have to save
the preset and restart the patch for it to take effect and work.;
#X text -215 104 !==> Based on I07.PhaseVocoder.pd by Miller. But Sample
Rate NEEDS to be 44.1KHz. - Set Time of Buffer in "Min". Number Box
in Minutes and decimal fractions are seconds. 1.3 is \, therefore \,
1 minute & 30 seconds. 2.13 is 2 min & 13 sec and so on. 2.7 becomes
3.1 automatically \; !==> You can load and save presets (which saves
the current control values) \; - Horizontal Sliders represent the time
lenght of the table/buffer. Real and phase vocoder time is displayed
in minutes and seconds. - Use rewind \, record & Pause/Continue to
record on table \; - Freeze Toggle freezes/unfreezes Phase Vocoder
\; - Location Knob freezes and sets position on the so far recorded
table manually \; - Lock Toggle does phase locking \; - Vol Slider
sets up gain \; - Motion sets time compress/strectch in percentage
\; - Bounce bang sets motion to the opposite direction \; - Transp
does pitch-shiffting in cents \; - Window Size is FFT's Window Size
\, numbers in h-radio is 2 to the power of "x"* \; - V-Radio sets automatic
Looping or bouncing**;
#X text -208 555 !--> The Patch deals with Mono Audio. If you want
to deal with stereo or more channels just open more abstractions. You
can control them idependently of course \, but you can also set the
controls globally via MIDI if they are all on the same MIDI channel.
You should open the MIDI subpatch to edit or create the MidiConfig
subpatch for your device. If your device is correctly plugged in and
configured \, you can see the type of midi message and number on the
canvas.;
#X text -215 58 !==> 1st Argument is preset number from 1 to 8 (default
is first preset if you don't set it). 2nd argument is MIDI Channel
Number (no argument is any channel \, or "OMNI") \;;
#X restore 247 420 pd English Manual;
#N canvas 384 163 1019 696 MidiConfig 0;
#N canvas 0 89 509 314 foot 0;
#X obj 29 113 pgmin 1;
#X obj 14 175 bng 15 250 50 0 \$0-resetpv empty empty 17 7 0 10 -262144
-1 -1;
#X obj 41 174 bng 15 250 50 0 \$0-recpv empty empty 17 7 0 10 -262144
-1 -1;
#X floatatom 324 219 5 0 0 0 - - -;
#X obj 324 194 expr ($f1 - 59) * 20;
#X obj 208 122 expr (($f1 - 63) * 2) + 7;
#X floatatom 249 170 5 0 0 0 - - -;
#X obj 208 193 s \$0-speed-preset;
#X obj 208 83 ctlin 27 \$2;
#X obj 323 156 ctlin 7 \$2;
#X obj 68 178 bng 15 250 50 0 \$0-set-freeze empty empty 17 7 0 10
-262144 -1 -1;
#X obj 27 140 sel 1 2 3;
#X obj 324 242 s \$0-transpo-set;
#X connect 0 0 11 0;
#X connect 3 0 12 0;
#X connect 4 0 3 0;
#X connect 5 0 7 0;
#X connect 6 0 7 0;
#X connect 8 0 5 0;
#X connect 9 0 4 0;
#X connect 11 0 1 0;
#X connect 11 1 2 0;
#X connect 11 2 10 0;
#X restore 816 192 pd foot pedal;
#X obj 581 279 expr ($f1 - 48) * 100;
#X obj 519 278 - 8192;
#X obj 520 361 +;
#X obj 520 340 f;
#X obj 75 329 / 127;
#X text 86 287 Vol;
#X text 530 229 Pitch;
#X obj 554 125 * 5;
#X text 474 81 Motion -;
#X text 558 82 Motion +;
#X obj 471 123 * -5;
#X obj 163 417 ctlin 74;
#X obj 449 281 * 2;
#X obj 449 302 - 127;
#X text 163 397 Rec;
#X obj 520 383 s \$0-transpo-set;
#X obj 163 440 s \$0-recpv;
#X obj 75 351 s \$0-pvol;
#X obj 71 437 s \$0-resetpv;
#X obj 471 101 ctlin 11 \$2;
#X obj 554 102 ctlin 12 \$2;
#X obj 71 413 ctlin 73 \$2;
#X obj 449 257 ctlin 1 \$2;
#X obj 519 255 bendin \$2;
#X obj 581 256 notein \$2;
#X text 212 81 Location Knob;
#X obj 216 123 expr ($f1 / 127);
#X obj 216 147 s \$0-LocControl;
#X obj 507 153 s \$0-speed-preset;
#N canvas 71 82 514 280 (subpatch) 0;
#N canvas 0 22 450 300 MIDI 0;
#N canvas 0 22 817 434 route 0;
#X obj 22 318 s \$0-speed-preset;
#X obj 23 58 route 1 2 3 4 5 6 7;
#X obj 23 31 inlet;
#X connect 1 0 0 0;
#X connect 2 0 1 0;
#X restore 64 163 pd route;
#N canvas 65 111 296 347 Motion 0;
#N canvas 663 304 450 300 sel 0;
#X obj 132 174 sel;
#X obj 132 151 unpack;
#X obj 132 198 float;
#X obj 132 223 outlet;
#X obj 242 122 inlet;
#X obj 132 124 inlet;
#X msg 242 156 set \$1;
#X obj 242 199 t b a;
#X obj 235 91 loadbang;
#X floatatom 300 121 5 0 0 0 - - -;
#X msg 235 235 -1;
#X connect 0 0 2 0;
#X connect 1 0 0 0;
#X connect 1 1 2 1;
#X connect 2 0 3 0;
#X connect 4 0 6 0;
#X connect 5 0 1 0;
#X connect 6 0 7 0;
#X connect 7 0 10 0;
#X connect 7 1 10 0;
#X connect 8 0 10 0;
#X connect 9 0 6 0;
#X connect 10 0 0 1;
#X restore 57 211 pd sel;
#X msg 57 234 1 \$1;
#X obj 90 186 spigot;
#X obj 57 260 outlet;
#X msg 123 160 1;
#X obj 123 134 r \$0-to-speed;
#X obj 90 71 r \$0-CTL-number;
#X obj 56 25 r \$0-MIDI-msg;
#X connect 0 0 1 0;
#X connect 1 0 3 0;
#X connect 2 0 0 1;
#X connect 4 0 2 1;
#X connect 5 0 4 0;
#X connect 6 0 2 0;
#X connect 7 0 0 0;
#X restore 64 54 pd Motion;
#N canvas 0 22 943 224 midi-msg 0;
#N canvas 0 22 972 226 1-10 0;
#X obj 483 141 outlet;
#X obj 23 33 ctlin 1 \$2;
#X obj 108 32 ctlin 2 \$2;
#X msg 23 53 1 \$1;
#X msg 108 54 2 \$1;
#X obj 217 35 ctlin 3 \$2;
#X obj 302 34 ctlin 4 \$2;
#X obj 390 33 ctlin 5 \$2;
#X obj 476 32 ctlin 6 \$2;
#X msg 217 55 3 \$1;
#X msg 302 56 4 \$1;
#X msg 390 53 5 \$1;
#X msg 476 53 6 \$1;
#X obj 557 31 ctlin 7 \$2;
#X obj 643 30 ctlin 8 \$2;
#X obj 730 31 ctlin 9 \$2;
#X obj 816 30 ctlin 10 \$2;
#X msg 557 52 7 \$1;
#X msg 643 51 8 \$1;
#X msg 730 51 9 \$1;
#X msg 816 50 10 \$1;
#X connect 1 0 3 0;
#X connect 2 0 4 0;
#X connect 3 0 0 0;
#X connect 4 0 0 0;
#X connect 5 0 9 0;
#X connect 6 0 10 0;
#X connect 7 0 11 0;
#X connect 8 0 12 0;
#X connect 9 0 0 0;
#X connect 10 0 0 0;
#X connect 11 0 0 0;
#X connect 12 0 0 0;
#X connect 13 0 17 0;
#X connect 14 0 18 0;
#X connect 15 0 19 0;
#X connect 16 0 20 0;
#X connect 17 0 0 0;
#X connect 18 0 0 0;
#X connect 19 0 0 0;
#X connect 20 0 0 0;
#X restore 212 71 pd 1-10;
#X obj 212 103 s \$0-MIDI-msg;
#X connect 0 0 1 0;
#X restore 56 25 pd midi-msg;
#X connect 1 0 0 0;
#X restore 615 194 pd MIDI LEARN;
#X obj 663 126 cnv 15 75 56 empty empty empty 20 12 0 14 -135224 -66577
0;
#X obj 1 1 cnv 15 75 15 empty \$0-MIDI-Learn-CNV none 4 7 0 10 -261682
-66577 0;
#X obj 709 158 bng 15 250 50 0 empty empty Learn -36 8 0 10 -262130
-1 -228856;
#X obj 663 134 cnv 15 75 15 empty \$0-MIDI-Learn-Control-CNV Motion
4 7 0 10 -240878 -66577 0;
#N canvas 128 69 1012 589 Midi 0;
#X obj 692 267 s pd-LPVoc.pd;
#X msg 512 143 connect 10 0 624 0;
#X obj 361 206 s \$0-CTL-number;
#X obj 361 134 ctlin;
#X obj 832 147 makefilename $%d;
#X msg 832 122 2;
#X obj 832 98 loadbang;
#X floatatom 787 146 5 0 0 0 - - -;
#X msg 747 210 obj 300 10 \$1 \$2 \$3;
#X obj 747 173 pack s f s;
#X msg 741 144 ctlin;
#X obj 750 75 ctlin;
#X obj 763 113 t b f;
#X obj 676 73 pgmin;
#X obj 676 98 t b f;
#X msg 676 128 pgmin;
#X obj 372 392 s \$0-MIDI-Learn-Control-CNV;
#X msg 377 360 label Motion;
#X connect 1 0 0 0;
#X connect 3 1 2 0;
#X connect 4 0 9 2;
#X connect 5 0 4 0;
#X connect 6 0 5 0;
#X connect 7 0 9 1;
#X connect 8 0 0 0;
#X connect 9 0 8 0;
#X connect 10 0 9 0;
#X connect 11 1 12 0;
#X connect 12 0 10 0;
#X connect 12 1 7 0;
#X connect 13 0 14 0;
#X connect 14 0 15 0;
#X connect 14 1 7 0;
#X connect 15 0 9 0;
#X connect 17 0 16 0;
#X restore 702 194 pd Midi Learn 2;
#X text 571 72 I am considering programing some sort of MIDI Learn
;
#X obj 27 54 ctlin;
#X obj 17 191 s \$0-MIDI-Learn-CNV;
#X msg 30 150 label Control:\$1;
#X obj 120 47 pgmin;
#X msg 81 94 label Program:\$1;
#X msg 213 152 label none;
#X obj 213 128 loadbang;
#X obj 271 42 notein;
#X msg 227 80 label Note:\$1;
#X obj 376 70 bendin;
#X msg 359 96 label Bend-Wheel;
#X text 571 34 Estou considerando programar um tipo de MIDI Learn;
#X connect 7 1 9 0;
#X connect 9 0 8 0;
#X connect 10 0 11 0;
#X connect 11 0 8 0;
#X connect 12 0 8 0;
#X connect 13 0 12 0;
#X connect 14 0 15 0;
#X connect 15 0 8 0;
#X connect 16 0 17 0;
#X connect 17 0 8 0;
#X coords 0 1 70 -1 77 17 1 0 0;
#X restore 105 139 graph;
#X text 120 119 Midi In:;
#X obj 216 101 ctlin 10 \$2;
#X text 71 395 Rewind;
#X obj 259 444 s \$0-rcv-P-C;
#X text 254 391 Pause/Continue;
#X obj 260 413 ctlin;
#X obj 94 525 s \$0-set-lock;
#X text 111 480 Lock;
#X obj 108 500 ctlin;
#X obj 191 525 s \$0-set-freeze;
#X obj 217 499 ctlin;
#X text 216 480 Freeze;
#X obj 324 529 s \$0-set-freeze;
#X obj 350 503 ctlin;
#X text 348 484 Bounce;
#X obj 581 299 t b f;
#X obj 75 306 ctlin 87 \$2;
#X obj 233 328 s \$0-AutoRadio;
#X msg 231 297 0;
#X msg 263 296 1;
#X msg 301 296 2;
#X obj 208 269 ctlin;
#X obj 250 268 ctlin;
#X obj 297 267 ctlin;
#X msg 489 491 0;
#X msg 536 489 1;
#X msg 581 489 2;
#X obj 487 462 ctlin;
#X obj 529 461 ctlin;
#X obj 576 460 ctlin;
#X text 630 431 Presets;
#X obj 665 570 s \$0-get-preset;
#X msg 622 488 3;
#X msg 667 486 4;
#X msg 712 484 5;
#X msg 756 484 6;
#X msg 800 486 7;
#X obj 618 457 ctlin;
#X obj 660 456 ctlin;
#X obj 707 455 ctlin;
#X obj 750 454 ctlin;
#X obj 797 453 ctlin;
#X text 220 245 V-radio(loop/bounce);
#X connect 1 0 46 0;
#X connect 2 0 4 0;
#X connect 3 0 16 0;
#X connect 4 0 3 0;
#X connect 5 0 18 0;
#X connect 8 0 29 0;
#X connect 11 0 29 0;
#X connect 12 0 17 0;
#X connect 13 0 14 0;
#X connect 14 0 4 0;
#X connect 20 0 11 0;
#X connect 21 0 8 0;
#X connect 22 0 19 0;
#X connect 23 0 13 0;
#X connect 24 0 2 0;
#X connect 25 0 1 0;
#X connect 27 0 28 0;
#X connect 32 0 27 0;
#X connect 46 0 4 0;
#X connect 46 1 3 1;
#X connect 47 0 5 0;
#X connect 49 0 48 0;
#X connect 50 0 48 0;
#X connect 51 0 48 0;
#X connect 55 0 62 0;
#X connect 56 0 62 0;
#X connect 57 0 62 0;
#X connect 63 0 62 0;
#X connect 64 0 62 0;
#X connect 65 0 62 0;
#X connect 66 0 62 0;
#X connect 67 0 62 0;
#X coords 0 -1 1 1 85 60 1 100 100;
#X restore 367 386 pd MidiConfig;
#N canvas 407 27 394 715 Manual 0;
#X text -214 8 !==> O Patch foi feito no Pd-Extended \, mas o único
objeto externo usado foi o GUI "knob".;
#X text -213 79 !==> Baseado no I07.PhaseVocoder.pd do Miller. Mas
a Taxa de Amostragem precisa estar em 44.1KHz. Ajuste o tempo do áudio
a ser gravado na caixa de números "Min" \, em minutos e segundos nos
pontos decimais. 1.3 é \, assim \, 1 minuto & 30 segundos. 2.13 é 2
min & 13 seg e assim por diante. 2.7 vira 3.1 automaticamente \; !==>
Você pode carregar e salvar presets (que salvam os valores de controles
atuais). Você pode salvar um preset em outro número porque os H-radio
dos presets são independentes \; - Horizontal Sliders representam o
tempo da Tabela/Áudio. O tempo Real e do Phase Vocoder é mostrado em
minutos e segundos. \; - Use rewind \, record & Pause/Continue pra
gravar na tabela \; - Freeze Toggle congela e descongela o Phase Vocoder
\; - Location Knob congela e seta a posição na até então gravada tabela
manualmente \; - Lock Toggle faz o phase locking \; - Vol Slider ajusta
o volume \; - Motion seta o time compress/strectch em percentagem do
normal \; - Bounce bang muda a direção do Phase Vocoder \; - Transp
transpõe para agudo ou grave em cents \; - Window Size é o tamanho
da janela de FFT's Window Size \, números no h-radio é 2 elevado à
"x"* \; - V-Radio seta Loop or bounce automático**;
#X text -210 427 * Se quiser mudar o tamanho da janela \, salve o preset
e reinicie o patch para que a mudança tenha efeito.;
#X text -210 471 ** Quando o V-Radio está desligado (Off) \, dá um
freeze automático quando você começa a gravar. Faça isso se você quiser
gravar algo sem que o Phase Vocoder funcione automaticamente. É a única
forma de presetar isso \, mas você bem poderia apenas clicar no freeze
antes. Enfim \, você deve esperar um pouquinho antes de começar a gravar
senão o Phase Vocoder vai fazer barulho mesmo se congelado logo no
começo da tabela.;
#X text -208 582 !--> O Patch lida apenas com entrada de Áudio Mono.
Crie mais abstrações se você quiser manipular um sinal estéreo ou com
mais canais. Você pode controla-los independentemente \, claro \, mas
também pode controla-los de maneira global via MIDI se todos estiverem
no mesmo canal MIDI. Você deve abrir o suppatch MidiConfig e editar
ou criar controles MIDI para seu próprio dispositivo. se seu dispositivo
estiver ligado e você mexer em alguma coisa \, veja que o número e
tipo de controle aparece na canvas.;
#X text -214 37 !==> 1o Argumento é número do preset de 1 a 8 (default
é preset 1). 2o argumento é o canal MIDI (na falta de argumento seria
qualquer canal \, ou "OMNI") \;;
#X restore 239 398 pd Manual Português;
#X text 317 354 --- Alexandre Torres Porres - January 2010 ---;
#X text 72 42 Audio IN;
#X text 66 409 Audio Out;
#X connect 0 0 5 0;
#X connect 4 0 0 0;
#X coords 0 -1 1 1 522 270 1 100 100;
