#N canvas 142 24 534 688 10;
#X msg 102 342 0 \$1;
#X obj 284 101 tgl 15 1 empty empty empty 0 -6 0 8 -225271 -1 -1 1
1;
#X floatatom 137 207 5 0 0 3 a0 - -;
#X floatatom 183 207 5 0 0 3 a1 - -;
#X floatatom 229 207 5 0 0 3 a2 - -;
#X floatatom 275 207 5 0 0 3 a3 - -;
#X floatatom 321 207 5 0 0 3 a4 - -;
#X floatatom 367 207 5 0 0 3 a5 - -;
#X obj 237 101 spigot;
#X floatatom 413 207 5 0 0 3 a6 - -;
#X floatatom 459 207 5 0 0 3 a7 - -;
#X obj 237 123 route analog;
#X obj 236 150 route 0 1 2 3 4 5 6 7;
#N canvas 978 22 499 396 display 0;
#X obj 6 7 inlet;
#X obj 6 28 mapping/resample 100;
#X obj 6 50 outlet;
#X obj 54 50 inlet;
#X obj 54 71 mapping/resample 100;
#X obj 54 93 outlet;
#X obj 103 93 inlet;
#X obj 103 114 mapping/resample 100;
#X obj 103 136 outlet;
#X obj 151 136 inlet;
#X obj 151 157 mapping/resample 100;
#X obj 151 179 outlet;
#X obj 200 179 inlet;
#X obj 200 200 mapping/resample 100;
#X obj 200 222 outlet;
#X obj 247 222 inlet;
#X obj 247 243 mapping/resample 100;
#X obj 247 265 outlet;
#X obj 295 265 inlet;
#X obj 295 286 mapping/resample 100;
#X obj 295 308 outlet;
#X obj 345 308 inlet;
#X obj 345 329 mapping/resample 100;
#X obj 345 351 outlet;
#X obj 60 290 receive ARDUINO_TEST_RESET;
#X connect 0 0 1 0;
#X connect 1 0 2 0;
#X connect 3 0 4 0;
#X connect 4 0 5 0;
#X connect 6 0 7 0;
#X connect 7 0 8 0;
#X connect 9 0 10 0;
#X connect 10 0 11 0;
#X connect 12 0 13 0;
#X connect 13 0 14 0;
#X connect 15 0 16 0;
#X connect 16 0 17 0;
#X connect 18 0 19 0;
#X connect 19 0 20 0;
#X connect 21 0 22 0;
#X connect 22 0 23 0;
#X connect 24 0 22 0;
#X connect 24 0 19 0;
#X connect 24 0 16 0;
#X connect 24 0 13 0;
#X connect 24 0 10 0;
#X connect 24 0 7 0;
#X connect 24 0 4 0;
#X connect 24 0 1 0;
#X restore 160 181 pd display values without pegging the CPU;
#X obj 237 71 arduino 4;
#X msg 335 30 analogIns 0 0;
#N canvas 162 133 610 460 serin 0;
#X obj 59 337 outlet;
#X obj 59 266 trigger bang anything;
#X obj 201 286 list;
#X obj 60 61 tgl 15 0 junk_to_hide_inlet ARDUINO_TEST_RESET 0 5 9 1
12 -262130 -1 -1 0 1;
#X obj 75 61 tgl 15 0 junk_to_hide_inlet ARDUINO_TEST_RESET 1 5 9 1
12 -262130 -1 -1 0 1;
#X obj 90 61 tgl 15 0 junk_to_hide_inlet ARDUINO_TEST_RESET 2 5 9 1
12 -262130 -1 -1 0 1;
#X obj 105 61 tgl 15 0 junk_to_hide_inlet ARDUINO_TEST_RESET 3 5 9
1 12 -262130 -1 -1 0 1;
#X obj 120 61 tgl 15 0 junk_to_hide_inlet ARDUINO_TEST_RESET 4 5 9
1 12 -262130 -1 -1 0 1;
#X obj 135 61 tgl 15 0 junk_to_hide_inlet ARDUINO_TEST_RESET 5 5 9
1 12 -262130 -1 -1 0 1;
#X obj 150 61 tgl 15 0 junk_to_hide_inlet ARDUINO_TEST_RESET 6 5 9
1 12 -262130 -1 -1 0 1;
#X obj 165 61 tgl 15 0 junk_to_hide_inlet ARDUINO_TEST_RESET 7 5 9
1 12 -262130 -1 -1 0 1;
#X msg 59 210 analogIns \$1 \$2;
#X msg 35 106 0 \$1;
#X msg 70 106 1 \$1;
#X msg 105 106 2 \$1;
#X msg 140 106 3 \$1;
#X msg 175 106 4 \$1;
#X msg 210 106 5 \$1;
#X msg 245 106 6 \$1;
#X msg 280 106 7 \$1;
#X msg 202 307 set \$1 \$2 \$3;
#X connect 1 0 0 0;
#X connect 1 1 2 0;
#X connect 2 0 20 0;
#X connect 3 0 12 0;
#X connect 4 0 13 0;
#X connect 5 0 14 0;
#X connect 6 0 15 0;
#X connect 7 0 16 0;
#X connect 8 0 17 0;
#X connect 9 0 18 0;
#X connect 10 0 19 0;
#X connect 11 0 1 0;
#X connect 12 0 11 0;
#X connect 13 0 11 0;
#X connect 14 0 11 0;
#X connect 15 0 11 0;
#X connect 16 0 11 0;
#X connect 17 0 11 0;
#X connect 18 0 11 0;
#X connect 19 0 11 0;
#X connect 20 0 0 0;
#X coords 0 -1 1 1 120 16 1 60 60;
#X restore 335 10 pd serin;
#X floatatom 137 293 5 0 0 0 - - -;
#X msg 230 343 2 \$1;
#X msg 291 342 3 \$1;
#X obj 137 260 * 25;
#X text 307 70 comment;
#X text 129 240 comment;
#X floatatom 181 293 5 0 0 0 - - -;
#X obj 181 260 * 25;
#X floatatom 226 292 5 0 0 0 - - -;
#X obj 226 259 * 25;
#X floatatom 274 291 5 0 0 0 - - -;
#X obj 274 258 * 25;
#X floatatom 321 292 5 0 0 0 - - -;
#X obj 321 259 * 25;
#X msg 170 341 1 \$1;
#X msg 345 343 7 \$1;
#X obj 191 446 syn-cz10;
#X obj 280 586 eee-adsr~;
#X obj 188 659 dac~;
#X obj 193 605 *~;
#X msg 7 527 1;
#X msg 38 526 0;
#X obj 37 505 delay 200;
#X obj 8 478 t b b;
#X obj 5 454 metro 400;
#X obj 5 433 tgl 15 0 empty empty empty 17 7 0 10 -262144 -1 -1 0 1
;
#X obj 6 561 s \$0-note-on-off;
#X obj 284 562 r \$0-note-on-off;
#X obj 191 571 *~ 0.4;
#X connect 0 0 33 1;
#X connect 1 0 8 1;
#X connect 2 0 20 0;
#X connect 3 0 24 0;
#X connect 4 0 26 0;
#X connect 5 0 28 0;
#X connect 6 0 30 0;
#X connect 8 0 11 0;
#X connect 11 0 12 0;
#X connect 12 0 13 0;
#X connect 12 1 13 1;
#X connect 12 2 13 2;
#X connect 12 3 13 3;
#X connect 12 4 13 4;
#X connect 12 5 13 5;
#X connect 12 6 13 6;
#X connect 12 7 13 7;
#X connect 13 0 2 0;
#X connect 13 1 3 0;
#X connect 13 2 4 0;
#X connect 13 3 5 0;
#X connect 13 4 6 0;
#X connect 13 5 7 0;
#X connect 13 6 9 0;
#X connect 13 7 10 0;
#X connect 14 0 8 0;
#X connect 15 0 14 0;
#X connect 16 0 15 0;
#X connect 17 0 0 0;
#X connect 18 0 33 1;
#X connect 19 0 33 1;
#X connect 20 0 17 0;
#X connect 23 0 31 0;
#X connect 24 0 23 0;
#X connect 25 0 18 0;
#X connect 26 0 25 0;
#X connect 27 0 19 0;
#X connect 28 0 27 0;
#X connect 29 0 32 0;
#X connect 30 0 29 0;
#X connect 31 0 33 1;
#X connect 32 0 33 1;
#X connect 33 0 45 0;
#X connect 34 0 36 1;
#X connect 36 0 35 0;
#X connect 36 0 35 1;
#X connect 37 0 43 0;
#X connect 38 0 43 0;
#X connect 39 0 38 0;
#X connect 40 0 37 0;
#X connect 40 1 39 0;
#X connect 41 0 40 0;
#X connect 42 0 41 0;
#X connect 44 0 34 0;
#X connect 45 0 36 0;
