#N canvas 0 50 1274 659 10;
#X msg 18 14 devices;
#X msg 42 39 open 4;
#X msg 64 62 close;
#X obj 18 120 zl group 5;
#X obj 18 149 unpack f f f f f;
#X floatatom 18 174 5 0 0 0 - - -;
#X floatatom 41 195 5 0 0 0 - - -;
#X floatatom 64 216 5 0 0 0 - - -;
#X floatatom 87 237 5 0 0 0 - - -;
#X floatatom 110 258 5 0 0 0 - - -;
#X obj 18 355 spigot;
#X obj 51 330 > 100;
#X obj 18 305 t f f;
#X obj 18 494 outlet;
#X obj 104 355 spigot;
#X obj 137 330 > 100;
#X obj 104 305 t f f;
#X obj 187 502 outlet;
#X obj 185 351 spigot;
#X obj 218 326 > 100;
#X obj 185 301 t f f;
#X obj 185 405 outlet;
#X obj 269 352 spigot;
#X obj 302 327 > 100;
#X obj 269 302 t f f;
#X obj 351 351 spigot;
#X obj 384 326 > 100;
#X obj 351 301 t f f;
#X obj 351 405 outlet;
#X obj 288 19 inlet;
#X obj 18 89 comport 4 9600;
#X obj 751 425 output~;
#X obj 141 511 mtof;
#X obj 18 465 autoscale 0 40;
#X obj 513 50 seqmk;
#X obj 312 512 outlet;
#X msg 489 434 0 \$1;
#X msg 544 444 1 \$1;
#X obj 312 483 autoscale;
#X obj 187 473 autoscale 40 80;
#X obj 351 376 autoscale 0 50;
#X obj 185 376 autoscale;
#X obj 405 493 autoscale;
#X msg 436 538 2 \$1;
#X obj 907 257 syn-classicsynth;
#X obj 958 166 key;
#X obj 912 450 *~;
#X obj 951 410 vline~;
#X msg 961 379 1 \, 0 2000;
#X connect 0 0 30 0;
#X connect 1 0 30 0;
#X connect 2 0 30 0;
#X connect 3 0 4 0;
#X connect 4 0 5 0;
#X connect 4 1 6 0;
#X connect 4 2 7 0;
#X connect 4 3 8 0;
#X connect 4 4 9 0;
#X connect 5 0 12 0;
#X connect 6 0 16 0;
#X connect 7 0 20 0;
#X connect 8 0 24 0;
#X connect 9 0 27 0;
#X connect 10 0 33 0;
#X connect 11 0 10 1;
#X connect 12 0 10 0;
#X connect 12 1 11 0;
#X connect 14 0 39 0;
#X connect 15 0 14 1;
#X connect 16 0 14 0;
#X connect 16 1 15 0;
#X connect 18 0 41 0;
#X connect 19 0 18 1;
#X connect 20 0 18 0;
#X connect 20 1 19 0;
#X connect 22 0 38 0;
#X connect 23 0 22 1;
#X connect 24 0 22 0;
#X connect 24 1 23 0;
#X connect 25 0 40 0;
#X connect 25 0 42 0;
#X connect 26 0 25 1;
#X connect 27 0 25 0;
#X connect 27 1 26 0;
#X connect 29 0 11 1;
#X connect 29 0 15 1;
#X connect 29 0 19 1;
#X connect 29 0 23 1;
#X connect 29 0 26 1;
#X connect 30 0 3 0;
#X connect 33 0 13 0;
#X connect 33 0 32 0;
#X connect 33 0 34 0;
#X connect 36 0 44 1;
#X connect 37 0 44 1;
#X connect 38 0 35 0;
#X connect 38 0 37 0;
#X connect 39 0 17 0;
#X connect 39 0 34 1;
#X connect 40 0 28 0;
#X connect 40 0 34 3;
#X connect 41 0 21 0;
#X connect 41 0 36 0;
#X connect 41 0 34 2;
#X connect 42 0 43 0;
#X connect 44 0 46 0;
#X connect 45 0 48 0;
#X connect 45 0 44 0;
#X connect 46 0 31 1;
#X connect 46 0 31 0;
#X connect 47 0 46 1;
#X connect 48 0 47 0;
