#N canvas 377 37 858 639 10;
#X obj 61 91 comport 9600;
#X msg 35 45 devices;
#X msg 91 47 open 4;
#X obj 61 145 zl group 5;
#X obj 61 180 unpack f f f f f;
#X floatatom 31 222 5 0 0 0 - - -;
#X floatatom 68 221 5 0 0 0 - - -;
#X floatatom 106 221 5 0 0 0 - - -;
#X floatatom 145 224 5 0 0 0 - - -;
#X floatatom 183 224 5 0 0 0 - - -;
#X obj 236 17 control-gemwin;
#X obj 387 14 gemhead;
#X floatatom 409 302 5 0 0 0 - - -;
#X floatatom 432 325 5 0 0 0 - - -;
#X obj 387 273 rotateXYZ;
#X floatatom 407 198 5 0 0 0 - - -;
#X floatatom 419 221 5 0 0 0 - - -;
#X floatatom 429 243 5 0 0 0 - - -;
#X obj 387 167 translateXYZ;
#X floatatom 415 89 5 0 0 0 - - -;
#X floatatom 427 112 5 0 0 0 - - -;
#X floatatom 437 134 5 0 0 0 - - -;
#X obj 387 68 color;
#X msg 414 37 0.5 0 0;
#X obj 387 352 rectangle;
#X obj 477 17 gemhead;
#X floatatom 499 305 5 0 0 0 - - -;
#X floatatom 522 328 5 0 0 0 - - -;
#X obj 477 276 rotateXYZ;
#X floatatom 497 201 5 0 0 0 - - -;
#X floatatom 509 224 5 0 0 0 - - -;
#X floatatom 519 246 5 0 0 0 - - -;
#X obj 477 170 translateXYZ;
#X floatatom 505 92 5 0 0 0 - - -;
#X floatatom 517 115 5 0 0 0 - - -;
#X floatatom 527 137 5 0 0 0 - - -;
#X obj 477 71 color;
#X obj 477 355 rectangle;
#X msg 504 40 0 0.5 0;
#X obj 560 16 gemhead;
#X floatatom 582 304 5 0 0 0 - - -;
#X floatatom 605 327 5 0 0 0 - - -;
#X obj 560 275 rotateXYZ;
#X floatatom 580 200 5 0 0 0 - - -;
#X floatatom 592 223 5 0 0 0 - - -;
#X floatatom 602 245 5 0 0 0 - - -;
#X obj 560 169 translateXYZ;
#X floatatom 588 91 5 0 0 0 - - -;
#X floatatom 600 114 5 0 0 0 - - -;
#X floatatom 610 136 5 0 0 0 - - -;
#X obj 560 70 color;
#X obj 560 354 rectangle;
#X obj 643 15 gemhead;
#X floatatom 665 303 5 0 0 0 - - -;
#X floatatom 688 326 5 0 0 0 - - -;
#X obj 643 274 rotateXYZ;
#X floatatom 663 199 5 0 0 0 - - -;
#X floatatom 675 222 5 0 0 0 - - -;
#X floatatom 685 244 5 0 0 0 - - -;
#X obj 643 168 translateXYZ;
#X floatatom 671 90 5 0 0 0 - - -;
#X floatatom 683 113 5 0 0 0 - - -;
#X floatatom 693 135 5 0 0 0 - - -;
#X obj 643 69 color;
#X obj 643 353 rectangle;
#X obj 727 16 gemhead;
#X floatatom 749 304 5 0 0 0 - - -;
#X floatatom 772 327 5 0 0 0 - - -;
#X obj 727 275 rotateXYZ;
#X floatatom 747 200 5 0 0 0 - - -;
#X floatatom 759 223 5 0 0 0 - - -;
#X floatatom 769 245 5 0 0 0 - - -;
#X obj 727 169 translateXYZ;
#X floatatom 755 91 5 0 0 0 - - -;
#X floatatom 767 114 5 0 0 0 - - -;
#X floatatom 777 136 5 0 0 0 - - -;
#X obj 727 70 color;
#X obj 727 354 rectangle;
#X msg 587 39 0 0 0.5;
#X msg 670 38 0.8 0.5 0.5;
#X msg 754 39 0.5 0.8 0.5;
#X obj 35 388 autoscale 90 180;
#X obj 63 360 autoscale 90 180;
#X obj 88 334 autoscale 90 180;
#X obj 116 306 autoscale 90 180;
#X obj 142 278 autoscale 90 180;
#X obj 194 378 t f f;
#X floatatom 225 406 5 0 0 0 - - -;
#X obj 191 434 > 155;
#X obj 181 469 bng 15 250 50 0 empty empty empty 17 7 0 10 -262144
-1 -1;
#X connect 0 0 3 0;
#X connect 1 0 0 0;
#X connect 2 0 0 0;
#X connect 3 0 4 0;
#X connect 4 0 5 0;
#X connect 4 1 6 0;
#X connect 4 2 7 0;
#X connect 4 3 8 0;
#X connect 4 4 9 0;
#X connect 5 0 81 0;
#X connect 5 0 86 0;
#X connect 6 0 82 0;
#X connect 7 0 83 0;
#X connect 8 0 84 0;
#X connect 9 0 85 0;
#X connect 11 0 22 0;
#X connect 12 0 24 1;
#X connect 12 0 37 1;
#X connect 12 0 51 1;
#X connect 12 0 64 1;
#X connect 12 0 77 1;
#X connect 13 0 24 2;
#X connect 13 0 37 2;
#X connect 13 0 51 2;
#X connect 13 0 64 2;
#X connect 13 0 77 2;
#X connect 14 0 24 0;
#X connect 15 0 14 1;
#X connect 16 0 14 2;
#X connect 17 0 14 3;
#X connect 18 0 14 0;
#X connect 19 0 18 1;
#X connect 20 0 18 2;
#X connect 21 0 18 3;
#X connect 22 0 18 0;
#X connect 23 0 22 1;
#X connect 25 0 36 0;
#X connect 26 0 37 1;
#X connect 27 0 37 2;
#X connect 28 0 37 0;
#X connect 29 0 28 1;
#X connect 30 0 28 2;
#X connect 31 0 28 3;
#X connect 32 0 28 0;
#X connect 33 0 32 1;
#X connect 34 0 32 2;
#X connect 35 0 32 3;
#X connect 36 0 32 0;
#X connect 38 0 36 1;
#X connect 39 0 50 0;
#X connect 40 0 51 1;
#X connect 41 0 51 2;
#X connect 42 0 51 0;
#X connect 43 0 42 1;
#X connect 44 0 42 2;
#X connect 45 0 42 3;
#X connect 46 0 42 0;
#X connect 47 0 46 1;
#X connect 48 0 46 2;
#X connect 49 0 46 3;
#X connect 50 0 46 0;
#X connect 52 0 63 0;
#X connect 53 0 64 1;
#X connect 54 0 64 2;
#X connect 55 0 64 0;
#X connect 56 0 55 1;
#X connect 57 0 55 2;
#X connect 58 0 55 3;
#X connect 59 0 55 0;
#X connect 60 0 59 1;
#X connect 61 0 59 2;
#X connect 62 0 59 3;
#X connect 63 0 59 0;
#X connect 65 0 76 0;
#X connect 66 0 77 1;
#X connect 67 0 77 2;
#X connect 68 0 77 0;
#X connect 69 0 68 1;
#X connect 70 0 68 2;
#X connect 71 0 68 3;
#X connect 72 0 68 0;
#X connect 73 0 72 1;
#X connect 74 0 72 2;
#X connect 75 0 72 3;
#X connect 76 0 72 0;
#X connect 78 0 50 1;
#X connect 79 0 63 1;
#X connect 80 0 76 1;
#X connect 81 0 15 0;
#X connect 82 0 29 0;
#X connect 83 0 43 0;
#X connect 84 0 56 0;
#X connect 85 0 69 0;
#X connect 86 0 88 0;
#X connect 86 1 87 0;
#X connect 88 0 89 0;
