#N canvas 0 24 1272 693 10;
#X declare -lib iemmatrix;
#X declare -lib iem_tab;
#X obj 294 187 dac~;
#X msg 306 16 preset shadebossa.nvl;
#X obj 274 137 catch~ x1;
#X obj 187 182 throw~ x1;
#X msg 178 67 vol \$1;
#X obj 181 47 hsl 30 15 0 1 0 0 empty empty empty -2 -8 0 10 -260097
-257985 -1 0 1;
#X msg 307 39 preset ritmo.nvl;
#X floatatom 101 44 5 1 10 0 - - -;
#X msg 92 66 pattern \$1;
#X obj 290 71 tgl 15 0 empty empty empty 17 7 0 10 -262144 -1 -1 0
1;
#X msg 290 88 key \$1;
#X obj 24 104 mininvl;
#X obj 97 249 unpack f f f;
#X floatatom 93 281 5 0 0 0 - - -;
#X floatatom 135 283 5 0 0 0 - - -;
#X floatatom 173 286 5 0 0 0 - - -;
#X obj 586 396 cnv 15 100 60 empty empty empty 20 12 0 14 -195568 -66577
0;
#N canvas 0 0 450 300 gemwin 0;
#X obj 132 136 gemwin;
#X obj 67 89 outlet;
#X obj 67 10 inlet;
#X msg 67 70 set destroy;
#X msg 132 112 create \, 1;
#X msg 198 112 destroy;
#X msg 156 71 set create;
#X obj 67 41 route create;
#X connect 2 0 7 0;
#X connect 3 0 1 0;
#X connect 4 0 0 0;
#X connect 5 0 0 0;
#X connect 6 0 1 0;
#X connect 7 0 3 0;
#X connect 7 0 4 0;
#X connect 7 1 6 0;
#X connect 7 1 5 0;
#X restore 591 435 pd gemwin;
#X msg 591 416 destroy;
#X text 587 395 Create window:;
#X obj 505 110 cnv 15 155 250 empty empty empty 20 12 0 14 -24198 -66577
0;
#X obj 505 85 gemhead;
#X obj 443 416 pix_texture;
#X obj 517 115 bng 25 250 50 0 empty empty empty 0 -6 0 8 -262144 -1
-1;
#X text 560 90 movie-clip;
#X obj 530 309 unpack 0 0 0;
#X floatatom 520 332 5 0 0 3 length - -;
#X floatatom 569 332 5 0 0 3 width - -;
#X floatatom 619 332 5 0 0 3 height - -;
#X obj 574 290 bng 15 250 50 0 empty empty end_reached 20 7 0 10 -262144
-1 -1;
#X floatatom 556 255 5 0 10000 1 frame# - -;
#X obj 517 144 openpanel;
#X msg 517 164 open \$1;
#X obj 443 438 rectangle 4 3;
#X obj 505 273 pix_film;
#X msg 523 207 auto \$1;
#X obj 715 52 tgl 15 0 empty empty empty 0 -6 0 8 -262144 -1 -1 1 1
;
#X msg 534 231 colorspace Grey;
#X msg 354 207 open movies/sync00.mov;
#X floatatom 362 335 5 0 0 0 - - -;
#X obj 360 308 *;
#X floatatom 388 308 5 0 0 0 - - -;
#X msg 703 73 open movies/stallman.mov;
#X msg 742 51 preset stallman.nvl;
#X obj 684 14 loadbang;
#X obj 682 30 t b b b;
#X connect 1 0 11 1;
#X connect 2 0 0 0;
#X connect 2 0 0 1;
#X connect 4 0 11 1;
#X connect 5 0 4 0;
#X connect 6 0 11 1;
#X connect 7 0 8 0;
#X connect 8 0 11 1;
#X connect 9 0 10 0;
#X connect 10 0 11 1;
#X connect 11 1 12 0;
#X connect 11 3 3 0;
#X connect 11 4 3 0;
#X connect 12 0 13 0;
#X connect 12 1 14 0;
#X connect 12 2 15 0;
#X connect 14 0 40 0;
#X connect 17 0 18 0;
#X connect 18 0 17 0;
#X connect 21 0 34 0;
#X connect 22 0 33 0;
#X connect 23 0 31 0;
#X connect 25 0 26 0;
#X connect 25 0 41 0;
#X connect 25 1 27 0;
#X connect 25 2 28 0;
#X connect 30 0 34 1;
#X connect 31 0 32 0;
#X connect 32 0 34 0;
#X connect 34 0 22 0;
#X connect 34 1 25 0;
#X connect 34 2 29 0;
#X connect 35 0 34 0;
#X connect 36 0 35 0;
#X connect 37 0 34 0;
#X connect 38 0 34 0;
#X connect 40 0 39 0;
#X connect 40 0 30 0;
#X connect 41 0 40 1;
#X connect 42 0 34 0;
#X connect 44 0 45 0;
#X connect 45 0 42 0;
#X connect 45 1 36 0;
#X connect 45 2 43 0;
