#N canvas 38 74 1139 600 10;
#X obj 307 565 dac~;
#X obj 426 156 sel 0 2;
#X obj 485 154 sel 4;
#X obj 523 156 sel 8;
#X obj 321 507 tanh~;
#X obj 113 93 303_trig;
#X obj 310 156 f;
#X obj 584 136 t b b;
#X obj 651 111 t b b;
#X obj 581 9 808_multilocal /p03;
#X obj 581 204 perk-hihat /p03/hh;
#X obj 402 203 perk-bassdrum /p03/bd;
#X obj 399 315 perk-snare /p03/sn;
#X obj 74 200 303_TB /p03/rebirth;
#X msg 863 69 \; pd dsp 1;
#X obj 860 49 loadbang;
#X obj 768 205 303_TB /p03/rebirth2;
#N canvas 0 22 723 243 midi-in 0;
#X msg 214 68 0 \$1;
#X msg 261 69 1 \$1;
#X msg 311 62 2 \$1;
#X msg 366 65 3 \$1;
#X msg 414 66 4 \$1;
#X msg 463 59 5 \$1;
#X msg 510 60 6 \$1;
#X obj 268 107 t a;
#X obj 213 13 ctlin 1;
#X obj 264 9 ctlin 2;
#X obj 315 9 ctlin 3;
#X obj 366 10 ctlin 4;
#X obj 416 6 ctlin 5;
#X obj 467 6 ctlin 6;
#X obj 514 7 ctlin 7;
#X obj 210 37 / 127;
#X obj 262 33 / 127;
#X obj 313 33 / 127;
#X obj 364 34 / 127;
#X obj 414 30 / 127;
#X obj 465 30 / 127;
#X obj 512 31 / 127;
#X obj 276 148 outlet;
#X connect 0 0 7 0;
#X connect 1 0 7 0;
#X connect 2 0 7 0;
#X connect 3 0 7 0;
#X connect 4 0 7 0;
#X connect 5 0 7 0;
#X connect 6 0 7 0;
#X connect 7 0 22 0;
#X connect 8 0 15 0;
#X connect 9 0 16 0;
#X connect 10 0 17 0;
#X connect 11 0 18 0;
#X connect 12 0 19 0;
#X connect 13 0 20 0;
#X connect 14 0 21 0;
#X connect 15 0 0 0;
#X connect 16 0 1 0;
#X connect 17 0 2 0;
#X connect 18 0 3 0;
#X connect 19 0 4 0;
#X connect 20 0 5 0;
#X connect 21 0 6 0;
#X restore 308 55 pd midi-in;
#N canvas 0 22 723 243 midi-in 0;
#X msg 214 68 0 \$1;
#X msg 261 69 1 \$1;
#X msg 311 62 2 \$1;
#X msg 366 65 3 \$1;
#X msg 414 66 4 \$1;
#X msg 463 59 5 \$1;
#X msg 510 60 6 \$1;
#X obj 268 107 t a;
#X obj 210 37 / 127;
#X obj 262 33 / 127;
#X obj 313 33 / 127;
#X obj 364 34 / 127;
#X obj 414 30 / 127;
#X obj 465 30 / 127;
#X obj 512 31 / 127;
#X obj 276 148 outlet;
#X obj 213 13 ctlin 9;
#X obj 264 9 ctlin 10;
#X obj 315 9 ctlin 11;
#X obj 368 10 ctlin 12;
#X obj 416 5 ctlin 13;
#X obj 467 5 ctlin 14;
#X obj 515 7 ctlin 15;
#X connect 0 0 7 0;
#X connect 1 0 7 0;
#X connect 2 0 7 0;
#X connect 3 0 7 0;
#X connect 4 0 7 0;
#X connect 5 0 7 0;
#X connect 6 0 7 0;
#X connect 7 0 15 0;
#X connect 8 0 0 0;
#X connect 9 0 1 0;
#X connect 10 0 2 0;
#X connect 11 0 3 0;
#X connect 12 0 4 0;
#X connect 13 0 5 0;
#X connect 14 0 6 0;
#X connect 16 0 8 0;
#X connect 17 0 9 0;
#X connect 18 0 10 0;
#X connect 19 0 11 0;
#X connect 20 0 12 0;
#X connect 21 0 13 0;
#X connect 22 0 14 0;
#X restore 992 85 pd midi-in;
#X obj 80 469 mono-compressor /p03/comp1;
#N canvas 0 22 836 537 compress-drums 0;
#X obj 87 55 inlet~;
#X obj 80 254 outlet~;
#X obj 263 69 inlet~;
#X obj 263 243 outlet~;
#X obj 453 63 inlet~;
#X obj 630 79 inlet~;
#X obj 76 132 mono-compressor /p03/comp2;
#X obj 263 136 mono-compressor /p03/comp3;
#X obj 450 130 mono-compressor /p03/comp4;
#X obj 636 133 mono-compressor /p03/comp5;
#X obj 468 252 outlet~;
#X obj 653 239 outlet~;
#X connect 0 0 6 0;
#X connect 2 0 7 0;
#X connect 4 0 8 0;
#X connect 5 0 9 0;
#X connect 6 0 1 0;
#X connect 7 0 3 0;
#X connect 8 0 10 0;
#X connect 9 0 11 0;
#X restore 466 498 pd compress-drums;
#X obj 485 524 tanh~;
#X obj 765 471 mono-compressor /p03/comp6;
#X msg 683 150 7 0.2;
#X msg 631 144 7 0.55;
#X obj 580 360 perk-clap /p03/cl;
#X msg 402 54 4;
#X msg 448 48 8;
#X obj 425 136 mod \$1;
#X msg 488 41 2;
#X obj 467 135 mod \$1;
#X obj 521 135 mod \$1;
#X msg 533 34 1;
#X obj 17 135 st-vibrato;
#X msg 213 23 16;
#X connect 1 0 8 0;
#X connect 1 0 11 0;
#X connect 1 1 7 0;
#X connect 2 0 12 0;
#X connect 3 0 25 0;
#X connect 4 0 0 0;
#X connect 4 0 0 1;
#X connect 5 0 6 0;
#X connect 5 0 13 0;
#X connect 5 0 16 0;
#X connect 5 1 13 1;
#X connect 5 1 16 1;
#X connect 6 0 28 0;
#X connect 6 0 30 0;
#X connect 6 0 31 0;
#X connect 7 0 10 0;
#X connect 7 1 24 0;
#X connect 8 0 10 0;
#X connect 8 1 23 0;
#X connect 10 0 20 2;
#X connect 11 0 20 0;
#X connect 12 0 20 1;
#X connect 13 0 19 0;
#X connect 15 0 14 0;
#X connect 16 0 22 0;
#X connect 17 0 13 2;
#X connect 18 0 16 2;
#X connect 19 0 4 0;
#X connect 20 0 21 0;
#X connect 20 1 21 0;
#X connect 20 2 21 0;
#X connect 20 3 21 0;
#X connect 21 0 4 0;
#X connect 22 0 4 0;
#X connect 23 0 10 1;
#X connect 24 0 10 1;
#X connect 25 0 20 3;
#X connect 25 0 33 0;
#X connect 26 0 28 1;
#X connect 26 0 30 1;
#X connect 27 0 28 1;
#X connect 27 0 31 1;
#X connect 28 0 1 0;
#X connect 29 0 28 1;
#X connect 30 0 2 0;
#X connect 31 0 3 0;
#X connect 32 0 28 1;
#X connect 33 0 0 0;
#X connect 34 0 31 1;
