#N canvas 281 170 450 300 10;
#X obj 42 87 metro 100;
#X obj 42 127 bng 15 250 50 0 empty empty empty 17 7 0 10 -262144 -1
-1;
#X obj 144 274 arduino 4;
#X obj 43 8 tgl 15 0 empty empty empty 17 7 0 10 -262144 -1 -1 1 1
;
#X obj 164 125 bng 15 250 50 0 empty empty empty 17 7 0 10 -262144
-1 -1;
#X obj 291 125 bng 15 250 50 0 empty empty empty 17 7 0 10 -262144
-1 -1;
#X obj 159 88 metro 100;
#X floatatom 93 51 5 0 0 0 - - -;
#X obj 290 88 metro 100;
#X floatatom 340 52 5 0 0 0 - - -;
#X floatatom 213 50 5 0 0 0 - - -;
#X obj 62 161 delay 200;
#X obj 184 159 delay 200;
#X obj 311 159 delay 200;
#X floatatom 112 106 5 0 0 0 - - -;
#X floatatom 238 111 5 0 0 0 - - -;
#X floatatom 372 110 5 0 0 0 - - -;
#X obj 11 172 bng 15 250 50 0 empty empty empty 17 7 0 10 -262144 -1
-1;
#X obj 10 132 bng 15 250 50 0 empty empty empty 17 7 0 10 -262144 -1
-1;
#X obj 137 167 bng 15 250 50 0 empty empty empty 17 7 0 10 -262144
-1 -1;
#X obj 136 127 bng 15 250 50 0 empty empty empty 17 7 0 10 -262144
-1 -1;
#X obj 268 167 bng 15 250 50 0 empty empty empty 17 7 0 10 -262144
-1 -1;
#X obj 267 127 bng 15 250 50 0 empty empty empty 17 7 0 10 -262144
-1 -1;
#X msg 62 190 digital 11 0;
#X msg 43 218 digital 11 1;
#X msg 184 188 digital 12 0;
#X msg 167 214 digital 12 1;
#X msg 311 188 digital 13 0;
#X msg 292 216 digital 13 1;
#X obj 164 13 tgl 15 0 empty empty empty 17 7 0 10 -262144 -1 -1 0
1;
#X obj 288 15 tgl 15 0 empty empty empty 17 7 0 10 -262144 -1 -1 0
1;
#X connect 0 0 1 0;
#X connect 1 0 24 0;
#X connect 1 0 11 0;
#X connect 3 0 0 0;
#X connect 4 0 26 0;
#X connect 4 0 12 0;
#X connect 5 0 28 0;
#X connect 5 0 13 0;
#X connect 6 0 4 0;
#X connect 7 0 0 1;
#X connect 8 0 5 0;
#X connect 9 0 8 1;
#X connect 10 0 6 1;
#X connect 11 0 23 0;
#X connect 12 0 25 0;
#X connect 13 0 27 0;
#X connect 14 0 11 1;
#X connect 15 0 12 1;
#X connect 16 0 13 1;
#X connect 17 0 24 0;
#X connect 18 0 23 0;
#X connect 19 0 26 0;
#X connect 20 0 25 0;
#X connect 21 0 28 0;
#X connect 22 0 27 0;
#X connect 23 0 2 0;
#X connect 24 0 2 0;
#X connect 25 0 2 0;
#X connect 26 0 2 0;
#X connect 27 0 2 0;
#X connect 28 0 2 0;
#X connect 29 0 6 0;
#X connect 30 0 8 0;
