#N canvas 0 24 1280 696 10;
#X msg 314 16 ports;
#X obj 232 81 comport 4 9600;
#X msg 376 50 devices;
#X obj 13 18 vradio 15 1 0 8 empty empty selecione_a_porta 0 -8 0 10
-262144 -1 -4160 4;
#X msg 89 29 open \$1;
#X obj 230 116 bng 15 250 50 0 empty empty empty 0 -6 0 8 -262144 -1
-1;
#X obj 196 148 t l;
#X obj 107 149 list prepend;
#X obj 107 186 list length;
#X obj 107 255 sel 1;
#X msg 193 20 close;
#X obj 107 285 list append;
#X obj 107 224 == 17;
#X floatatom -31 365 5 0 0 0 - - -;
#X floatatom 4 365 5 0 0 0 - - -;
#X floatatom 39 365 5 0 0 0 - - -;
#X floatatom 74 365 5 0 0 0 - - -;
#X floatatom 109 365 5 0 0 0 - - -;
#X floatatom 145 365 5 0 0 0 - - -;
#X floatatom 180 365 5 0 0 0 - - -;
#X floatatom 215 365 5 0 0 0 - - -;
#X floatatom 250 365 5 0 0 0 - - -;
#X floatatom 285 365 5 0 0 0 - - -;
#X floatatom 320 365 5 0 0 0 - - -;
#X floatatom 355 365 5 0 0 0 - - -;
#X floatatom 390 365 5 0 0 0 - - -;
#X floatatom 425 365 5 0 0 0 - - -;
#X floatatom 460 365 5 0 0 0 - - -;
#X floatatom 495 365 5 0 0 0 - - -;
#X obj 107 311 unpack f f f f f f f f f f f f f f f f;
#X text 247 166 <--- cria uma lista (um sequencer) com os valores vindos
do arduino... até ter 16 valores... depois envia os valores para o
list append e faz unpack para obter cada um dos 16 valores lidos a
cada 16 valores... limpa a lista (bang lá encima);
#X obj 272 452 osc~;
#X obj 272 425 mtof;
#X obj 240 487 dac~;
#X obj 220 422 mtof;
#X obj 220 452 osc~;
#X text 207 450 4;
#X text 261 451 5;
#X obj 171 422 mtof;
#X obj 171 452 osc~;
#X obj 123 421 mtof;
#X obj 123 451 osc~;
#X obj 79 419 mtof;
#X obj 79 449 osc~;
#X text 158 450 3;
#X text 110 449 2;
#X text 66 447 1;
#X obj 317 423 mtof;
#X obj 317 453 osc~;
#X obj 362 420 mtof;
#X obj 362 450 osc~;
#X obj 414 419 mtof;
#X obj 414 449 osc~;
#X text 303 451 6;
#X text 349 448 7;
#X text 401 447 8;
#N canvas 0 0 450 300 (subpatch) 0;
#X array array1 140 float 2;
#X coords 0 1 140 -1 140 140 1;
#X restore -116 540 graph;
#N canvas 0 0 450 300 (subpatch) 0;
#X array array2 140 float 2;
#X coords 0 1 140 -1 140 140 1;
#X restore 29 540 graph;
#X obj -116 505 tabwrite~ array1;
#X obj -116 469 metro 100;
#X obj -116 441 tgl 15 0 empty empty empty 17 7 0 10 -262144 -1 -1
1 1;
#X obj 30 509 tabwrite~ array2;
#N canvas 0 0 450 300 (subpatch) 0;
#X array array3 140 float 2;
#X coords 0 1 140 -1 140 140 1;
#X restore 173 540 graph;
#X obj 173 510 tabwrite~ array3;
#N canvas 0 0 450 300 (subpatch) 0;
#X array array4 140 float 2;
#X coords 0 1 140 -1 140 140 1;
#X restore 316 540 graph;
#X obj 316 509 tabwrite~ array4;
#N canvas 0 0 450 300 (subpatch) 0;
#X array array5 140 float 2;
#X coords 0 1 140 -1 140 140 1;
#X restore 462 540 graph;
#N canvas 0 0 450 300 (subpatch) 0;
#X array array6 140 float 2;
#X coords 0 1 140 -1 140 140 1;
#X restore 607 540 graph;
#N canvas 0 0 450 300 (subpatch) 0;
#X array array7 140 float 2;
#X coords 0 1 140 -1 140 140 1;
#X restore 751 540 graph;
#N canvas 0 0 450 300 (subpatch) 0;
#X array array8 140 float 2;
#X coords 0 1 140 -1 140 140 1;
#X restore 894 540 graph;
#X obj 462 505 tabwrite~ array5;
#X obj 608 509 tabwrite~ array6;
#X obj 751 510 tabwrite~ array7;
#X obj 894 509 tabwrite~ array8;
#X connect 0 0 1 0;
#X connect 1 0 7 0;
#X connect 2 0 1 0;
#X connect 3 0 4 0;
#X connect 4 0 1 0;
#X connect 5 0 7 1;
#X connect 6 0 7 1;
#X connect 7 0 6 0;
#X connect 7 0 8 0;
#X connect 7 0 11 1;
#X connect 8 0 12 0;
#X connect 9 0 7 1;
#X connect 9 0 11 0;
#X connect 10 0 1 0;
#X connect 11 0 29 0;
#X connect 12 0 9 0;
#X connect 15 0 51 0;
#X connect 16 0 49 0;
#X connect 17 0 47 0;
#X connect 18 0 32 0;
#X connect 23 0 34 0;
#X connect 24 0 38 0;
#X connect 25 0 40 0;
#X connect 26 0 42 0;
#X connect 29 0 13 0;
#X connect 29 1 14 0;
#X connect 29 2 15 0;
#X connect 29 3 16 0;
#X connect 29 4 17 0;
#X connect 29 5 18 0;
#X connect 29 6 19 0;
#X connect 29 7 20 0;
#X connect 29 8 21 0;
#X connect 29 9 22 0;
#X connect 29 10 23 0;
#X connect 29 11 24 0;
#X connect 29 12 25 0;
#X connect 29 13 26 0;
#X connect 29 14 27 0;
#X connect 29 15 28 0;
#X connect 31 0 33 0;
#X connect 31 0 70 0;
#X connect 32 0 31 0;
#X connect 34 0 35 0;
#X connect 35 0 33 0;
#X connect 35 0 65 0;
#X connect 38 0 39 0;
#X connect 39 0 33 0;
#X connect 39 0 63 0;
#X connect 40 0 41 0;
#X connect 41 0 33 0;
#X connect 41 0 61 0;
#X connect 42 0 43 0;
#X connect 43 0 33 0;
#X connect 43 0 58 0;
#X connect 47 0 48 0;
#X connect 48 0 33 0;
#X connect 48 0 71 0;
#X connect 49 0 50 0;
#X connect 50 0 33 0;
#X connect 50 0 72 0;
#X connect 51 0 52 0;
#X connect 52 0 33 0;
#X connect 52 0 73 0;
#X connect 59 0 58 0;
#X connect 59 0 61 0;
#X connect 59 0 63 0;
#X connect 59 0 65 0;
#X connect 59 0 70 0;
#X connect 59 0 71 0;
#X connect 59 0 72 0;
#X connect 59 0 73 0;
#X connect 60 0 59 0;
