#N canvas 172 94 1056 573 10;
#X declare -lib iemmatrix;
#X declare -lib iem_tab;
#X declare -lib iemmatrix;
#X declare -lib iem_tab;
#X declare -lib iemmatrix;
#X declare -lib iem_tab;
#X declare -lib iemmatrix;
#X declare -lib iem_tab;
#X obj 340 448 output~;
#X msg 313 74 wav XF_Loop_001.wav;
#X obj 622 -37 ctlin 105;
#X msg 299 44 simetria 4;
#X obj 380 -59 metro;
#X msg 300 20 div 4;
#X obj 23 113 mininvl;
#X obj 22 170 mininvl;
#X obj 23 229 mininvl;
#X obj 22 281 mininvl;
#X msg 311 146 wav XF_Loop_002.wav;
#X msg 309 206 wav XF_Loop_003.wav;
#X msg 308 261 wav XF_Loop_004.wav;
#X obj 504 17 bng 15 250 50 0 empty empty empty 17 7 0 10 -262144 -1
-1;
#X obj 491 -38 tgl 15 0 empty empty empty 17 7 0 10 -262144 -1 -1 0
1;
#X obj 491 47 i;
#X obj 518 47 + 1;
#X obj 493 72 mod 4;
#X obj 622 -8 sel 127 0;
#X obj 727 -8 sel 127 0;
#X obj 833 -9 sel 127 0;
#X obj 936 -7 sel 127 0;
#X obj 726 -37 ctlin 106;
#X obj 833 -38 ctlin 107;
#X obj 936 -36 ctlin 108;
#X obj 493 109 hradio 30 1 0 4 empty empty empty 0 -8 0 10 -4032 -1
-1 1;
#X msg 620 24 0;
#X msg 492 153 slice \$1;
#X msg 727 25 1;
#X msg 832 22 2;
#X msg 935 25 3;
#X obj 491 -11 metro 1000;
#X obj 680 110 spigot;
#X msg 657 24 1;
#X connect 1 0 6 1;
#X connect 2 0 18 0;
#X connect 3 0 6 1;
#X connect 3 0 7 1;
#X connect 3 0 8 1;
#X connect 3 0 9 1;
#X connect 5 0 6 1;
#X connect 5 0 7 1;
#X connect 5 0 8 1;
#X connect 5 0 9 1;
#X connect 6 3 0 0;
#X connect 6 4 0 1;
#X connect 7 3 0 0;
#X connect 7 4 0 1;
#X connect 8 3 0 0;
#X connect 8 4 0 1;
#X connect 9 3 0 0;
#X connect 9 4 0 1;
#X connect 10 0 7 1;
#X connect 11 0 8 1;
#X connect 12 0 9 1;
#X connect 14 0 31 0;
#X connect 15 0 16 0;
#X connect 15 0 17 0;
#X connect 16 0 15 1;
#X connect 17 0 32 0;
#X connect 18 0 26 0;
#X connect 18 1 33 0;
#X connect 19 0 28 0;
#X connect 20 0 29 0;
#X connect 21 0 30 0;
#X connect 22 0 19 0;
#X connect 23 0 20 0;
#X connect 24 0 21 0;
#X connect 25 0 27 0;
#X connect 26 0 25 0;
#X connect 26 0 15 0;
#X connect 26 0 32 1;
#X connect 27 0 6 1;
#X connect 28 0 25 0;
#X connect 28 0 15 0;
#X connect 29 0 15 0;
#X connect 29 0 25 0;
#X connect 30 0 15 0;
#X connect 30 0 25 0;
#X connect 31 0 13 0;
#X connect 31 0 15 0;
#X connect 32 0 25 0;
#X connect 33 0 32 1;
