#N canvas 0 24 1259 675 24;
#X obj 1140 17 netreceive 2727;
#X floatatom 1321 76 5 0 0 0 - - -;
#X obj 1220 77 print;
#X obj -49 74 shell;
#X obj -49 138 route vilsonvieira cristianofigo;
#X obj 1194 592 dac~;
#X obj 1103 513 osc~;
#X floatatom 1203 477 5 0 0 0 - - -;
#X obj 1219 137 list;
#X msg 1267 199 73;
#X obj 1048 252 list-dripslow;
#X obj 903 229 bng 15 250 50 0 empty empty empty 17 7 0 10 -262144
-1 -1;
#X obj 863 120 tgl 15 0 empty empty empty 17 7 0 10 -262144 -1 -1 0
1;
#X obj 1167 422 * 10;
#X obj 964 161 metro 100;
#X obj -55 208 any2wchars;
#X msg -49 17 twitter replies -e vilsonv@gmail.com -p tw1tt3r;
#X obj -55 270 prepend add;
#X obj -28 345 iter;
#X obj 25 403 bng 15 250 50 0 empty empty empty 17 7 0 10 -262144 -1
-1;
#X obj 117 440 f;
#X obj 116 496 + 1;
#N canvas 0 0 450 300 (subpatch) 0;
#X array parser 140 float 3;
#A 0 0 0 118 106 119 101 101 100 109 97 110 32 64 118 105 108 115 111
110 118 105 101 105 114 97 32 114 101 115 115 117 114 103 101 32 98
97 100 108 97 109 98 100 97 32 33 32 69 32 97 195 173 32 109 97 108
117 99 111 63 63 32 86 97 105 32 114 111 108 97 32 117 109 32 35 110
111 98 32 112 114 105 118 97 116 101 32 113 117 105 110 116 97 32 102
101 105 114 97 46 32 86 97 105 32 101 115 116 97 114 32 108 101 99
105 111 110 97 110 100 111 63 0 0 118 106 119 101 101 100 109 97 110
32 64 118 105 108 115 0;
#X coords 0 128 139 0 200 140 1;
#X restore 645 17 graph;
#X obj -57 558 tabwrite parser;
#X msg 128 345 0;
#X msg 98 68 \; parser const 0;
#X obj 559 289 tabread parser;
#X obj -266 158 iter;
#X msg -236 300 @msst_? vjweedman \; @vilsonvieira \; ressurge \; badlambda
\; ! \; E \; aí \; maluco?? \; Vai \; rola \; um \; #nob \; private
\; quinta \; feira. \; Vai \; estar \; lecionando? \; vjweedman \;
@vilsonvieira \; lá \; em \; casa \; romuloab \; @vilsonvieira \;
Muito \; show. \; Adorei! \; vjweedman \; @vilsonvieira \; transferido
\; pra \; semana \; q \; vem. \; To \; em \; blu \; romuloab \; @vilsonvieira
\; of \; men \; and \; machines \; romuloab \; @vilsonvieira \; vou
\; dar \; uma \; procurada \; depois. \; o \; que \; achei \; interessante
\; é \; que \; são \; vários \; estilos.. \; a \; la \; carte \;
o/ \; tiagotf4 \; @vilsonvieira \; to \; te \; seguindo \; agora \;
professor \; :D \; vjweedman \; primeiros \; dias \; de \; oficinagem
\; na \; udesc. \; http://shhh.void.cc \; (via \; @vilsonvieira) \;
kijjaz \; @vilsonvieira \; that'd \; be \; fun. \; but \; i'm \; not
\; a \; dsp \; or \; electrical \; or \; math \; or \; computer \;
science \; guy. \; just \; an \; end-user. \; but'd \; be \; nice \;
to \; share. \; vjweedman \; @vilsonvieira \; na \; br \; 101 \; um
\; pouco \; depois \; da \; curva \; do \; arroz \; sentido \; flps...
\; ao \; lado \; do \; retorno \; vjweedman \; @vilsonvieira \; http://is.gd/3LVpJ
\; nao \; tem \; como \; errar! \; alfakini \; @vilsonvieira \; http://commonmusic.sourceforge.net/
\; alfakini \; RT: \; @vilsonvieira: \; um \; yahoo \; answers \; para
\; hackers \; de \; cacarecos \; http://c \; hiphacker.com/ \; fawxtin
\; RT: \; @vilsonvieira \; bodyfuck. \; http://www.vimeo.com/7133810
\; vjweedman \; RT \; @vilsonvieira: \; loop-r. \; sistema \; vj \;
usando \; touchscreen. \; legal \; @alfakini \; :-) \; http://bit.ly/4zaxkp
\; teiacamargo \; @vilsonvieira \; estou \; testando \; as \; ferramentas
\; pd+geringoncas \; q \; n. \; querem \; funcionar...! \; gabithume
\; @vilsonvieira \; amo \; vc \; -) \; alfakini \; @vilsonvieira \;
Como \; escuto \; o \; som \; do \; @msst_? \;;
#X obj 670 410 select 35 32;
#X msg 678 515 1;
#X msg 785 517 0;
#X obj 666 587 spigot;
#X obj 763 690 list;
#X obj 763 748 prepend add;
#X msg 966 691 35 \; 110 \; 111 \; 98 \; 35 \; 110 \; 111 \; 98 \;
35 \; 110 \; 111 \; 98 \; 35 \; 110 \; 111 \; 98 \; 35 \; 110 \; 111
\; 98 \; 35 \; 110 \; 111 \; 98 \; 35 \; 110 \; 111 \; 98 \; 35 \;
110 \; 111 \; 98 \; 35 \; 110 \; 111 \; 98 \; 35 \; 110 \; 111 \; 98
\; 35 \; 110 \; 111 \; 98 \; 35 \; 110 \; 111 \; 98 \; 35 \; 110 \;
111 \; 98 \; 35 \; 110 \; 111 \; 98 \; 35 \; 110 \; 111 \; 98 \; 35
\; 110 \; 111 \; 98 \; 35 \; 110 \; 111 \; 98 \; 35 \; 110 \; 111 \;
98 \; 35 \; 110 \; 111 \; 98 \; 35 \; 110 \; 111 \; 98 \;;
#X obj 673 222 counter 140;
#X obj 646 189 bng 15 250 50 0 empty empty empty 17 7 0 10 -262144
-1 -1;
#X msg -212 614 118 106 119 101 101 100 109 97 110 32 64 118 105 108
115 111 110 118 105 101 105 114 97 32 114 101 115 115 117 114 103 101
32 98 97 100 108 97 109 98 100 97 32 33 32 69 32 97 195 173 32 109
97 108 117 99 111 63 63 32 86 97 105 32 114 111 108 97 32 117 109 32
35 110 111 98 32 112 114 105 118 97 116 101 32 113 117 105 110 116
97 32 102 101 105 114 97 46 32 86 97 105 32 101 115 116 97 114 32 108
101 99 105 111 110 97 110 100 111 63 0 \; 118 106 119 101 101 100 109
97 110 32 64 118 105 108 115 111 110 118 105 101 105 114 97 32 108
195 161 32 101 109 32 99 97 115 97 0 \; 114 111 109 117 108 111 97
98 32 64 118 105 108 115 111 110 118 105 101 105 114 97 32 77 117 105
116 111 32 115 104 111 119 46 32 65 100 111 114 101 105 33 0 \; 118
106 119 101 101 100 109 97 110 32 64 118 105 108 115 111 110 118 105
101 105 114 97 32 116 114 97 110 115 102 101 114 105 100 111 32 112
114 97 32 115 101 109 97 110 97 32 113 32 118 101 109 46 32 84 111
32 101 109 32 98 108 117 0 \; 114 111 109 117 108 111 97 98 32 64 118
105 108 115 111 110 118 105 101 105 114 97 32 111 102 32 109 101 110
32 97 110 100 32 109 97 99 104 105 110 101 115 0 \; 114 111 109 117
108 111 97 98 32 64 118 105 108 115 111 110 118 105 101 105 114 97
32 118 111 117 32 100 97 114 32 117 109 97 32 112 114 111 99 117 114
97 100 97 32 100 101 112 111 105 115 46 32 111 32 113 117 101 32 97
99 104 101 105 32 105 110 116 101 114 101 115 115 97 110 116 101 32
195 169 32 113 117 101 32 115 195 163 111 32 118 195 161 114 105 111
115 32 101 115 116 105 108 111 115 46 46 32 97 32 108 97 32 99 97 114
116 101 32 111 47 0 \; 116 105 97 103 111 116 102 52 32 64 118 105
108 115 111 110 118 105 101 105 114 97 32 116 111 32 116 101 32 115
101 103 117 105 110 100 111 32 97 103 111 114 97 32 112 114 111 102
101 115 115 111 114 32 58 68 0 \; 118 106 119 101 101 100 109 97 110
32 112 114 105 109 101 105 114 111 115 32 100 105 97 115 32 100 101
32 111 102 105 99 105 110 97 103 101 109 32 110 97 32 117 100 101 115
99 46 32 104 116 116 112 58 47 47 115 104 104 104 46 118 111 105 100
46 99 99 32 40 118 105 97 32 64 118 105 108 115 111 110 118 105 101
105 114 97 41 0 \; 107 105 106 106 97 122 32 64 118 105 108 115 111
110 118 105 101 105 114 97 32 116 104 97 116 39 100 32 98 101 32 102
117 110 46 32 98 117 116 32 105 39 109 32 110 111 116 32 97 32 100
115 112 32 111 114 32 101 108 101 99 116 114 105 99 97 108 32 111 114
32 109 97 116 104 32 111 114 32 99 111 109 112 117 116 101 114 32 115
99 105 101 110 99 101 32 103 117 121 46 32 106 117 115 116 32 97 110
32 101 110 100 45 117 115 101 114 46 32 98 117 116 39 100 32 98 101
32 110 105 99 101 32 116 111 32 115 104 97 114 101 46 0 \; 118 106
119 101 101 100 109 97 110 32 64 118 105 108 115 111 110 118 105 101
105 114 97 32 110 97 32 98 114 32 49 48 49 32 117 109 32 112 111 117
99 111 32 100 101 112 111 105 115 32 100 97 32 99 117 114 118 97 32
100 111 32 97 114 114 111 122 0 \; 115 101 110 116 105 100 111 32 102
108 112 115 46 46 46 32 97 111 32 108 97 100 111 32 100 111 32 114
101 116 111 114 110 111 0 \; 118 106 119 101 101 100 109 97 110 32
64 118 105 108 115 111 110 118 105 101 105 114 97 32 104 116 116 112
58 47 47 105 115 46 103 100 47 51 76 86 112 74 32 110 97 111 32 116
101 109 32 99 111 109 111 32 101 114 114 97 114 33 0 \; 97 108 102
97 107 105 110 105 32 64 118 105 108 115 111 110 118 105 101 105 114
97 32 104 116 116 112 58 47 47 99 111 109 109 111 110 109 117 115 105
99 46 115 111 117 114 99 101 102 111 114 103 101 46 110 101 116 47
0 \; 97 108 102 97 107 105 110 105 32 82 84 58 32 64 118 105 108 115
111 110 118 105 101 105 114 97 58 32 117 109 32 121 97 104 111 111
32 97 110 115 119 101 114 115 32 112 97 114 97 32 104 97 99 107 101
114 115 32 100 101 32 99 97 99 97 114 101 99 111 115 32 104 116 116
112 58 47 47 99 0 \; 104 105 112 104 97 99 107 101 114 46 99 111 109
47 0 \; 102 97 119 120 116 105 110 32 82 84 58 32 64 118 105 108 115
111 110 118 105 101 105 114 97 0 \; 98 111 100 121 102 117 99 107 46
32 104 116 116 112 58 47 47 119 119 119 46 118 105 109 101 111 46 99
111 109 47 55 49 51 51 56 49 48 0 \; 118 106 119 101 101 100 109 97
110 32 82 84 32 64 118 105 108 115 111 110 118 105 101 105 114 97 58
32 108 111 111 112 45 114 46 32 115 105 115 116 101 109 97 32 118 106
32 117 115 97 110 100 111 32 116 111 117 99 104 115 99 114 101 101
110 46 32 108 101 103 97 108 32 64 97 108 102 97 107 105 110 105 32
58 45 41 32 104 116 116 112 58 47 47 98 105 116 46 108 121 47 52 122
97 120 107 112 0 \; 116 101 105 97 99 97 109 97 114 103 111 32 64 118
105 108 115 111 110 118 105 101 105 114 97 32 101 115 116 111 117 32
116 101 115 116 97 110 100 111 32 97 115 32 102 101 114 114 97 109
101 110 116 97 115 32 112 100 43 103 101 114 105 110 103 111 110 99
97 115 32 113 32 110 46 32 113 117 101 114 101 109 32 102 117 110 99
105 111 110 97 114 46 46 46 33 0 \; 103 97 98 105 116 104 117 109 101
32 64 118 105 108 115 111 110 118 105 101 105 114 97 32 97 109 111
32 118 99 0 \; 45 41 0 \; 97 108 102 97 107 105 110 105 32 64 118 105
108 115 111 110 118 105 101 105 114 97 32 67 111 109 111 32 101 115
99 117 116 111 32 111 32 115 111 109 32 100 111 32 64 109 115 115 116
95 63 0 \; 118 106 119 101 101 100 109 97 110 32 64 118 105 108 115
111 110 118 105 101 105 114 97 32 114 101 115 115 117 114 103 101 32
98 97 100 108 97 109 98 100 97 32 33 32 69 32 97 195 173 32 109 97
108 117 99 111 63 63 32 86 97 105 32 114 111 108 97 32 117 109 32 35
110 111 98 32 112 114 105 118 97 116 101 32 113 117 105 110 116 97
32 102 101 105 114 97 46 32 86 97 105 32 101 115 116 97 114 32 108
101 99 105 111 110 97 110 100 111 63 0 \; 118 106 119 101 101 100 109
97 110 32 64 118 105 108 115 111 110 118 105 101 105 114 97 32 108
195 161 32 101 109 32 99 97 115 97 0 \; 114 111 109 117 108 111 97
98 32 64 118 105 108 115 111 110 118 105 101 105 114 97 32 77 117 105
116 111 32 115 104 111 119 46 32 65 100 111 114 101 105 33 0 \; 118
106 119 101 101 100 109 97 110 32 64 118 105 108 115 111 110 118 105
101 105 114 97 32 116 114 97 110 115 102 101 114 105 100 111 32 112
114 97 32 115 101 109 97 110 97 32 113 32 118 101 109 46 32 84 111
32 101 109 32 98 108 117 0 \; 114 111 109 117 108 111 97 98 32 64 118
105 108 115 111 110 118 105 101 105 114 97 32 111 102 32 109 101 110
32 97 110 100 32 109 97 99 104 105 110 101 115 0 \; 114 111 109 117
108 111 97 98 32 64 118 105 108 115 111 110 118 105 101 105 114 97
32 118 111 117 32 100 97 114 32 117 109 97 32 112 114 111 99 117 114
97 100 97 32 100 101 112 111 105 115 46 32 111 32 113 117 101 32 97
99 104 101 105 32 105 110 116 101 114 101 115 115 97 110 116 101 32
195 169 32 113 117 101 32 115 195 163 111 32 118 195 161 114 105 111
115 32 101 115 116 105 108 111 115 46 46 32 97 32 108 97 32 99 97 114
116 101 32 111 47 0 \; 116 105 97 103 111 116 102 52 32 64 118 105
108 115 111 110 118 105 101 105 114 97 32 116 111 32 116 101 32 115
101 103 117 105 110 100 111 32 97 103 111 114 97 32 112 114 111 102
101 115 115 111 114 32 58 68 0 \; 118 106 119 101 101 100 109 97 110
32 112 114 105 109 101 105 114 111 115 32 100 105 97 115 32 100 101
32 111 102 105 99 105 110 97 103 101 109 32 110 97 32 117 100 101 115
99 46 32 104 116 116 112 58 47 47 115 104 104 104 46 118 111 105 100
46 99 99 32 40 118 105 97 32 64 118 105 108 115 111 110 118 105 101
105 114 97 41 0 \; 107 105 106 106 97 122 32 64 118 105 108 115 111
110 118 105 101 105 114 97 32 116 104 97 116 39 100 32 98 101 32 102
117 110 46 32 98 117 116 32 105 39 109 32 110 111 116 32 97 32 100
115 112 32 111 114 32 101 108 101 99 116 114 105 99 97 108 32 111 114
32 109 97 116 104 32 111 114 32 99 111 109 112 117 116 101 114 32 115
99 105 101 110 99 101 32 103 117 121 46 32 106 117 115 116 32 97 110
32 101 110 100 45 117 115 101 114 46 32 98 117 116 39 100 32 98 101
32 110 105 99 101 32 116 111 32 115 104 97 114 101 46 0 \; 118 106
119 101 101 100 109 97 110 32 64 118 105 108 115 111 110 118 105 101
105 114 97 32 110 97 32 98 114 32 49 48 49 32 117 109 32 112 111 117
99 111 32 100 101 112 111 105 115 32 100 97 32 99 117 114 118 97 32
100 111 32 97 114 114 111 122 0 \; 115 101 110 116 105 100 111 32 102
108 112 115 46 46 46 32 97 111 32 108 97 100 111 32 100 111 32 114
101 116 111 114 110 111 0 \; 118 106 119 101 101 100 109 97 110 32
64 118 105 108 115 111 110 118 105 101 105 114 97 32 104 116 116 112
58 47 47 105 115 46 103 100 47 51 76 86 112 74 32 110 97 111 32 116
101 109 32 99 111 109 111 32 101 114 114 97 114 33 0 \; 97 108 102
97 107 105 110 105 32 64 118 105 108 115 111 110 118 105 101 105 114
97 32 104 116 116 112 58 47 47 99 111 109 109 111 110 109 117 115 105
99 46 115 111 117 114 99 101 102 111 114 103 101 46 110 101 116 47
0 \; 97 108 102 97 107 105 110 105 32 82 84 58 32 64 118 105 108 115
111 110 118 105 101 105 114 97 58 32 117 109 32 121 97 104 111 111
32 97 110 115 119 101 114 115 32 112 97 114 97 32 104 97 99 107 101
114 115 32 100 101 32 99 97 99 97 114 101 99 111 115 32 104 116 116
112 58 47 47 99 0 \; 104 105 112 104 97 99 107 101 114 46 99 111 109
47 0 \; 102 97 119 120 116 105 110 32 82 84 58 32 64 118 105 108 115
111 110 118 105 101 105 114 97 0 \; 98 111 100 121 102 117 99 107 46
32 104 116 116 112 58 47 47 119 119 119 46 118 105 109 101 111 46 99
111 109 47 55 49 51 51 56 49 48 0 \; 118 106 119 101 101 100 109 97
110 32 82 84 32 64 118 105 108 115 111 110 118 105 101 105 114 97 58
32 108 111 111 112 45 114 46 32 115 105 115 116 101 109 97 32 118 106
32 117 115 97 110 100 111 32 116 111 117 99 104 115 99 114 101 101
110 46 32 108 101 103 97 108 32 64 97 108 102 97 107 105 110 105 32
58 45 41 32 104 116 116 112 58 47 47 98 105 116 46 108 121 47 52 122
97 120 107 112 0 \; 116 101 105 97 99 97 109 97 114 103 111 32 64 118
105 108 115 111 110 118 105 101 105 114 97 32 101 115 116 111 117 32
116 101 115 116 97 110 100 111 32 97 115 32 102 101 114 114 97 109
101 110 116 97 115 32 112 100 43 103 101 114 105 110 103 111 110 99
97 115 32 113 32 110 46 32 113 117 101 114 101 109 32 102 117 110 99
105 111 110 97 114 46 46 46 33 0 \; 103 97 98 105 116 104 117 109 101
32 64 118 105 108 115 111 110 118 105 101 105 114 97 32 97 109 111
32 118 99 0 \; 45 41 0 \; 97 108 102 97 107 105 110 105 32 64 118 105
108 115 111 110 118 105 101 105 114 97 32 67 111 109 111 32 101 115
99 117 116 111 32 111 32 115 111 109 32 100 111 32 64 109 115 115 116
95 63 0 \; 118 106 119 101 101 100 109 97 110 32 64 118 105 108 115
111 110 118 105 101 105 114 97 32 114 101 115 115 117 114 103 101 32
98 97 100 108 97 109 98 100 97 32 33 32 69 32 97 195 173 32 109 97
108 117 99 111 63 63 32 86 97 105 32 114 111 108 97 32 117 109 32 35
110 111 98 32 112 114 105 118 97 116 101 32 113 117 105 110 116 97
32 102 101 105 114 97 46 32 86 97 105 32 101 115 116 97 114 32 108
101 99 105 111 110 97 110 100 111 63 0 \; 118 106 119 101 101 100 109
97 110 32 64 118 105 108 115 111 110 118 105 101 105 114 97 32 108
195 161 32 101 109 32 99 97 115 97 0 \; 114 111 109 117 108 111 97
98 32 64 118 105 108 115 111 110 118 105 101 105 114 97 32 77 117 105
116 111 32 115 104 111 119 46 32 65 100 111 114 101 105 33 0 \; 118
106 119 101 101 100 109 97 110 32 64 118 105 108 115 111 110 118 105
101 105 114 97 32 116 114 97 110 115 102 101 114 105 100 111 32 112
114 97 32 115 101 109 97 110 97 32 113 32 118 101 109 46 32 84 111
32 101 109 32 98 108 117 0 \; 114 111 109 117 108 111 97 98 32 64 118
105 108 115 111 110 118 105 101 105 114 97 32 111 102 32 109 101 110
32 97 110 100 32 109 97 99 104 105 110 101 115 0 \; 114 111 109 117
108 111 97 98 32 64 118 105 108 115 111 110 118 105 101 105 114 97
32 118 111 117 32 100 97 114 32 117 109 97 32 112 114 111 99 117 114
97 100 97 32 100 101 112 111 105 115 46 32 111 32 113 117 101 32 97
99 104 101 105 32 105 110 116 101 114 101 115 115 97 110 116 101 32
195 169 32 113 117 101 32 115 195 163 111 32 118 195 161 114 105 111
115 32 101 115 116 105 108 111 115 46 46 32 97 32 108 97 32 99 97 114
116 101 32 111 47 0 \; 116 105 97 103 111 116 102 52 32 64 118 105
108 115 111 110 118 105 101 105 114 97 32 116 111 32 116 101 32 115
101 103 117 105 110 100 111 32 97 103 111 114 97 32 112 114 111 102
101 115 115 111 114 32 58 68 0 \; 118 106 119 101 101 100 109 97 110
32 112 114 105 109 101 105 114 111 115 32 100 105 97 115 32 100 101
32 111 102 105 99 105 110 97 103 101 109 32 110 97 32 117 100 101 115
99 46 32 104 116 116 112 58 47 47 115 104 104 104 46 118 111 105 100
46 99 99 32 40 118 105 97 32 64 118 105 108 115 111 110 118 105 101
105 114 97 41 0 \; 107 105 106 106 97 122 32 64 118 105 108 115 111
110 118 105 101 105 114 97 32 116 104 97 116 39 100 32 98 101 32 102
117 110 46 32 98 117 116 32 105 39 109 32 110 111 116 32 97 32 100
115 112 32 111 114 32 101 108 101 99 116 114 105 99 97 108 32 111 114
32 109 97 116 104 32 111 114 32 99 111 109 112 117 116 101 114 32 115
99 105 101 110 99 101 32 103 117 121 46 32 106 117 115 116 32 97 110
32 101 110 100 45 117 115 101 114 46 32 98 117 116 39 100 32 98 101
32 110 105 99 101 32 116 111 32 115 104 97 114 101 46 0 \; 118 106
119 101 101 100 109 97 110 32 64 118 105 108 115 111 110 118 105 101
105 114 97 32 110 97 32 98 114 32 49 48 49 32 117 109 32 112 111 117
99 111 32 100 101 112 111 105 115 32 100 97 32 99 117 114 118 97 32
100 111 32 97 114 114 111 122 0 \; 115 101 110 116 105 100 111 32 102
108 112 115 46 46 46 32 97 111 32 108 97 100 111 32 100 111 32 114
101 116 111 114 110 111 0 \; 118 106 119 101 101 100 109 97 110 32
64 118 105 108 115 111 110 118 105 101 105 114 97 32 104 116 116 112
58 47 47 105 115 46 103 100 47 51 76 86 112 74 32 110 97 111 32 116
101 109 32 99 111 109 111 32 101 114 114 97 114 33 0 \; 97 108 102
97 107 105 110 105 32 64 118 105 108 115 111 110 118 105 101 105 114
97 32 104 116 116 112 58 47 47 99 111 109 109 111 110 109 117 115 105
99 46 115 111 117 114 99 101 102 111 114 103 101 46 110 101 116 47
0 \; 97 108 102 97 107 105 110 105 32 82 84 58 32 64 118 105 108 115
111 110 118 105 101 105 114 97 58 32 117 109 32 121 97 104 111 111
32 97 110 115 119 101 114 115 32 112 97 114 97 32 104 97 99 107 101
114 115 32 100 101 32 99 97 99 97 114 101 99 111 115 32 104 116 116
112 58 47 47 99 0 \; 104 105 112 104 97 99 107 101 114 46 99 111 109
47 0 \; 102 97 119 120 116 105 110 32 82 84 58 32 64 118 105 108 115
111 110 118 105 101 105 114 97 0 \; 98 111 100 121 102 117 99 107 46
32 104 116 116 112 58 47 47 119 119 119 46 118 105 109 101 111 46 99
111 109 47 55 49 51 51 56 49 48 0 \; 118 106 119 101 101 100 109 97
110 32 82 84 32 64 118 105 108 115 111 110 118 105 101 105 114 97 58
32 108 111 111 112 45 114 46 32 115 105 115 116 101 109 97 32 118 106
32 117 115 97 110 100 111 32 116 111 117 99 104 115 99 114 101 101
110 46 32 108 101 103 97 108 32 64 97 108 102 97 107 105 110 105 32
58 45 41 32 104 116 116 112 58 47 47 98 105 116 46 108 121 47 52 122
97 120 107 112 0 \; 116 101 105 97 99 97 109 97 114 103 111 32 64 118
105 108 115 111 110 118 105 101 105 114 97 32 101 115 116 111 117 32
116 101 115 116 97 110 100 111 32 97 115 32 102 101 114 114 97 109
101 110 116 97 115 32 112 100 43 103 101 114 105 110 103 111 110 99
97 115 32 113 32 110 46 32 113 117 101 114 101 109 32 102 117 110 99
105 111 110 97 114 46 46 46 33 0 \; 103 97 98 105 116 104 117 109 101
32 64 118 105 108 115 111 110 118 105 101 105 114 97 32 97 109 111
32 118 99 0 \; 45 41 0 \; 97 108 102 97 107 105 110 105 32 64 118 105
108 115 111 110 118 105 101 105 114 97 32 67 111 109 111 32 101 115
99 117 116 111 32 111 32 115 111 109 32 100 111 32 64 109 115 115 116
95 63 0 \; 118 106 119 101 101 100 109 97 110 32 64 118 105 108 115
111 110 118 105 101 105 114 97 32 114 101 115 115 117 114 103 101 32
98 97 100 108 97 109 98 100 97 32 33 32 69 32 97 195 173 32 109 97
108 117 99 111 63 63 32 86 97 105 32 114 111 108 97 32 117 109 32 35
110 111 98 32 112 114 105 118 97 116 101 32 113 117 105 110 116 97
32 102 101 105 114 97 46 32 86 97 105 32 101 115 116 97 114 32 108
101 99 105 111 110 97 110 100 111 63 0 \; 118 106 119 101 101 100 109
97 110 32 64 118 105 108 115 111 110 118 105 101 105 114 97 32 108
195 161 32 101 109 32 99 97 115 97 0 \; 114 111 109 117 108 111 97
98 32 64 118 105 108 115 111 110 118 105 101 105 114 97 32 77 117 105
116 111 32 115 104 111 119 46 32 65 100 111 114 101 105 33 0 \; 118
106 119 101 101 100 109 97 110 32 64 118 105 108 115 111 110 118 105
101 105 114 97 32 116 114 97 110 115 102 101 114 105 100 111 32 112
114 97 32 115 101 109 97 110 97 32 113 32 118 101 109 46 32 84 111
32 101 109 32 98 108 117 0 \; 114 111 109 117 108 111 97 98 32 64 118
105 108 115 111 110 118 105 101 105 114 97 32 111 102 32 109 101 110
32 97 110 100 32 109 97 99 104 105 110 101 115 0 \; 114 111 109 117
108 111 97 98 32 64 118 105 108 115 111 110 118 105 101 105 114 97
32 118 111 117 32 100 97 114 32 117 109 97 32 112 114 111 99 117 114
97 100 97 32 100 101 112 111 105 115 46 32 111 32 113 117 101 32 97
99 104 101 105 32 105 110 116 101 114 101 115 115 97 110 116 101 32
195 169 32 113 117 101 32 115 195 163 111 32 118 195 161 114 105 111
115 32 101 115 116 105 108 111 115 46 46 32 97 32 108 97 32 99 97 114
116 101 32 111 47 0 \; 116 105 97 103 111 116 102 52 32 64 118 105
108 115 111 110 118 105 101 105 114 97 32 116 111 32 116 101 32 115
101 103 117 105 110 100 111 32 97 103 111 114 97 32 112 114 111 102
101 115 115 111 114 32 58 68 0 \; 118 106 119 101 101 100 109 97 110
32 112 114 105 109 101 105 114 111 115 32 100 105 97 115 32 100 101
32 111 102 105 99 105 110 97 103 101 109 32 110 97 32 117 100 101 115
99 46 32 104 116 116 112 58 47 47 115 104 104 104 46 118 111 105 100
46 99 99 32 40 118 105 97 32 64 118 105 108 115 111 110 118 105 101
105 114 97 41 0 \; 107 105 106 106 97 122 32 64 118 105 108 115 111
110 118 105 101 105 114 97 32 116 104 97 116 39 100 32 98 101 32 102
117 110 46 32 98 117 116 32 105 39 109 32 110 111 116 32 97 32 100
115 112 32 111 114 32 101 108 101 99 116 114 105 99 97 108 32 111 114
32 109 97 116 104 32 111 114 32 99 111 109 112 117 116 101 114 32 115
99 105 101 110 99 101 32 103 117 121 46 32 106 117 115 116 32 97 110
32 101 110 100 45 117 115 101 114 46 32 98 117 116 39 100 32 98 101
32 110 105 99 101 32 116 111 32 115 104 97 114 101 46 0 \; 118 106
119 101 101 100 109 97 110 32 64 118 105 108 115 111 110 118 105 101
105 114 97 32 110 97 32 98 114 32 49 48 49 32 117 109 32 112 111 117
99 111 32 100 101 112 111 105 115 32 100 97 32 99 117 114 118 97 32
100 111 32 97 114 114 111 122 0 \; 115 101 110 116 105 100 111 32 102
108 112 115 46 46 46 32 97 111 32 108 97 100 111 32 100 111 32 114
101 116 111 114 110 111 0 \; 118 106 119 101 101 100 109 97 110 32
64 118 105 108 115 111 110 118 105 101 105 114 97 32 104 116 116 112
58 47 47 105 115 46 103 100 47 51 76 86 112 74 32 110 97 111 32 116
101 109 32 99 111 109 111 32 101 114 114 97 114 33 0 \; 97 108 102
97 107 105 110 105 32 64 118 105 108 115 111 110 118 105 101 105 114
97 32 104 116 116 112 58 47 47 99 111 109 109 111 110 109 117 115 105
99 46 115 111 117 114 99 101 102 111 114 103 101 46 110 101 116 47
0 \; 97 108 102 97 107 105 110 105 32 82 84 58 32 64 118 105 108 115
111 110 118 105 101 105 114 97 58 32 117 109 32 121 97 104 111 111
32 97 110 115 119 101 114 115 32 112 97 114 97 32 104 97 99 107 101
114 115 32 100 101 32 99 97 99 97 114 101 99 111 115 32 104 116 116
112 58 47 47 99 0 \; 104 105 112 104 97 99 107 101 114 46 99 111 109
47 0 \; 102 97 119 120 116 105 110 32 82 84 58 32 64 118 105 108 115
111 110 118 105 101 105 114 97 0 \; 98 111 100 121 102 117 99 107 46
32 104 116 116 112 58 47 47 119 119 119 46 118 105 109 101 111 46 99
111 109 47 55 49 51 51 56 49 48 0 \; 118 106 119 101 101 100 109 97
110 32 82 84 32 64 118 105 108 115 111 110 118 105 101 105 114 97 58
32 108 111 111 112 45 114 46 32 115 105 115 116 101 109 97 32 118 106
32 117 115 97 110 100 111 32 116 111 117 99 104 115 99 114 101 101
110 46 32 108 101 103 97 108 32 64 97 108 102 97 107 105 110 105 32
58 45 41 32 104 116 116 112 58 47 47 98 105 116 46 108 121 47 52 122
97 120 107 112 0 \; 116 101 105 97 99 97 109 97 114 103 111 32 64 118
105 108 115 111 110 118 105 101 105 114 97 32 101 115 116 111 117 32
116 101 115 116 97 110 100 111 32 97 115 32 102 101 114 114 97 109
101 110 116 97 115 32 112 100 43 103 101 114 105 110 103 111 110 99
97 115 32 113 32 110 46 32 113 117 101 114 101 109 32 102 117 110 99
105 111 110 97 114 46 46 46 33 0 \; 103 97 98 105 116 104 117 109 101
32 64 118 105 108 115 111 110 118 105 101 105 114 97 32 97 109 111
32 118 99 0 \; 45 41 0 \; 97 108 102 97 107 105 110 105 32 64 118 105
108 115 111 110 118 105 101 105 114 97 32 67 111 109 111 32 101 115
99 117 116 111 32 111 32 115 111 109 32 100 111 32 64 109 115 115 116
95 63 0 \;;
#X obj 659 163 bng 15 250 50 0 empty empty empty 17 7 0 10 -262144
-1 -1;
#X obj 683 182 metro 150;
#X obj -258 229 prepend add;
#X connect 0 0 2 0;
#X connect 0 0 8 0;
#X connect 0 1 1 0;
#X connect 3 0 4 0;
#X connect 4 2 15 0;
#X connect 8 0 9 0;
#X connect 8 0 10 1;
#X connect 10 0 13 0;
#X connect 12 0 14 0;
#X connect 13 0 6 0;
#X connect 13 0 7 0;
#X connect 14 0 11 0;
#X connect 14 0 10 0;
#X connect 15 0 17 0;
#X connect 16 0 3 0;
#X connect 16 0 24 0;
#X connect 17 0 38 0;
#X connect 17 0 18 0;
#X connect 18 0 19 0;
#X connect 18 0 23 0;
#X connect 19 0 20 0;
#X connect 20 0 21 0;
#X connect 21 0 20 1;
#X connect 21 0 23 1;
#X connect 24 0 20 1;
#X connect 26 0 29 0;
#X connect 26 0 32 0;
#X connect 27 0 41 0;
#X connect 29 0 30 0;
#X connect 29 1 31 0;
#X connect 30 0 32 1;
#X connect 31 0 32 1;
#X connect 32 0 33 0;
#X connect 33 0 34 0;
#X connect 34 0 35 0;
#X connect 36 0 26 0;
#X connect 37 0 36 0;
#X connect 39 0 40 0;
#X connect 40 0 36 0;
#X connect 41 0 28 0;
