#N canvas 198 68 863 597 12;
#X obj 126 529 output~;
#X obj 187 50 metro;
#X floatatom 230 -5 5 0 0 0 - - -;
#X obj 173 -10 tgl 15 0 empty empty empty 17 7 0 10 -262144 -1 -1 0
1;
#X obj 165 44 bng 15 250 50 0 empty empty empty 17 7 0 10 -262144 -1
-1;
#X msg 187 81 1;
#X obj 187 114 + 1;
#X obj 220 113 t f;
#X obj -50 204 sel 0 1 2 3 4 5 6 7;
#X obj 137 204 sel 0 1 2 3 4 5 6 7;
#N canvas 0 0 1006 461 sampler-simples 0;
#X obj 328 223 readsf~ 2;
#X msg 293 177 open \$1;
#X msg 197 141 start;
#X msg 464 142 stop;
#X obj 331 85 openpanel;
#X obj 342 142 symbol;
#X obj 463 101 sel 1 0;
#X obj 308 322 outlet~;
#X obj 392 322 outlet~;
#X obj 293 -37 inlet;
#X obj 364 -38 inlet;
#X obj 0 -1 cnv 15 150 150 empty empty empty 20 12 0 14 -4034 -258113
0;
#X obj 6 25 bng 15 250 50 0 empty empty abrir_sample 17 7 0 10 -203904
-4160 -258113;
#X obj 6 46 bng 15 250 50 0 empty empty play 17 7 0 10 -260097 -257985
-260097;
#X obj 6 66 tgl 15 0 empty empty toggle_play 17 7 0 10 -260097 -1 -1
0 1;
#X obj 509 264 prepend set;
#X msg 5 127 erasehead_140.wav;
#X obj 491 210 strippath;
#X text 3 106 nome do sampler;
#X obj 271 102 t b b;
#X connect 0 0 7 0;
#X connect 0 1 8 0;
#X connect 1 0 0 0;
#X connect 2 0 0 0;
#X connect 3 0 0 0;
#X connect 4 0 5 1;
#X connect 5 0 1 0;
#X connect 5 0 17 0;
#X connect 6 0 13 0;
#X connect 6 1 3 0;
#X connect 9 0 13 0;
#X connect 10 0 14 0;
#X connect 12 0 4 0;
#X connect 13 0 19 0;
#X connect 14 0 6 0;
#X connect 15 0 16 0;
#X connect 17 0 15 0;
#X connect 19 0 2 0;
#X connect 19 1 5 0;
#X coords 0 -1 1 1 150 150 1 0 0;
#X restore -52 312 pd sampler-simples;
#N canvas 0 0 1006 461 sampler-simples 0;
#X obj 328 223 readsf~ 2;
#X msg 293 177 open \$1;
#X msg 197 141 start;
#X msg 464 142 stop;
#X obj 331 85 openpanel;
#X obj 342 142 symbol;
#X obj 463 101 sel 1 0;
#X obj 308 322 outlet~;
#X obj 392 322 outlet~;
#X obj 293 -37 inlet;
#X obj 364 -38 inlet;
#X obj 0 -1 cnv 15 150 150 empty empty empty 20 12 0 14 -4034 -258113
0;
#X obj 6 25 bng 15 250 50 0 empty empty abrir_sample 17 7 0 10 -203904
-4160 -258113;
#X obj 6 46 bng 15 250 50 0 empty empty play 17 7 0 10 -260097 -257985
-260097;
#X obj 6 66 tgl 15 0 empty empty toggle_play 17 7 0 10 -260097 -1 -1
0 1;
#X obj 509 264 prepend set;
#X msg 5 127 erasehead_210.wav;
#X obj 491 210 strippath;
#X text 3 106 nome do sampler;
#X obj 271 102 t b b;
#X connect 0 0 7 0;
#X connect 0 1 8 0;
#X connect 1 0 0 0;
#X connect 2 0 0 0;
#X connect 3 0 0 0;
#X connect 4 0 5 1;
#X connect 5 0 1 0;
#X connect 5 0 17 0;
#X connect 6 0 13 0;
#X connect 6 1 3 0;
#X connect 9 0 13 0;
#X connect 10 0 14 0;
#X connect 12 0 4 0;
#X connect 13 0 19 0;
#X connect 14 0 6 0;
#X connect 15 0 16 0;
#X connect 17 0 15 0;
#X connect 19 0 2 0;
#X connect 19 1 5 0;
#X coords 0 -1 1 1 150 150 1 0 0;
#X restore 136 314 pd sampler-simples;
#X obj 297 204 sel 0 1 2 3 4 5 6 7;
#X obj 487 205 sel 0 1 2 3 4 5 6 7;
#N canvas 0 0 1006 461 sampler-simples 0;
#X obj 328 223 readsf~ 2;
#X msg 293 177 open \$1;
#X msg 197 141 start;
#X msg 464 142 stop;
#X obj 331 85 openpanel;
#X obj 342 142 symbol;
#X obj 463 101 sel 1 0;
#X obj 308 322 outlet~;
#X obj 392 322 outlet~;
#X obj 293 -37 inlet;
#X obj 364 -38 inlet;
#X obj 0 -1 cnv 15 150 150 empty empty empty 20 12 0 14 -4034 -258113
0;
#X obj 6 25 bng 15 250 50 0 empty empty abrir_sample 17 7 0 10 -203904
-4160 -258113;
#X obj 6 46 bng 15 250 50 0 empty empty play 17 7 0 10 -260097 -257985
-260097;
#X obj 6 66 tgl 15 0 empty empty toggle_play 17 7 0 10 -260097 -1 -1
0 1;
#X obj 509 264 prepend set;
#X msg 5 127 erasehead_560.wav;
#X obj 491 210 strippath;
#X text 3 106 nome do sampler;
#X obj 271 102 t b b;
#X connect 0 0 7 0;
#X connect 0 1 8 0;
#X connect 1 0 0 0;
#X connect 2 0 0 0;
#X connect 3 0 0 0;
#X connect 4 0 5 1;
#X connect 5 0 1 0;
#X connect 5 0 17 0;
#X connect 6 0 13 0;
#X connect 6 1 3 0;
#X connect 9 0 13 0;
#X connect 10 0 14 0;
#X connect 12 0 4 0;
#X connect 13 0 19 0;
#X connect 14 0 6 0;
#X connect 15 0 16 0;
#X connect 17 0 15 0;
#X connect 19 0 2 0;
#X connect 19 1 5 0;
#X coords 0 -1 1 1 150 150 1 0 0;
#X restore 298 313 pd sampler-simples;
#N canvas 0 0 1006 461 sampler-simples 0;
#X obj 328 223 readsf~ 2;
#X msg 293 177 open \$1;
#X msg 197 141 start;
#X msg 464 142 stop;
#X obj 331 85 openpanel;
#X obj 342 142 symbol;
#X obj 463 101 sel 1 0;
#X obj 308 322 outlet~;
#X obj 392 322 outlet~;
#X obj 293 -37 inlet;
#X obj 364 -38 inlet;
#X obj 0 -1 cnv 15 150 150 empty empty empty 20 12 0 14 -4034 -258113
0;
#X obj 6 25 bng 15 250 50 0 empty empty abrir_sample 17 7 0 10 -203904
-4160 -258113;
#X obj 6 46 bng 15 250 50 0 empty empty play 17 7 0 10 -260097 -257985
-260097;
#X obj 6 66 tgl 15 0 empty empty toggle_play 17 7 0 10 -260097 -1 -1
0 1;
#X obj 509 264 prepend set;
#X msg 5 127 erasehead_590.wav;
#X obj 491 210 strippath;
#X text 3 106 nome do sampler;
#X obj 271 102 t b b;
#X connect 0 0 7 0;
#X connect 0 1 8 0;
#X connect 1 0 0 0;
#X connect 2 0 0 0;
#X connect 3 0 0 0;
#X connect 4 0 5 1;
#X connect 5 0 1 0;
#X connect 5 0 17 0;
#X connect 6 0 13 0;
#X connect 6 1 3 0;
#X connect 9 0 13 0;
#X connect 10 0 14 0;
#X connect 12 0 4 0;
#X connect 13 0 19 0;
#X connect 14 0 6 0;
#X connect 15 0 16 0;
#X connect 17 0 15 0;
#X connect 19 0 2 0;
#X connect 19 1 5 0;
#X coords 0 -1 1 1 150 150 1 0 0;
#X restore 486 315 pd sampler-simples;
#X obj 645 202 sel 0 1 2 3 4 5 6 7;
#N canvas 0 0 1006 461 sampler-simples 0;
#X obj 328 223 readsf~ 2;
#X msg 293 177 open \$1;
#X msg 197 141 start;
#X msg 464 142 stop;
#X obj 331 85 openpanel;
#X obj 342 142 symbol;
#X obj 463 101 sel 1 0;
#X obj 308 322 outlet~;
#X obj 392 322 outlet~;
#X obj 293 -37 inlet;
#X obj 364 -38 inlet;
#X obj 0 -1 cnv 15 150 150 empty empty empty 20 12 0 14 -4034 -258113
0;
#X obj 6 25 bng 15 250 50 0 empty empty abrir_sample 17 7 0 10 -203904
-4160 -258113;
#X obj 6 46 bng 15 250 50 0 empty empty play 17 7 0 10 -260097 -257985
-260097;
#X obj 6 66 tgl 15 0 empty empty toggle_play 17 7 0 10 -260097 -1 -1
0 1;
#X obj 509 264 prepend set;
#X msg 5 127 erasehead_290.wav;
#X obj 491 210 strippath;
#X text 3 106 nome do sampler;
#X obj 271 102 t b b;
#X connect 0 0 7 0;
#X connect 0 1 8 0;
#X connect 1 0 0 0;
#X connect 2 0 0 0;
#X connect 3 0 0 0;
#X connect 4 0 5 1;
#X connect 5 0 1 0;
#X connect 5 0 17 0;
#X connect 6 0 13 0;
#X connect 6 1 3 0;
#X connect 9 0 13 0;
#X connect 10 0 14 0;
#X connect 12 0 4 0;
#X connect 13 0 19 0;
#X connect 14 0 6 0;
#X connect 15 0 16 0;
#X connect 17 0 15 0;
#X connect 19 0 2 0;
#X connect 19 1 5 0;
#X coords 0 -1 1 1 150 150 1 0 0;
#X restore 645 314 pd sampler-simples;
#X obj 187 140 mod 8;
#X msg 287 1 300;
#X connect 1 0 4 0;
#X connect 1 0 5 0;
#X connect 2 0 1 1;
#X connect 3 0 1 0;
#X connect 5 0 6 0;
#X connect 6 0 7 0;
#X connect 6 0 18 0;
#X connect 7 0 6 1;
#X connect 8 0 10 0;
#X connect 9 0 11 0;
#X connect 10 0 0 0;
#X connect 10 1 0 1;
#X connect 11 0 0 0;
#X connect 11 1 0 1;
#X connect 14 0 0 0;
#X connect 14 1 0 1;
#X connect 15 0 0 0;
#X connect 15 1 0 1;
#X connect 17 0 0 0;
#X connect 17 1 0 1;
#X connect 18 0 8 0;
#X connect 18 0 16 0;
#X connect 18 0 13 0;
#X connect 18 0 12 0;
#X connect 18 0 9 0;
#X connect 19 0 1 1;
