#N canvas 31 24 643 634 10;
#X obj 54 38 gemhead;
#X obj 121 59 openpanel;
#X obj 126 8 bng 15 250 50 0 empty empty empty 17 7 0 10 -262144 -1
-1;
#X msg 168 96 auto \$1;
#X obj 199 53 tgl 15 0 empty empty empty 17 7 0 10 -262144 -1 -1 0
1;
#X floatatom 240 101 5 0 0 0 - - -;
#X obj 50 228 square;
#X msg 200 192 create \, 1;
#X obj 237 247 gemwin;
#X msg 286 192 destroy;
#X msg 86 90 open \$1;
#X floatatom 87 190 5 0 0 0 - - -;
#X obj 212 151 pix_film;
#X obj 363 140 unpack f f f;
#X floatatom 397 166 5 0 0 0 - - -;
#X obj 497 398 pix_texture;
#X obj 519 325 unpack 0 0 0;
#X floatatom 418 240 5 0 10000 1 frame# - -;
#X obj 497 420 rectangle 4 3;
#X obj 497 289 pix_film;
#X floatatom 441 173 5 0 0 0 - - -;
#X obj 426 200 *;
#X obj 53 156 pix_movie;
#X connect 0 0 22 0;
#X connect 1 0 10 0;
#X connect 2 0 1 0;
#X connect 3 0 22 0;
#X connect 4 0 3 0;
#X connect 5 0 22 1;
#X connect 7 0 8 0;
#X connect 9 0 8 0;
#X connect 10 0 22 0;
#X connect 11 0 6 1;
#X connect 13 1 14 0;
#X connect 14 0 21 0;
#X connect 15 0 18 0;
#X connect 16 0 20 0;
#X connect 17 0 19 1;
#X connect 19 0 15 0;
#X connect 19 1 16 0;
#X connect 20 0 21 1;
#X connect 21 0 17 0;
#X connect 22 0 6 0;
