#N canvas 1 24 1252 691 12;
#X obj 61 21 adc~;
#X obj 55 152 writesf~ 2;
#X msg 124 82 start;
#X msg 135 107 stop;
#X obj 807 75 readsf~ 2;
#X obj 935 127 bng 20 250 50 0 empty empty empty 17 7 0 10 -86277 -257985
-1;
#X msg 889 46 start;
#X msg 920 81 stop;
#X obj 151 7 bng 15 250 50 0 empty empty empty 17 7 0 10 -262144 -1
-1;
#X obj 151 30 bng 15 250 50 0 empty empty empty 17 7 0 10 -262144 -1
-1;
#X obj 56 195 adc~;
#X obj 50 326 writesf~ 2;
#X msg 119 256 start;
#X msg 130 281 stop;
#X obj 141 183 bng 15 250 50 0 empty empty empty 17 7 0 10 -262144
-1 -1;
#X obj 141 207 bng 15 250 50 0 empty empty empty 17 7 0 10 -262144
-1 -1;
#X obj 810 248 readsf~ 2;
#X obj 938 300 bng 20 250 50 0 empty empty empty 17 7 0 10 -86277 -257985
-1;
#X msg 892 219 start;
#X msg 923 254 stop;
#X obj 1172 642 output~;
#X obj 1137 105 bng 15 250 50 0 empty empty empty 17 7 0 10 -262144
-1 -1;
#X obj 1211 186 tgl 30 0 empty empty T_O_C_A -75 0 1 16 -83269 -262144
-83269 0 1;
#X floatatom 1136 230 5 0 0 1 T_E_M_P_O - -;
#X obj 48 372 adc~;
#X obj 42 503 writesf~ 2;
#X msg 111 433 start;
#X msg 122 458 stop;
#X obj 138 357 bng 15 250 50 0 empty empty empty 17 7 0 10 -262144
-1 -1;
#X obj 137 384 bng 15 250 50 0 empty empty empty 17 7 0 10 -262144
-1 -1;
#X obj 818 418 readsf~ 2;
#X obj 946 470 bng 20 250 50 0 empty empty empty 17 7 0 10 -86277 -257985
-1;
#X msg 900 389 start;
#X msg 931 424 stop;
#X msg 95 402 open /tmp/s3.wav;
#X msg 805 361 open /tmp/s3.wav;
#X obj 45 541 adc~;
#X obj 39 672 writesf~ 2;
#X msg 108 602 start;
#X msg 119 627 stop;
#X obj 137 526 bng 15 250 50 0 empty empty empty 17 7 0 10 -262144
-1 -1;
#X obj 137 549 bng 15 250 50 0 empty empty empty 17 7 0 10 -262144
-1 -1;
#X obj 825 581 readsf~ 2;
#X obj 953 633 bng 20 250 50 0 empty empty empty 17 7 0 10 -86277 -257985
-1;
#X msg 907 552 start;
#X msg 938 587 stop;
#X msg 92 571 open /tmp/s4.wav;
#X msg 812 524 open /tmp/s4.wav;
#X msg 108 51 open /tmp/s1.wav;
#X msg 794 18 open /tmp/s1.wav;
#X msg 103 225 open /tmp/s2.wav;
#X msg 797 191 open /tmp/s2.wav;
#N canvas 0 0 450 300 (subpatch) 0;
#X array sample1 132288 float 2;
#X coords 0 1 132288 -1 200 140 1;
#X restore 553 38 graph;
#X obj 306 73 soundfiler;
#X msg 306 41 read -resize /tmp/s1.wav sample1;
#N canvas 0 0 450 300 (subpatch) 0;
#X array sample2 132288 float 2;
#X coords 0 1 132288 -1 200 140 1;
#X restore 552 203 graph;
#X obj 303 236 soundfiler;
#X msg 303 204 read -resize /tmp/s2.wav sample2;
#X obj 298 408 soundfiler;
#X obj 294 576 soundfiler;
#X msg 298 376 read -resize /tmp/s3.wav sample3;
#X msg 294 544 read -resize /tmp/s4.wav sample4;
#N canvas 0 0 450 300 (subpatch) 0;
#X array sample3 132288 float 2;
#X coords 0 1 132288 -1 200 140 1;
#X restore 549 370 graph;
#N canvas 0 0 450 300 (subpatch) 0;
#X array sample4 132288 float 2;
#X coords 0 1 132288 -1 200 140 1;
#X restore 547 539 graph;
#X text 174 5 <- GRAVAR;
#X text 172 27 <- PARAR DE GRAVAR;
#X text 164 179 <- GRAVAR;
#X text 162 201 <- PARAR DE GRAVAR;
#X text 159 354 <- GRAVAR;
#X text 157 376 <- PARAR DE GRAVAR;
#X text 158 522 <- GRAVAR;
#X text 156 544 <- PARAR DE GRAVAR;
#X obj 400 123 bng 60 250 50 0 empty empty G_R_A_V_A 2 30 0 10 -260097
-262144 -262144;
#X obj 228 119 delay \$2;
#X obj 261 293 delay \$2;
#X obj 407 460 bng 60 250 50 0 empty empty G_R_A_V_A 2 30 0 10 -4160
-262144 -262144;
#X obj 240 448 delay \$2;
#X obj 395 626 bng 60 250 50 0 empty empty G_R_A_V_A 2 30 0 10 -258113
-262144 -262144;
#X obj 228 614 delay \$2;
#X obj 402 290 bng 60 250 50 0 empty empty G_R_A_V_A 2 30 0 10 -257985
-262144 -262144;
#X obj 1137 67 metro;
#X msg 1134 287 3000;
#X connect 0 0 1 0;
#X connect 0 1 1 1;
#X connect 2 0 1 0;
#X connect 3 0 1 0;
#X connect 4 0 20 0;
#X connect 4 1 20 1;
#X connect 5 0 49 0;
#X connect 5 0 6 0;
#X connect 5 0 54 0;
#X connect 6 0 4 0;
#X connect 7 0 4 0;
#X connect 8 0 48 0;
#X connect 8 0 2 0;
#X connect 9 0 3 0;
#X connect 10 0 11 0;
#X connect 10 1 11 1;
#X connect 12 0 11 0;
#X connect 13 0 11 0;
#X connect 14 0 50 0;
#X connect 14 0 12 0;
#X connect 15 0 13 0;
#X connect 16 0 20 0;
#X connect 16 1 20 1;
#X connect 17 0 51 0;
#X connect 17 0 18 0;
#X connect 17 0 57 0;
#X connect 18 0 16 0;
#X connect 19 0 16 0;
#X connect 21 0 5 0;
#X connect 21 0 17 0;
#X connect 21 0 31 0;
#X connect 21 0 43 0;
#X connect 22 0 80 0;
#X connect 23 0 73 1;
#X connect 23 0 74 1;
#X connect 23 0 80 1;
#X connect 23 0 76 1;
#X connect 23 0 78 1;
#X connect 24 0 25 0;
#X connect 24 1 25 1;
#X connect 26 0 25 0;
#X connect 27 0 25 0;
#X connect 28 0 34 0;
#X connect 28 0 26 0;
#X connect 29 0 27 0;
#X connect 30 0 20 0;
#X connect 30 1 20 1;
#X connect 31 0 35 0;
#X connect 31 0 32 0;
#X connect 31 0 60 0;
#X connect 32 0 30 0;
#X connect 33 0 30 0;
#X connect 34 0 25 0;
#X connect 35 0 30 0;
#X connect 36 0 37 0;
#X connect 36 1 37 1;
#X connect 38 0 37 0;
#X connect 39 0 37 0;
#X connect 40 0 46 0;
#X connect 40 0 38 0;
#X connect 41 0 39 0;
#X connect 42 0 20 0;
#X connect 42 1 20 1;
#X connect 43 0 47 0;
#X connect 43 0 44 0;
#X connect 43 0 61 0;
#X connect 44 0 42 0;
#X connect 45 0 42 0;
#X connect 46 0 37 0;
#X connect 47 0 42 0;
#X connect 48 0 1 0;
#X connect 49 0 4 0;
#X connect 50 0 11 0;
#X connect 51 0 16 0;
#X connect 54 0 53 0;
#X connect 57 0 56 0;
#X connect 60 0 58 0;
#X connect 61 0 59 0;
#X connect 72 0 73 0;
#X connect 72 0 8 0;
#X connect 73 0 9 0;
#X connect 74 0 15 0;
#X connect 75 0 76 0;
#X connect 75 0 28 0;
#X connect 76 0 29 0;
#X connect 77 0 78 0;
#X connect 77 0 40 0;
#X connect 78 0 41 0;
#X connect 79 0 14 0;
#X connect 79 0 74 0;
#X connect 80 0 21 0;
#X connect 81 0 80 1;
#X connect 81 0 73 1;
#X connect 81 0 74 1;
#X connect 81 0 76 1;
#X connect 81 0 78 1;
#X coords 0 0 1 1 85 60 0;
