#N canvas 0 0 622 402 10;
#X obj 338 233 readsf~ 2;
#X msg 303 187 open \$1;
#X msg 207 151 start;
#X msg 474 152 stop;
#X obj 341 95 openpanel;
#X obj 352 152 symbol;
#X obj 473 111 sel 1 0;
#X obj 318 332 outlet~;
#X obj 402 332 outlet~;
#X obj 303 -27 inlet;
#X obj 374 -28 inlet;
#X obj 10 9 cnv 15 150 150 empty empty empty 20 12 0 14 -4034 -258113
0;
#X obj 16 35 bng 15 250 50 0 empty empty abrir_sample 17 7 0 10 -203904
-4160 -258113;
#X obj 16 56 bng 15 250 50 0 empty empty play 17 7 0 10 -260097 -257985
-260097;
#X obj 16 76 tgl 15 0 empty empty toggle_play 17 7 0 10 -260097 -1
-1 0 1;
#X obj 519 274 prepend set;
#X msg 15 137 erasehead_140.wav;
#X obj 501 220 strippath;
#X text 13 116 nome do sampler;
#X obj 281 112 t b b;
#X connect 0 0 7 0;
#X connect 0 1 8 0;
#X connect 1 0 0 0;
#X connect 2 0 0 0;
#X connect 3 0 0 0;
#X connect 4 0 5 1;
#X connect 5 0 1 0;
#X connect 5 0 17 0;
#X connect 6 0 13 0;
#X connect 6 1 3 0;
#X connect 9 0 13 0;
#X connect 10 0 14 0;
#X connect 12 0 4 0;
#X connect 13 0 19 0;
#X connect 14 0 6 0;
#X connect 15 0 16 0;
#X connect 17 0 15 0;
#X connect 19 0 2 0;
#X connect 19 1 5 0;
#X coords 0 -1 1 1 150 158 1 10 5;
