#N canvas 0 25 1274 691 10;
#X obj 3 23 cnv 15 224 224 empty empty empty 4 10 0 14 -262130 -66577
0;
#X obj 77 99 tgl 30 0 empty empty empty 17 7 0 10 -4034 -83269 -1 0
1;
#X obj 113 99 tgl 30 0 empty empty empty 17 7 0 10 -4034 -83269 -1
0 1;
#X obj 150 99 tgl 30 0 empty empty empty 17 7 0 10 -4034 -83269 -1
0 1;
#X obj 186 99 tgl 30 0 empty empty empty 17 7 0 10 -4034 -83269 -1
0 1;
#X obj 77 135 tgl 30 0 empty empty empty 17 7 0 10 -4034 -83269 -1
0 1;
#X obj 113 135 tgl 30 0 empty empty empty 17 7 0 10 -4034 -83269 -1
0 1;
#X obj 150 135 tgl 30 0 empty empty empty 17 7 0 10 -4034 -83269 -1
0 1;
#X obj 186 135 tgl 30 0 empty empty empty 17 7 0 10 -4034 -83269 -1
0 1;
#X obj 77 171 tgl 30 0 empty empty empty 17 7 0 10 -4034 -83269 -1
0 1;
#X obj 113 171 tgl 30 0 empty empty empty 17 7 0 10 -4034 -83269 -1
0 1;
#X obj 150 171 tgl 30 0 empty empty empty 17 7 0 10 -4034 -83269 -1
0 1;
#X obj 186 171 tgl 30 0 empty empty empty 17 7 0 10 -4034 -83269 -1
0 1;
#X obj 77 208 tgl 30 0 empty empty empty 17 7 0 10 -4034 -83269 -1
0 1;
#X obj 113 208 tgl 30 0 empty empty empty 17 7 0 10 -4034 -83269 -1
0 1;
#X obj 150 208 tgl 30 0 empty empty empty 17 7 0 10 -4034 -83269 -1
0 1;
#X obj 186 208 tgl 30 0 empty empty empty 17 7 0 10 -4034 -83269 -1
0 1;
#X obj 77 63 bng 30 250 50 0 empty empty empty 17 7 0 10 -260097 -257985
-1;
#X obj 114 63 bng 30 250 50 0 empty empty empty 17 7 0 10 -260097 -257985
-1;
#X obj 150 63 bng 30 250 50 0 empty empty empty 17 7 0 10 -260097 -257985
-1;
#X obj 186 63 bng 30 250 50 0 empty empty empty 17 7 0 10 -260097 -257985
-1;
#X obj 9 45 tgl 15 0 empty empty empty 17 7 0 10 -262144 -1 -1 0 1
;
#X obj 912 140 i;
#X obj 940 139 + 1;
#X obj 911 164 mod 4;
#X obj 912 188 sel 0 1 2 3;
#X obj 651 363 phasor~;
#X obj 652 419 *~;
#X obj 711 369 vline~;
#X msg 710 346 1 \, 0 200;
#X obj 652 443 *~;
#X obj 584 297 i;
#X obj 610 297 i;
#X obj 636 297 i;
#X obj 661 297 i;
#X obj 829 362 phasor~;
#X obj 829 339 mtof;
#X obj 830 418 *~;
#X obj 889 368 vline~;
#X msg 888 345 1 \, 0 200;
#X obj 830 442 *~;
#X obj 762 296 i;
#X obj 788 296 i;
#X obj 814 296 i;
#X obj 839 296 i;
#X obj 639 541 phasor~;
#X obj 639 518 mtof;
#X obj 640 597 *~;
#X obj 699 547 vline~;
#X msg 698 524 1 \, 0 200;
#X obj 640 621 *~;
#X obj 572 475 i;
#X obj 598 475 i;
#X obj 624 475 i;
#X obj 649 475 i;
#X obj 835 551 phasor~;
#X obj 835 528 mtof;
#X obj 836 607 *~;
#X obj 895 557 vline~;
#X msg 894 534 1 \, 0 200;
#X obj 836 631 *~;
#X obj 768 485 i;
#X obj 794 485 i;
#X obj 820 485 i;
#X obj 845 485 i;
#X obj 27 99 nbx 3 30 0 127 0 0 empty empty empty 0 -8 0 10 -260097
-1 -1 0 256;
#X obj 27 135 nbx 3 30 0 127 0 0 empty empty empty 0 -8 0 10 -260097
-1 -1 0 256;
#X obj 27 170 nbx 3 30 0 127 0 0 empty empty empty 0 -8 0 10 -260097
-1 -1 0 256;
#X obj 27 207 nbx 3 30 0 127 0 0 empty empty empty 0 -8 0 10 -260097
-1 -1 0 256;
#X obj 651 340 mtof;
#X obj 721 668 outlet~;
#X obj 9 65 nbx 3 15 -1e+37 1e+37 0 0 empty empty empty 0 -8 0 10 -262144
-1 -1 0 256;
#X obj 898 102 metro;
#X obj 375 21 inlet;
#X obj 421 20 inlet;
#X obj 469 22 inlet;
#X obj 515 24 inlet;
#X obj 812 57 expr 60 / $f1 * 1000;
#X obj 9 339 ctlin 105;
#X obj 9 361 sel 0 127;
#X msg 9 385 1;
#X msg 40 385 0;
#X obj 72 360 sel 0 127;
#X msg 72 384 1;
#X msg 103 384 0;
#X obj 72 338 ctlin 106;
#X obj 134 360 sel 0 127;
#X msg 134 384 1;
#X msg 165 384 0;
#X obj 197 359 sel 0 127;
#X msg 197 383 1;
#X msg 228 383 0;
#X obj 134 338 ctlin 107;
#X obj 197 337 ctlin 108;
#X obj 10 435 sel 0 127;
#X msg 10 459 1;
#X msg 41 459 0;
#X obj 73 434 sel 0 127;
#X msg 73 458 1;
#X msg 104 458 0;
#X obj 135 434 sel 0 127;
#X msg 135 458 1;
#X msg 166 458 0;
#X obj 198 433 sel 0 127;
#X msg 198 457 1;
#X msg 229 457 0;
#X obj 7 507 sel 0 127;
#X msg 7 531 1;
#X msg 38 531 0;
#X obj 70 506 sel 0 127;
#X msg 70 530 1;
#X msg 101 530 0;
#X obj 132 506 sel 0 127;
#X msg 132 530 1;
#X msg 163 530 0;
#X obj 195 505 sel 0 127;
#X msg 195 529 1;
#X msg 226 529 0;
#X obj 9 579 sel 0 127;
#X msg 9 603 1;
#X msg 40 603 0;
#X obj 72 578 sel 0 127;
#X msg 72 602 1;
#X msg 103 602 0;
#X obj 134 578 sel 0 127;
#X msg 134 602 1;
#X msg 165 602 0;
#X obj 197 577 sel 0 127;
#X msg 197 601 1;
#X msg 228 601 0;
#X obj 10 413 ctlin 109;
#X obj 73 412 ctlin 110;
#X obj 135 412 ctlin 111;
#X obj 198 411 ctlin 112;
#X obj 6 485 ctlin 113;
#X obj 70 484 ctlin 114;
#X obj 132 484 ctlin 115;
#X obj 195 483 ctlin 116;
#X obj 9 557 ctlin 117;
#X obj 72 556 ctlin 118;
#X obj 134 556 ctlin 119;
#X obj 197 555 ctlin 120;
#X connect 1 0 31 0;
#X connect 2 0 32 0;
#X connect 3 0 33 0;
#X connect 4 0 34 0;
#X connect 5 0 41 0;
#X connect 6 0 42 0;
#X connect 7 0 43 0;
#X connect 8 0 44 0;
#X connect 9 0 51 0;
#X connect 10 0 52 0;
#X connect 11 0 53 0;
#X connect 12 0 54 0;
#X connect 13 0 61 0;
#X connect 14 0 62 0;
#X connect 15 0 63 0;
#X connect 16 0 64 0;
#X connect 17 0 31 0;
#X connect 17 0 29 0;
#X connect 17 0 51 0;
#X connect 17 0 41 0;
#X connect 17 0 61 0;
#X connect 17 0 39 0;
#X connect 17 0 49 0;
#X connect 17 0 59 0;
#X connect 18 0 29 0;
#X connect 18 0 32 0;
#X connect 18 0 52 0;
#X connect 18 0 42 0;
#X connect 18 0 62 0;
#X connect 18 0 39 0;
#X connect 18 0 49 0;
#X connect 18 0 59 0;
#X connect 19 0 29 0;
#X connect 19 0 33 0;
#X connect 19 0 53 0;
#X connect 19 0 43 0;
#X connect 19 0 63 0;
#X connect 19 0 39 0;
#X connect 19 0 49 0;
#X connect 19 0 59 0;
#X connect 20 0 29 0;
#X connect 20 0 34 0;
#X connect 20 0 54 0;
#X connect 20 0 64 0;
#X connect 20 0 44 0;
#X connect 20 0 39 0;
#X connect 20 0 49 0;
#X connect 20 0 59 0;
#X connect 21 0 72 0;
#X connect 22 0 23 0;
#X connect 22 0 24 0;
#X connect 23 0 22 1;
#X connect 24 0 25 0;
#X connect 25 0 17 0;
#X connect 25 1 18 0;
#X connect 25 2 19 0;
#X connect 25 3 20 0;
#X connect 26 0 27 0;
#X connect 27 0 30 0;
#X connect 28 0 27 1;
#X connect 29 0 28 0;
#X connect 30 0 70 0;
#X connect 31 0 30 1;
#X connect 32 0 30 1;
#X connect 33 0 30 1;
#X connect 34 0 30 1;
#X connect 35 0 37 0;
#X connect 36 0 35 0;
#X connect 37 0 40 0;
#X connect 38 0 37 1;
#X connect 39 0 38 0;
#X connect 40 0 70 0;
#X connect 41 0 40 1;
#X connect 42 0 40 1;
#X connect 43 0 40 1;
#X connect 44 0 40 1;
#X connect 45 0 47 0;
#X connect 46 0 45 0;
#X connect 47 0 50 0;
#X connect 48 0 47 1;
#X connect 49 0 48 0;
#X connect 50 0 70 0;
#X connect 51 0 50 1;
#X connect 52 0 50 1;
#X connect 53 0 50 1;
#X connect 54 0 50 1;
#X connect 55 0 57 0;
#X connect 56 0 55 0;
#X connect 57 0 60 0;
#X connect 58 0 57 1;
#X connect 59 0 58 0;
#X connect 60 0 70 0;
#X connect 61 0 60 1;
#X connect 62 0 60 1;
#X connect 63 0 60 1;
#X connect 64 0 60 1;
#X connect 65 0 69 0;
#X connect 66 0 36 0;
#X connect 67 0 46 0;
#X connect 68 0 56 0;
#X connect 69 0 26 0;
#X connect 71 0 77 0;
#X connect 72 0 22 0;
#X connect 73 0 65 0;
#X connect 74 0 66 0;
#X connect 75 0 67 0;
#X connect 76 0 68 0;
#X connect 77 0 72 1;
#X connect 78 0 79 0;
#X connect 79 0 80 0;
#X connect 79 1 81 0;
#X connect 80 0 1 0;
#X connect 81 0 1 0;
#X connect 82 0 83 0;
#X connect 82 1 84 0;
#X connect 83 0 2 0;
#X connect 84 0 2 0;
#X connect 85 0 82 0;
#X connect 86 0 87 0;
#X connect 86 1 88 0;
#X connect 87 0 3 0;
#X connect 88 0 3 0;
#X connect 89 0 90 0;
#X connect 89 1 91 0;
#X connect 90 0 4 0;
#X connect 91 0 4 0;
#X connect 92 0 86 0;
#X connect 93 0 89 0;
#X connect 94 0 95 0;
#X connect 94 1 96 0;
#X connect 95 0 5 0;
#X connect 96 0 5 0;
#X connect 97 0 98 0;
#X connect 97 1 99 0;
#X connect 98 0 6 0;
#X connect 99 0 6 0;
#X connect 100 0 101 0;
#X connect 100 1 102 0;
#X connect 101 0 7 0;
#X connect 102 0 7 0;
#X connect 103 0 104 0;
#X connect 103 1 105 0;
#X connect 104 0 8 0;
#X connect 105 0 8 0;
#X connect 106 0 107 0;
#X connect 106 1 108 0;
#X connect 107 0 9 0;
#X connect 108 0 9 0;
#X connect 109 0 110 0;
#X connect 109 1 111 0;
#X connect 110 0 10 0;
#X connect 111 0 10 0;
#X connect 112 0 113 0;
#X connect 112 1 114 0;
#X connect 113 0 11 0;
#X connect 114 0 11 0;
#X connect 115 0 116 0;
#X connect 115 1 117 0;
#X connect 116 0 12 0;
#X connect 117 0 12 0;
#X connect 118 0 119 0;
#X connect 118 1 120 0;
#X connect 119 0 13 0;
#X connect 120 0 13 0;
#X connect 121 0 122 0;
#X connect 121 1 123 0;
#X connect 122 0 14 0;
#X connect 123 0 14 0;
#X connect 124 0 125 0;
#X connect 124 1 126 0;
#X connect 125 0 15 0;
#X connect 126 0 15 0;
#X connect 127 0 128 0;
#X connect 127 1 129 0;
#X connect 128 0 16 0;
#X connect 129 0 16 0;
#X connect 130 0 94 0;
#X connect 131 0 97 0;
#X connect 132 0 100 0;
#X connect 133 0 103 0;
#X connect 134 0 106 0;
#X connect 135 0 109 0;
#X connect 136 0 112 0;
#X connect 137 0 115 0;
#X connect 138 0 118 0;
#X connect 139 0 121 0;
#X connect 140 0 124 0;
#X connect 141 0 127 0;
#X coords 0 -1 1 1 230 230 1 0 20;
