#N canvas 0 24 1251 672 10;
#X obj 18 179 hradio 30 1 0 8 empty empty empty 0 -8 0 10 -16662 -262144
-1 2;
#X obj 18 72 metro;
#X floatatom 88 27 5 0 0 0 tempo - -;
#X obj 18 16 tgl 15 0 empty empty empty 17 7 0 10 -262144 -1 -1 1 1
;
#X obj 18 107 f;
#X obj 57 108 + 1;
#X obj 18 143 mod 8;
#X obj 17 224 sel 0 1 2 3 4 5 6 7;
#X obj 18 427 f;
#X obj 33 282 vsl 15 128 0 100 0 0 empty empty empty 0 -9 0 10 -257985
-1 -1 8890 0;
#X obj 18 480 bng 15 250 50 0 empty empty empty 17 7 0 10 -262144 -1
-1;
#X obj 18 455 moses 50;
#X obj 77 427 f;
#X obj 92 282 vsl 15 128 0 100 0 0 empty empty empty 0 -9 0 10 -257985
-1 -1 508 1;
#X obj 77 480 bng 15 250 50 0 empty empty empty 17 7 0 10 -262144 -1
-1;
#X obj 77 455 moses 50;
#X obj 136 427 f;
#X obj 151 282 vsl 15 128 0 100 0 0 empty empty empty 0 -9 0 10 -257985
-1 -1 4699 1;
#X obj 136 480 bng 15 250 50 0 empty empty empty 17 7 0 10 -262144
-1 -1;
#X obj 136 455 moses 50;
#X obj 193 427 f;
#X obj 208 282 vsl 15 128 0 100 0 0 empty empty empty 0 -9 0 10 -257985
-1 -1 6985 1;
#X obj 193 480 bng 15 250 50 0 empty empty empty 17 7 0 10 -262144
-1 -1;
#X obj 193 455 moses 50;
#X obj 249 427 f;
#X obj 264 282 vsl 15 128 0 100 0 0 empty empty empty 0 -9 0 10 -257985
-1 -1 8509 1;
#X obj 249 480 bng 15 250 50 0 empty empty empty 17 7 0 10 -262144
-1 -1;
#X obj 249 455 moses 50;
#X obj 308 427 f;
#X obj 323 282 vsl 15 128 0 100 0 0 empty empty empty 0 -9 0 10 -257985
-1 -1 7620 1;
#X obj 308 480 bng 15 250 50 0 empty empty empty 17 7 0 10 -262144
-1 -1;
#X obj 308 455 moses 50;
#X obj 367 427 f;
#X obj 382 282 vsl 15 128 0 100 0 0 empty empty empty 0 -9 0 10 -257985
-1 -1 1778 1;
#X obj 367 480 bng 15 250 50 0 empty empty empty 17 7 0 10 -262144
-1 -1;
#X obj 367 455 moses 50;
#X obj 424 427 f;
#X obj 439 282 vsl 15 128 0 100 0 0 empty empty empty 0 -9 0 10 -257985
-1 -1 11176 1;
#X obj 424 480 bng 15 250 50 0 empty empty empty 17 7 0 10 -262144
-1 -1;
#X obj 424 455 moses 50;
#X text 215 260 sequencers (< 50 enables. > 50 disables);
#X obj 183 525 perk-bassdrum;
#X obj 499 941 dac~;
#X obj 500 224 sel 0 1 2 3 4 5 6 7;
#X obj 501 427 f;
#X obj 516 282 vsl 15 128 0 100 0 0 empty empty empty 0 -9 0 10 -257985
-1 -1 9525 0;
#X obj 501 480 bng 15 250 50 0 empty empty empty 17 7 0 10 -262144
-1 -1;
#X obj 501 455 moses 50;
#X obj 560 427 f;
#X obj 575 282 vsl 15 128 0 100 0 0 empty empty empty 0 -9 0 10 -257985
-1 -1 11430 1;
#X obj 560 480 bng 15 250 50 0 empty empty empty 17 7 0 10 -262144
-1 -1;
#X obj 560 455 moses 50;
#X obj 619 427 f;
#X obj 634 282 vsl 15 128 0 100 0 0 empty empty empty 0 -9 0 10 -257985
-1 -1 1524 1;
#X obj 619 480 bng 15 250 50 0 empty empty empty 17 7 0 10 -262144
-1 -1;
#X obj 619 455 moses 50;
#X obj 676 427 f;
#X obj 691 282 vsl 15 128 0 100 0 0 empty empty empty 0 -9 0 10 -257985
-1 -1 9271 1;
#X obj 676 480 bng 15 250 50 0 empty empty empty 17 7 0 10 -262144
-1 -1;
#X obj 676 455 moses 50;
#X obj 732 427 f;
#X obj 747 282 vsl 15 128 0 100 0 0 empty empty empty 0 -9 0 10 -257985
-1 -1 11303 1;
#X obj 732 480 bng 15 250 50 0 empty empty empty 17 7 0 10 -262144
-1 -1;
#X obj 732 455 moses 50;
#X obj 791 427 f;
#X obj 806 282 vsl 15 128 0 100 0 0 empty empty empty 0 -9 0 10 -257985
-1 -1 12192 1;
#X obj 791 480 bng 15 250 50 0 empty empty empty 17 7 0 10 -262144
-1 -1;
#X obj 791 455 moses 50;
#X obj 850 427 f;
#X obj 865 282 vsl 15 128 0 100 0 0 empty empty empty 0 -9 0 10 -257985
-1 -1 12446 1;
#X obj 850 480 bng 15 250 50 0 empty empty empty 17 7 0 10 -262144
-1 -1;
#X obj 850 455 moses 50;
#X obj 907 427 f;
#X obj 922 282 vsl 15 128 0 100 0 0 empty empty empty 0 -9 0 10 -257985
-1 -1 889 1;
#X obj 907 480 bng 15 250 50 0 empty empty empty 17 7 0 10 -262144
-1 -1;
#X obj 907 455 moses 50;
#X text 698 260 sequencers (< 50 enables. > 50 disables);
#X obj 517 145 random 100;
#X obj 593 145 random 100;
#X obj 664 144 random 100;
#X obj 738 143 random 100;
#X obj 811 142 random 100;
#X obj 886 143 random 100;
#X obj 958 142 random 100;
#X obj 1027 141 random 100;
#X floatatom 555 72 5 0 0 0 - - -;
#X floatatom 623 72 5 0 0 0 - - -;
#X floatatom 693 73 5 0 0 0 - - -;
#X floatatom 772 70 5 0 0 0 - - -;
#X floatatom 837 70 5 0 0 0 - - -;
#X floatatom 913 70 5 0 0 0 - - -;
#X floatatom 990 69 5 0 0 0 - - -;
#X floatatom 1063 69 5 0 0 0 - - -;
#X obj 660 521 perk-hihat;
#X obj 285 655 mono-pitchshifter;
#X obj 287 843 st-pureverb4;
#X obj 283 739 st-flanger;
#X obj 663 832 st-pureverb4;
#X obj 659 728 st-flanger;
#X msg 977 722 0 \$1;
#X obj 1008 651 / 100;
#X floatatom 1035 691 5 0 0 0 - - -;
#X msg 1035 777 2 \$1;
#X obj 1088 652 / 100;
#X floatatom 1115 692 5 0 0 0 - - -;
#X obj 1063 417 f;
#X obj 1078 272 vsl 15 128 0 100 0 0 empty empty empty 0 -9 0 10 -257985
-1 -1 0 0;
#X obj 1063 470 bng 15 250 50 0 empty empty empty 17 7 0 10 -262144
-1 -1;
#X obj 1063 445 moses 50;
#X obj 1122 417 f;
#X obj 1137 272 vsl 15 128 0 100 0 0 empty empty empty 0 -9 0 10 -257985
-1 -1 12700 1;
#X obj 1122 470 bng 15 250 50 0 empty empty empty 17 7 0 10 -262144
-1 -1;
#X obj 1122 445 moses 50;
#X obj 1181 417 f;
#X obj 1196 272 vsl 15 128 0 100 0 0 empty empty empty 0 -9 0 10 -257985
-1 -1 0 1;
#X obj 1181 470 bng 15 250 50 0 empty empty empty 17 7 0 10 -262144
-1 -1;
#X obj 1181 445 moses 50;
#X obj 1238 417 f;
#X obj 1253 272 vsl 15 128 0 100 0 0 empty empty empty 0 -9 0 10 -257985
-1 -1 12700 1;
#X obj 1238 470 bng 15 250 50 0 empty empty empty 17 7 0 10 -262144
-1 -1;
#X obj 1238 445 moses 50;
#X obj 1294 417 f;
#X obj 1309 272 vsl 15 128 0 100 0 0 empty empty empty 0 -9 0 10 -257985
-1 -1 0 1;
#X obj 1294 470 bng 15 250 50 0 empty empty empty 17 7 0 10 -262144
-1 -1;
#X obj 1294 445 moses 50;
#X obj 1353 417 f;
#X obj 1368 272 vsl 15 128 0 100 0 0 empty empty empty 0 -9 0 10 -257985
-1 -1 0 1;
#X obj 1353 470 bng 15 250 50 0 empty empty empty 17 7 0 10 -262144
-1 -1;
#X obj 1353 445 moses 50;
#X obj 1412 417 f;
#X obj 1427 272 vsl 15 128 0 100 0 0 empty empty empty 0 -9 0 10 -257985
-1 -1 12700 1;
#X obj 1412 470 bng 15 250 50 0 empty empty empty 17 7 0 10 -262144
-1 -1;
#X obj 1412 445 moses 50;
#X obj 1469 417 f;
#X obj 1484 272 vsl 15 128 0 100 0 0 empty empty empty 0 -9 0 10 -257985
-1 -1 0 1;
#X obj 1469 470 bng 15 250 50 0 empty empty empty 17 7 0 10 -262144
-1 -1;
#X obj 1469 445 moses 50;
#X text 1260 250 sequencers (< 50 enables. > 50 disables);
#X obj 1059 224 sel 0 1 2 3 4 5 6 7;
#X obj 1557 417 f;
#X obj 1572 272 vsl 15 128 0 100 0 0 empty empty empty 0 -9 0 10 -257985
-1 -1 0 0;
#X obj 1557 470 bng 15 250 50 0 empty empty empty 17 7 0 10 -262144
-1 -1;
#X obj 1557 445 moses 50;
#X obj 1616 417 f;
#X obj 1631 272 vsl 15 128 0 100 0 0 empty empty empty 0 -9 0 10 -257985
-1 -1 0 1;
#X obj 1616 470 bng 15 250 50 0 empty empty empty 17 7 0 10 -262144
-1 -1;
#X obj 1616 445 moses 50;
#X obj 1675 417 f;
#X obj 1690 272 vsl 15 128 0 100 0 0 empty empty empty 0 -9 0 10 -257985
-1 -1 11500 1;
#X obj 1675 470 bng 15 250 50 0 empty empty empty 17 7 0 10 -262144
-1 -1;
#X obj 1675 445 moses 50;
#X obj 1732 417 f;
#X obj 1747 272 vsl 15 128 0 100 0 0 empty empty empty 0 -9 0 10 -257985
-1 -1 0 1;
#X obj 1732 470 bng 15 250 50 0 empty empty empty 17 7 0 10 -262144
-1 -1;
#X obj 1732 445 moses 50;
#X obj 1788 417 f;
#X obj 1803 272 vsl 15 128 0 100 0 0 empty empty empty 0 -9 0 10 -257985
-1 -1 12700 1;
#X obj 1788 470 bng 15 250 50 0 empty empty empty 17 7 0 10 -262144
-1 -1;
#X obj 1788 445 moses 50;
#X obj 1847 417 f;
#X obj 1862 272 vsl 15 128 0 100 0 0 empty empty empty 0 -9 0 10 -257985
-1 -1 0 1;
#X obj 1847 470 bng 15 250 50 0 empty empty empty 17 7 0 10 -262144
-1 -1;
#X obj 1847 445 moses 50;
#X obj 1906 417 f;
#X obj 1921 272 vsl 15 128 0 100 0 0 empty empty empty 0 -9 0 10 -257985
-1 -1 12700 1;
#X obj 1906 470 bng 15 250 50 0 empty empty empty 17 7 0 10 -262144
-1 -1;
#X obj 1906 445 moses 50;
#X obj 1963 417 f;
#X obj 1978 272 vsl 15 128 0 100 0 0 empty empty empty 0 -9 0 10 -257985
-1 -1 12700 1;
#X obj 1963 470 bng 15 250 50 0 empty empty empty 17 7 0 10 -262144
-1 -1;
#X obj 1963 445 moses 50;
#X text 1754 250 sequencers (< 50 enables. > 50 disables);
#X obj 1530 50 sel 0 1 2 3 4 5 6 7;
#N canvas 0 0 1265 300 pduino 0;
#X obj 9 10 inlet;
#X obj 51 10 inlet;
#X obj 91 10 inlet;
#X obj 130 10 inlet;
#X obj 169 10 inlet;
#X obj 211 10 inlet;
#X obj 251 10 inlet;
#X obj 290 10 inlet;
#X obj 330 10 inlet;
#X obj 372 10 inlet;
#X obj 412 10 inlet;
#X obj 451 10 inlet;
#X obj 533 254 arduino 4;
#X obj 891 81 delay 100;
#X floatatom 996 8 5 0 0 0 - - -;
#X obj 491 9 inlet;
#X obj 532 9 inlet;
#X msg 1124 182 digital 13 1;
#X msg 1123 150 digital 13 0;
#X msg 17 152 digital 0 0;
#X msg 18 184 digital 0 1;
#X msg 101 152 digital 1 0;
#X msg 102 184 digital 1 1;
#X msg 186 152 digital 2 0;
#X msg 187 184 digital 2 1;
#X msg 272 152 digital 3 0;
#X msg 273 184 digital 3 1;
#X msg 355 152 digital 4 0;
#X msg 356 184 digital 4 1;
#X msg 439 152 digital 5 0;
#X msg 440 184 digital 5 1;
#X msg 524 152 digital 6 0;
#X msg 525 184 digital 6 1;
#X msg 610 152 digital 7 0;
#X msg 611 184 digital 7 1;
#X msg 696 151 digital 8 0;
#X msg 697 183 digital 8 1;
#X msg 780 151 digital 9 0;
#X msg 781 183 digital 9 1;
#X msg 865 151 digital 10 0;
#X msg 866 183 digital 10 1;
#X msg 951 151 digital 11 0;
#X msg 952 183 digital 11 1;
#X msg 1037 151 digital 12 0;
#X msg 1038 183 digital 12 1;
#X connect 0 0 20 0;
#X connect 0 0 13 0;
#X connect 1 0 22 0;
#X connect 1 0 13 0;
#X connect 2 0 24 0;
#X connect 2 0 13 0;
#X connect 3 0 26 0;
#X connect 3 0 13 0;
#X connect 4 0 28 0;
#X connect 4 0 13 0;
#X connect 5 0 30 0;
#X connect 5 0 13 0;
#X connect 6 0 32 0;
#X connect 6 0 13 0;
#X connect 7 0 34 0;
#X connect 7 0 13 0;
#X connect 8 0 36 0;
#X connect 8 0 13 0;
#X connect 9 0 38 0;
#X connect 9 0 13 0;
#X connect 10 0 40 0;
#X connect 10 0 13 0;
#X connect 11 0 13 0;
#X connect 11 0 42 0;
#X connect 13 0 43 0;
#X connect 13 0 41 0;
#X connect 13 0 39 0;
#X connect 13 0 37 0;
#X connect 13 0 35 0;
#X connect 13 0 33 0;
#X connect 13 0 31 0;
#X connect 13 0 29 0;
#X connect 13 0 27 0;
#X connect 13 0 25 0;
#X connect 13 0 23 0;
#X connect 13 0 21 0;
#X connect 13 0 19 0;
#X connect 13 0 18 0;
#X connect 14 0 13 1;
#X connect 15 0 44 0;
#X connect 15 0 13 0;
#X connect 16 0 17 0;
#X connect 16 0 13 0;
#X connect 17 0 12 0;
#X connect 18 0 12 0;
#X connect 19 0 12 0;
#X connect 20 0 12 0;
#X connect 21 0 12 0;
#X connect 22 0 12 0;
#X connect 23 0 12 0;
#X connect 24 0 12 0;
#X connect 25 0 12 0;
#X connect 26 0 12 0;
#X connect 27 0 12 0;
#X connect 28 0 12 0;
#X connect 29 0 12 0;
#X connect 30 0 12 0;
#X connect 31 0 12 0;
#X connect 32 0 12 0;
#X connect 33 0 12 0;
#X connect 34 0 12 0;
#X connect 35 0 12 0;
#X connect 36 0 12 0;
#X connect 37 0 12 0;
#X connect 38 0 12 0;
#X connect 39 0 12 0;
#X connect 40 0 12 0;
#X connect 41 0 12 0;
#X connect 42 0 12 0;
#X connect 43 0 12 0;
#X connect 44 0 12 0;
#X restore 1405 650 pd pduino;
#X connect 0 0 7 0;
#X connect 0 0 43 0;
#X connect 0 0 138 0;
#X connect 0 0 172 0;
#X connect 1 0 4 0;
#X connect 1 0 77 0;
#X connect 1 0 78 0;
#X connect 1 0 79 0;
#X connect 1 0 80 0;
#X connect 1 0 81 0;
#X connect 1 0 82 0;
#X connect 1 0 83 0;
#X connect 1 0 84 0;
#X connect 2 0 1 1;
#X connect 3 0 1 0;
#X connect 4 0 5 0;
#X connect 4 0 6 0;
#X connect 5 0 4 1;
#X connect 6 0 0 0;
#X connect 7 0 8 0;
#X connect 7 1 12 0;
#X connect 7 2 16 0;
#X connect 7 3 20 0;
#X connect 7 4 24 0;
#X connect 7 5 28 0;
#X connect 7 6 32 0;
#X connect 7 7 36 0;
#X connect 8 0 11 0;
#X connect 9 0 8 1;
#X connect 10 0 41 0;
#X connect 11 0 10 0;
#X connect 12 0 15 0;
#X connect 13 0 12 1;
#X connect 14 0 41 0;
#X connect 15 0 14 0;
#X connect 16 0 19 0;
#X connect 17 0 16 1;
#X connect 18 0 41 0;
#X connect 19 0 18 0;
#X connect 20 0 23 0;
#X connect 21 0 20 1;
#X connect 22 0 41 0;
#X connect 23 0 22 0;
#X connect 24 0 27 0;
#X connect 25 0 24 1;
#X connect 26 0 41 0;
#X connect 27 0 26 0;
#X connect 28 0 31 0;
#X connect 29 0 28 1;
#X connect 30 0 41 0;
#X connect 31 0 30 0;
#X connect 32 0 35 0;
#X connect 33 0 32 1;
#X connect 34 0 41 0;
#X connect 35 0 34 0;
#X connect 36 0 39 0;
#X connect 37 0 36 1;
#X connect 38 0 41 0;
#X connect 39 0 38 0;
#X connect 41 0 94 0;
#X connect 43 0 44 0;
#X connect 43 1 48 0;
#X connect 43 2 52 0;
#X connect 43 3 56 0;
#X connect 43 4 60 0;
#X connect 43 5 64 0;
#X connect 43 6 68 0;
#X connect 43 7 72 0;
#X connect 44 0 47 0;
#X connect 45 0 44 1;
#X connect 46 0 93 0;
#X connect 47 0 46 0;
#X connect 48 0 51 0;
#X connect 49 0 48 1;
#X connect 50 0 93 0;
#X connect 51 0 50 0;
#X connect 52 0 55 0;
#X connect 53 0 52 1;
#X connect 54 0 93 0;
#X connect 55 0 54 0;
#X connect 56 0 59 0;
#X connect 57 0 56 1;
#X connect 58 0 93 0;
#X connect 59 0 58 0;
#X connect 60 0 63 0;
#X connect 61 0 60 1;
#X connect 62 0 93 0;
#X connect 63 0 62 0;
#X connect 64 0 67 0;
#X connect 65 0 64 1;
#X connect 66 0 93 0;
#X connect 67 0 66 0;
#X connect 68 0 71 0;
#X connect 69 0 68 1;
#X connect 70 0 93 0;
#X connect 71 0 70 0;
#X connect 72 0 75 0;
#X connect 73 0 72 1;
#X connect 74 0 93 0;
#X connect 75 0 74 0;
#X connect 77 0 85 0;
#X connect 77 0 45 0;
#X connect 78 0 86 0;
#X connect 78 0 49 0;
#X connect 79 0 87 0;
#X connect 79 0 53 0;
#X connect 80 0 88 0;
#X connect 80 0 57 0;
#X connect 81 0 89 0;
#X connect 81 0 61 0;
#X connect 82 0 90 0;
#X connect 82 0 65 0;
#X connect 83 0 91 0;
#X connect 83 0 69 0;
#X connect 83 0 103 0;
#X connect 84 0 92 0;
#X connect 84 0 100 0;
#X connect 84 0 73 0;
#X connect 93 0 98 0;
#X connect 93 0 98 1;
#X connect 94 0 96 0;
#X connect 94 0 96 1;
#X connect 95 0 42 0;
#X connect 95 1 42 1;
#X connect 96 0 95 0;
#X connect 96 1 95 1;
#X connect 97 0 42 0;
#X connect 97 1 42 1;
#X connect 98 0 97 0;
#X connect 98 1 97 1;
#X connect 99 0 94 1;
#X connect 99 0 98 2;
#X connect 99 0 97 2;
#X connect 99 0 96 2;
#X connect 99 0 95 2;
#X connect 100 0 101 0;
#X connect 100 0 99 0;
#X connect 102 0 94 1;
#X connect 102 0 97 2;
#X connect 103 0 104 0;
#X connect 104 0 102 0;
#X connect 105 0 108 0;
#X connect 106 0 105 1;
#X connect 107 0 173 13;
#X connect 108 0 107 0;
#X connect 109 0 112 0;
#X connect 110 0 109 1;
#X connect 111 0 173 13;
#X connect 112 0 111 0;
#X connect 113 0 116 0;
#X connect 114 0 113 1;
#X connect 115 0 173 13;
#X connect 116 0 115 0;
#X connect 117 0 120 0;
#X connect 118 0 117 1;
#X connect 119 0 173 13;
#X connect 120 0 119 0;
#X connect 121 0 124 0;
#X connect 122 0 121 1;
#X connect 123 0 173 13;
#X connect 124 0 123 0;
#X connect 125 0 128 0;
#X connect 126 0 125 1;
#X connect 127 0 173 13;
#X connect 128 0 127 0;
#X connect 129 0 132 0;
#X connect 130 0 129 1;
#X connect 131 0 173 13;
#X connect 132 0 131 0;
#X connect 133 0 136 0;
#X connect 134 0 133 1;
#X connect 135 0 173 13;
#X connect 136 0 135 0;
#X connect 138 0 105 0;
#X connect 138 1 109 0;
#X connect 138 2 113 0;
#X connect 138 3 117 0;
#X connect 138 4 121 0;
#X connect 138 5 125 0;
#X connect 138 6 129 0;
#X connect 138 7 133 0;
#X connect 139 0 142 0;
#X connect 140 0 139 1;
#X connect 141 0 173 12;
#X connect 142 0 141 0;
#X connect 143 0 146 0;
#X connect 144 0 143 1;
#X connect 145 0 173 12;
#X connect 146 0 145 0;
#X connect 147 0 150 0;
#X connect 148 0 147 1;
#X connect 149 0 173 12;
#X connect 150 0 149 0;
#X connect 151 0 154 0;
#X connect 152 0 151 1;
#X connect 153 0 173 12;
#X connect 154 0 153 0;
#X connect 155 0 158 0;
#X connect 156 0 155 1;
#X connect 157 0 173 12;
#X connect 158 0 157 0;
#X connect 159 0 162 0;
#X connect 160 0 159 1;
#X connect 161 0 173 12;
#X connect 162 0 161 0;
#X connect 163 0 166 0;
#X connect 164 0 163 1;
#X connect 165 0 173 12;
#X connect 166 0 165 0;
#X connect 167 0 170 0;
#X connect 168 0 167 1;
#X connect 169 0 173 12;
#X connect 170 0 169 0;
#X connect 172 0 139 0;
#X connect 172 1 143 0;
#X connect 172 2 147 0;
#X connect 172 3 151 0;
#X connect 172 4 155 0;
#X connect 172 5 159 0;
#X connect 172 6 163 0;
#X connect 172 7 167 0;
#X coords 0 0 1 1 85 60 0;
