#N canvas 0 24 1251 672 10;
#X obj 18 179 hradio 30 1 0 8 empty empty empty 0 -8 0 10 -16662 -262144
-1 0;
#X obj 18 72 metro;
#X floatatom 88 27 5 0 0 0 tempo - -;
#X obj 18 16 tgl 15 0 empty empty empty 17 7 0 10 -262144 -1 -1 0 1
;
#X obj 18 107 f;
#X obj 57 108 + 1;
#X obj 18 143 mod 8;
#X obj 17 224 sel 0 1 2 3 4 5 6 7;
#X obj 18 427 f;
#X obj 33 282 vsl 15 128 0 100 0 0 empty empty empty 0 -9 0 10 -257985
-1 -1 0 0;
#X obj 18 480 bng 15 250 50 0 empty empty empty 17 7 0 10 -262144 -1
-1;
#X obj 18 455 moses 50;
#X obj 77 427 f;
#X obj 92 282 vsl 15 128 0 100 0 0 empty empty empty 0 -9 0 10 -257985
-1 -1 0 1;
#X obj 77 480 bng 15 250 50 0 empty empty empty 17 7 0 10 -262144 -1
-1;
#X obj 77 455 moses 50;
#X obj 136 427 f;
#X obj 151 282 vsl 15 128 0 100 0 0 empty empty empty 0 -9 0 10 -257985
-1 -1 0 1;
#X obj 136 480 bng 15 250 50 0 empty empty empty 17 7 0 10 -262144
-1 -1;
#X obj 136 455 moses 50;
#X obj 193 427 f;
#X obj 208 282 vsl 15 128 0 100 0 0 empty empty empty 0 -9 0 10 -257985
-1 -1 0 1;
#X obj 193 480 bng 15 250 50 0 empty empty empty 17 7 0 10 -262144
-1 -1;
#X obj 193 455 moses 50;
#X obj 249 427 f;
#X obj 264 282 vsl 15 128 0 100 0 0 empty empty empty 0 -9 0 10 -257985
-1 -1 0 1;
#X obj 249 480 bng 15 250 50 0 empty empty empty 17 7 0 10 -262144
-1 -1;
#X obj 249 455 moses 50;
#X obj 308 427 f;
#X obj 323 282 vsl 15 128 0 100 0 0 empty empty empty 0 -9 0 10 -257985
-1 -1 0 1;
#X obj 308 480 bng 15 250 50 0 empty empty empty 17 7 0 10 -262144
-1 -1;
#X obj 308 455 moses 50;
#X obj 367 427 f;
#X obj 382 282 vsl 15 128 0 100 0 0 empty empty empty 0 -9 0 10 -257985
-1 -1 0 1;
#X obj 367 480 bng 15 250 50 0 empty empty empty 17 7 0 10 -262144
-1 -1;
#X obj 367 455 moses 50;
#X obj 424 427 f;
#X obj 439 282 vsl 15 128 0 100 0 0 empty empty empty 0 -9 0 10 -257985
-1 -1 0 1;
#X obj 424 480 bng 15 250 50 0 empty empty empty 17 7 0 10 -262144
-1 -1;
#X obj 424 455 moses 50;
#X text 215 260 sequencers (< 50 enables. > 50 disables);
#X obj 183 525 perk-bassdrum;
#X obj 461 713 dac~;
#X obj 500 224 sel 0 1 2 3 4 5 6 7;
#X obj 501 427 f;
#X obj 516 282 vsl 15 128 0 100 0 0 empty empty empty 0 -9 0 10 -257985
-1 -1 0 0;
#X obj 501 480 bng 15 250 50 0 empty empty empty 17 7 0 10 -262144
-1 -1;
#X obj 501 455 moses 50;
#X obj 560 427 f;
#X obj 575 282 vsl 15 128 0 100 0 0 empty empty empty 0 -9 0 10 -257985
-1 -1 0 1;
#X obj 560 480 bng 15 250 50 0 empty empty empty 17 7 0 10 -262144
-1 -1;
#X obj 560 455 moses 50;
#X obj 619 427 f;
#X obj 634 282 vsl 15 128 0 100 0 0 empty empty empty 0 -9 0 10 -257985
-1 -1 0 1;
#X obj 619 480 bng 15 250 50 0 empty empty empty 17 7 0 10 -262144
-1 -1;
#X obj 619 455 moses 50;
#X obj 676 427 f;
#X obj 691 282 vsl 15 128 0 100 0 0 empty empty empty 0 -9 0 10 -257985
-1 -1 0 1;
#X obj 676 480 bng 15 250 50 0 empty empty empty 17 7 0 10 -262144
-1 -1;
#X obj 676 455 moses 50;
#X obj 732 427 f;
#X obj 747 282 vsl 15 128 0 100 0 0 empty empty empty 0 -9 0 10 -257985
-1 -1 0 1;
#X obj 732 480 bng 15 250 50 0 empty empty empty 17 7 0 10 -262144
-1 -1;
#X obj 732 455 moses 50;
#X obj 791 427 f;
#X obj 806 282 vsl 15 128 0 100 0 0 empty empty empty 0 -9 0 10 -257985
-1 -1 0 1;
#X obj 791 480 bng 15 250 50 0 empty empty empty 17 7 0 10 -262144
-1 -1;
#X obj 791 455 moses 50;
#X obj 850 427 f;
#X obj 865 282 vsl 15 128 0 100 0 0 empty empty empty 0 -9 0 10 -257985
-1 -1 0 1;
#X obj 850 480 bng 15 250 50 0 empty empty empty 17 7 0 10 -262144
-1 -1;
#X obj 850 455 moses 50;
#X obj 907 427 f;
#X obj 922 282 vsl 15 128 0 100 0 0 empty empty empty 0 -9 0 10 -257985
-1 -1 0 1;
#X obj 907 480 bng 15 250 50 0 empty empty empty 17 7 0 10 -262144
-1 -1;
#X obj 907 455 moses 50;
#X text 698 260 sequencers (< 50 enables. > 50 disables);
#X obj 660 521 perk-hihat;
#X connect 0 0 7 0;
#X connect 0 0 43 0;
#X connect 1 0 4 0;
#X connect 2 0 1 1;
#X connect 3 0 1 0;
#X connect 4 0 5 0;
#X connect 4 0 6 0;
#X connect 5 0 4 1;
#X connect 6 0 0 0;
#X connect 7 0 8 0;
#X connect 7 1 12 0;
#X connect 7 2 16 0;
#X connect 7 3 20 0;
#X connect 7 4 24 0;
#X connect 7 5 28 0;
#X connect 7 6 32 0;
#X connect 7 7 36 0;
#X connect 8 0 11 0;
#X connect 9 0 8 1;
#X connect 10 0 41 0;
#X connect 11 0 10 0;
#X connect 12 0 15 0;
#X connect 13 0 12 1;
#X connect 14 0 41 0;
#X connect 15 0 14 0;
#X connect 16 0 19 0;
#X connect 17 0 16 1;
#X connect 18 0 41 0;
#X connect 19 0 18 0;
#X connect 20 0 23 0;
#X connect 21 0 20 1;
#X connect 22 0 41 0;
#X connect 23 0 22 0;
#X connect 24 0 27 0;
#X connect 25 0 24 1;
#X connect 26 0 41 0;
#X connect 27 0 26 0;
#X connect 28 0 31 0;
#X connect 29 0 28 1;
#X connect 30 0 41 0;
#X connect 31 0 30 0;
#X connect 32 0 35 0;
#X connect 33 0 32 1;
#X connect 34 0 41 0;
#X connect 35 0 34 0;
#X connect 36 0 39 0;
#X connect 37 0 36 1;
#X connect 38 0 41 0;
#X connect 39 0 38 0;
#X connect 41 0 42 0;
#X connect 41 0 42 1;
#X connect 43 0 44 0;
#X connect 43 1 48 0;
#X connect 43 2 52 0;
#X connect 43 3 56 0;
#X connect 43 4 60 0;
#X connect 43 5 64 0;
#X connect 43 6 68 0;
#X connect 43 7 72 0;
#X connect 44 0 47 0;
#X connect 45 0 44 1;
#X connect 46 0 77 0;
#X connect 47 0 46 0;
#X connect 48 0 51 0;
#X connect 49 0 48 1;
#X connect 50 0 77 0;
#X connect 51 0 50 0;
#X connect 52 0 55 0;
#X connect 53 0 52 1;
#X connect 54 0 77 0;
#X connect 55 0 54 0;
#X connect 56 0 59 0;
#X connect 57 0 56 1;
#X connect 58 0 77 0;
#X connect 59 0 58 0;
#X connect 60 0 63 0;
#X connect 61 0 60 1;
#X connect 62 0 77 0;
#X connect 63 0 62 0;
#X connect 64 0 67 0;
#X connect 65 0 64 1;
#X connect 66 0 77 0;
#X connect 67 0 66 0;
#X connect 68 0 71 0;
#X connect 69 0 68 1;
#X connect 70 0 77 0;
#X connect 71 0 70 0;
#X connect 72 0 75 0;
#X connect 73 0 72 1;
#X connect 74 0 77 0;
#X connect 75 0 74 0;
#X connect 77 0 42 1;
#X connect 77 0 42 0;
#X coords 0 0 1 1 85 60 0;
