#N canvas 26 23 1185 656 10;
#X obj 1 -116 cnv 15 440 283 empty empty gravaDor 10 12 0 14 -261682
-66577 0;
#X obj 12 -78 adc~;
#X obj 11 140 writesf~ 2;
#X msg 66 62 start;
#X msg 114 62 stop;
#X obj 66 39 bng 15 250 50 0 empty empty empty 17 7 0 10 -262144 -1
-1;
#X obj 114 38 bng 15 250 50 0 empty empty empty 17 7 0 10 -262144 -1
-1;
#X obj 157 -106 bng 15 250 50 0 empty empty grava 20 7 0 10 -258113
-262144 -1;
#X msg 184 36 open /home/vilson/silabas/89.wav;
#X obj 184 -11 sprintf open /home/vilson/silabas/%s.wav;
#X obj 184 12 prepend set;
#X obj 184 -41 i;
#X obj 211 -41 + 1;
#X obj 157 -75 t b b;
#X obj 114 13 delay 300;
#X msg 215 -76 -1;
#X obj 215 -106 bng 15 250 50 0 empty empty zera 20 7 0 10 -66577 -262144
-1;
#X obj 443 -116 cnv 15 440 283 empty empty falaDor 10 12 0 14 -203904
-66577 0;
#X obj 556 71 readsf~ 2;
#X obj 556 -107 bng 15 250 50 0 empty empty fala 20 7 0 10 -4034 -257985
-1;
#X msg 556 44 start;
#X obj 555 114 output~;
#X msg 625 42 open /home/vilson/silabas/12.wav;
#X obj 625 -10 sprintf open /home/vilson/silabas/%s.wav;
#X obj 625 15 prepend set;
#X obj 556 -80 nbx 5 14 0 10000 0 0 empty empty empty 0 -8 0 10 -262144
-1 -1 12 256;
#X obj 556 -54 t b b f;
#X obj 1 -148 cnv 15 881 30 empty empty silaBada_-_-_-_-_v0.1_-_-_-_-_http://automata.cc
468 15 1 18 -228856 -128992 0;
#X obj 664 -116 tgl 15 0 empty empty empty 17 7 0 10 -262144 -1 -1
0 1;
#X obj 762 -109 macbook;
#X obj 670 -40 i;
#X obj 9 181 control-gemwin;
#X obj 164 185 gemhead;
#X msg 183 466 font /usr/share/fonts/truetype/ttf-bitstream-vera/VeraBd.ttf
;
#X obj 178 409 prepend text;
#X msg 369 211 ba;
#X obj 164 519 text3d;
#X msg 197 493 40;
#X obj 369 182 sel 0 1 2 3 4 5 6 7 8 9;
#X msg 382 231 be;
#X msg 396 252 bi;
#X msg 409 272 bo;
#X msg 423 293 bu;
#X msg 436 313 ka;
#X msg 450 334 ke;
#X msg 463 354 ki;
#X msg 477 374 ko;
#X msg 490 394 ku;
#X obj 533 413 prepend text;
#X obj 724 186 sel 10 11 12 13 14 15 16 17 18 19;
#X msg 724 215 da;
#X msg 737 235 de;
#X msg 751 256 di;
#X msg 764 276 do;
#X msg 778 297 du;
#X msg 791 317 fa;
#X msg 805 338 fe;
#X msg 818 358 fi;
#X msg 832 378 fo;
#X msg 845 398 fu;
#X obj 892 413 prepend text;
#X obj 1083 186 sel 20 21 22 23 24 25 26 27 28 29;
#X msg 1083 215 ga;
#X msg 1096 235 gue;
#X msg 1110 256 gui;
#X msg 1123 276 go;
#X msg 1137 297 gu;
#X msg 1150 317 ha;
#X msg 1164 338 he;
#X msg 1177 358 hi;
#X msg 1191 378 ho;
#X msg 1204 398 hu;
#X obj 1258 420 prepend text;
#X obj 1617 415 prepend text;
#X obj 1978 421 prepend text;
#X obj 1449 193 sel 30 31 32 33 34 35 36 37 38 39;
#X msg 1449 222 ia;
#X msg 1462 242 ie;
#X msg 1476 263 i;
#X msg 1489 283 io;
#X msg 1503 304 iu;
#X msg 1516 324 ja;
#X msg 1530 345 je;
#X msg 1543 365 ji;
#X msg 1557 385 jo;
#X msg 1570 405 ju;
#X obj 1808 188 sel 40 41 42 43 44 45 46 47 48 49;
#X msg 1808 217 la;
#X msg 1821 237 le;
#X msg 1835 258 li;
#X msg 1848 278 lo;
#X msg 1862 299 lu;
#X msg 1875 319 ma;
#X msg 1889 340 me;
#X msg 1902 360 mi;
#X msg 1916 380 mo;
#X msg 1929 400 mu;
#X obj 2169 194 sel 50 51 52 53 54 55 56 57 58 59;
#X msg 2169 223 na;
#X msg 2182 243 ne;
#X msg 2196 264 ni;
#X msg 2209 284 no;
#X msg 2223 305 nu;
#X msg 2236 325 pa;
#X msg 2250 346 pe;
#X msg 2263 366 pi;
#X msg 2277 386 po;
#X msg 2290 406 pu;
#X obj 2357 430 prepend text;
#X obj 2698 436 prepend text;
#X obj 3071 437 prepend text;
#X obj 2548 203 sel 60 61 62 63 64 65 66 67 68 69;
#X msg 2548 232 sa;
#X msg 2561 252 se;
#X msg 2575 273 si;
#X msg 2588 293 so;
#X msg 2602 314 su;
#X msg 2615 334 ta;
#X msg 2629 355 te;
#X msg 2642 375 ti;
#X msg 2656 395 to;
#X msg 2669 415 tu;
#X obj 2889 209 sel 70 71 72 73 74 75 76 77 78 79;
#X msg 2889 238 va;
#X msg 2902 258 ve;
#X msg 2916 279 vi;
#X msg 2929 299 vo;
#X msg 2943 320 vu;
#X msg 2956 340 ua;
#X msg 2970 361 ue;
#X msg 2983 381 ui;
#X msg 2997 401 uo;
#X msg 3010 421 u;
#X obj 3262 210 sel 80 81 82 83 84 85 86 87 88 89;
#X msg 3262 239 xa;
#X msg 3275 259 xe;
#X msg 3289 280 xi;
#X msg 3302 300 xo;
#X msg 3316 321 xu;
#X msg 3329 341 za;
#X msg 3343 362 ze;
#X msg 3356 382 zi;
#X msg 3370 402 zo;
#X msg 3383 422 zu;
#X obj 884 -88 metro 300;
#X obj 890 -112 tgl 15 0 empty empty empty 17 7 0 10 -262144 -1 -1
0 1;
#X obj 886 -64 i;
#X obj 912 -63 + 1;
#X obj 263 -62 delay 10;
#X obj 886 -36 mod 90;
#X obj 663 -97 metro 300;
#X obj 666 -74 autoscale 0 90;
#X obj 957 -92 metro 300;
#X obj 963 -116 tgl 15 0 empty empty empty 17 7 0 10 -262144 -1 -1
0 1;
#X obj 957 -68 random 90;
#X obj 1059 -112 key;
#X obj 1059 -89 autoscale 0 90;
#X obj 1263 -99 luva - - - - -- -;
#X obj 1206 -67 autoscale 0 20;
#X obj 1232 -45 autoscale 21 40;
#X obj 843 -121 autoscale 41 60;
#X obj 719 -119 autoscale 61 80;
#X obj 901 -153 autoscale 81 90;
#X floatatom 954 71 5 0 0 0 - - -;
#X connect 1 0 2 0;
#X connect 1 1 2 1;
#X connect 3 0 2 0;
#X connect 4 0 2 0;
#X connect 5 0 8 0;
#X connect 5 0 3 0;
#X connect 6 0 4 0;
#X connect 7 0 148 0;
#X connect 8 0 2 0;
#X connect 9 0 10 0;
#X connect 10 0 8 0;
#X connect 11 0 12 0;
#X connect 11 0 9 0;
#X connect 12 0 11 1;
#X connect 13 0 5 0;
#X connect 13 0 14 0;
#X connect 13 1 11 0;
#X connect 14 0 6 0;
#X connect 15 0 11 0;
#X connect 16 0 15 0;
#X connect 18 0 21 0;
#X connect 18 1 21 1;
#X connect 19 0 25 0;
#X connect 20 0 18 0;
#X connect 22 0 18 0;
#X connect 23 0 24 0;
#X connect 24 0 22 0;
#X connect 25 0 26 0;
#X connect 26 0 20 0;
#X connect 26 1 22 0;
#X connect 26 2 23 0;
#X connect 28 0 150 0;
#X connect 29 0 151 0;
#X connect 30 0 38 0;
#X connect 30 0 49 0;
#X connect 30 0 61 0;
#X connect 30 0 75 0;
#X connect 30 0 86 0;
#X connect 30 0 97 0;
#X connect 30 0 111 0;
#X connect 30 0 122 0;
#X connect 30 0 133 0;
#X connect 30 0 25 0;
#X connect 30 0 163 0;
#X connect 32 0 36 0;
#X connect 33 0 36 0;
#X connect 34 0 36 0;
#X connect 35 0 34 0;
#X connect 37 0 36 1;
#X connect 38 0 35 0;
#X connect 38 1 39 0;
#X connect 38 2 40 0;
#X connect 38 3 41 0;
#X connect 38 4 42 0;
#X connect 38 5 43 0;
#X connect 38 6 44 0;
#X connect 38 7 45 0;
#X connect 38 8 46 0;
#X connect 38 9 47 0;
#X connect 39 0 34 0;
#X connect 40 0 34 0;
#X connect 41 0 34 0;
#X connect 42 0 34 0;
#X connect 43 0 34 0;
#X connect 44 0 34 0;
#X connect 45 0 34 0;
#X connect 46 0 34 0;
#X connect 47 0 34 0;
#X connect 48 0 36 0;
#X connect 49 0 50 0;
#X connect 49 1 51 0;
#X connect 49 2 52 0;
#X connect 49 3 53 0;
#X connect 49 4 54 0;
#X connect 49 5 55 0;
#X connect 49 6 56 0;
#X connect 49 7 57 0;
#X connect 49 8 58 0;
#X connect 49 9 59 0;
#X connect 50 0 48 0;
#X connect 51 0 48 0;
#X connect 52 0 48 0;
#X connect 53 0 48 0;
#X connect 54 0 48 0;
#X connect 55 0 48 0;
#X connect 56 0 48 0;
#X connect 57 0 48 0;
#X connect 58 0 48 0;
#X connect 59 0 48 0;
#X connect 60 0 36 0;
#X connect 61 0 62 0;
#X connect 61 1 63 0;
#X connect 61 2 64 0;
#X connect 61 3 65 0;
#X connect 61 4 66 0;
#X connect 61 5 67 0;
#X connect 61 6 68 0;
#X connect 61 7 69 0;
#X connect 61 8 70 0;
#X connect 61 9 71 0;
#X connect 62 0 60 0;
#X connect 63 0 60 0;
#X connect 64 0 60 0;
#X connect 65 0 60 0;
#X connect 66 0 60 0;
#X connect 67 0 60 0;
#X connect 68 0 60 0;
#X connect 69 0 60 0;
#X connect 70 0 60 0;
#X connect 71 0 60 0;
#X connect 72 0 36 0;
#X connect 73 0 36 0;
#X connect 74 0 36 0;
#X connect 75 0 76 0;
#X connect 75 1 77 0;
#X connect 75 2 78 0;
#X connect 75 3 79 0;
#X connect 75 4 80 0;
#X connect 75 5 81 0;
#X connect 75 6 82 0;
#X connect 75 7 83 0;
#X connect 75 8 84 0;
#X connect 75 9 85 0;
#X connect 76 0 72 0;
#X connect 77 0 72 0;
#X connect 78 0 72 0;
#X connect 79 0 72 0;
#X connect 80 0 72 0;
#X connect 81 0 72 0;
#X connect 82 0 72 0;
#X connect 83 0 72 0;
#X connect 84 0 72 0;
#X connect 85 0 72 0;
#X connect 86 0 87 0;
#X connect 86 1 88 0;
#X connect 86 2 89 0;
#X connect 86 3 90 0;
#X connect 86 4 91 0;
#X connect 86 5 92 0;
#X connect 86 6 93 0;
#X connect 86 7 94 0;
#X connect 86 8 95 0;
#X connect 86 9 96 0;
#X connect 87 0 73 0;
#X connect 88 0 73 0;
#X connect 89 0 73 0;
#X connect 90 0 73 0;
#X connect 91 0 73 0;
#X connect 92 0 73 0;
#X connect 93 0 73 0;
#X connect 94 0 73 0;
#X connect 95 0 73 0;
#X connect 96 0 73 0;
#X connect 97 0 98 0;
#X connect 97 1 99 0;
#X connect 97 2 100 0;
#X connect 97 3 101 0;
#X connect 97 4 102 0;
#X connect 97 5 103 0;
#X connect 97 6 104 0;
#X connect 97 7 105 0;
#X connect 97 8 106 0;
#X connect 97 9 107 0;
#X connect 98 0 74 0;
#X connect 99 0 74 0;
#X connect 100 0 74 0;
#X connect 101 0 74 0;
#X connect 102 0 74 0;
#X connect 103 0 74 0;
#X connect 104 0 74 0;
#X connect 105 0 74 0;
#X connect 106 0 74 0;
#X connect 107 0 74 0;
#X connect 108 0 36 0;
#X connect 109 0 36 0;
#X connect 110 0 36 0;
#X connect 111 0 112 0;
#X connect 111 1 113 0;
#X connect 111 2 114 0;
#X connect 111 3 115 0;
#X connect 111 4 116 0;
#X connect 111 5 117 0;
#X connect 111 6 118 0;
#X connect 111 7 119 0;
#X connect 111 8 120 0;
#X connect 111 9 121 0;
#X connect 112 0 108 0;
#X connect 113 0 108 0;
#X connect 114 0 108 0;
#X connect 115 0 108 0;
#X connect 116 0 108 0;
#X connect 117 0 108 0;
#X connect 118 0 108 0;
#X connect 119 0 108 0;
#X connect 120 0 108 0;
#X connect 121 0 108 0;
#X connect 122 0 123 0;
#X connect 122 1 124 0;
#X connect 122 2 125 0;
#X connect 122 3 126 0;
#X connect 122 4 127 0;
#X connect 122 5 128 0;
#X connect 122 6 129 0;
#X connect 122 7 130 0;
#X connect 122 8 131 0;
#X connect 122 9 132 0;
#X connect 123 0 109 0;
#X connect 124 0 109 0;
#X connect 125 0 109 0;
#X connect 126 0 109 0;
#X connect 127 0 109 0;
#X connect 128 0 109 0;
#X connect 129 0 109 0;
#X connect 130 0 109 0;
#X connect 131 0 109 0;
#X connect 132 0 109 0;
#X connect 133 0 134 0;
#X connect 133 1 135 0;
#X connect 133 2 136 0;
#X connect 133 3 137 0;
#X connect 133 4 138 0;
#X connect 133 5 139 0;
#X connect 133 6 140 0;
#X connect 133 7 141 0;
#X connect 133 8 142 0;
#X connect 133 9 143 0;
#X connect 134 0 110 0;
#X connect 135 0 110 0;
#X connect 136 0 110 0;
#X connect 137 0 110 0;
#X connect 138 0 110 0;
#X connect 139 0 110 0;
#X connect 140 0 110 0;
#X connect 141 0 110 0;
#X connect 142 0 110 0;
#X connect 143 0 110 0;
#X connect 144 0 146 0;
#X connect 145 0 144 0;
#X connect 146 0 147 0;
#X connect 146 0 149 0;
#X connect 147 0 146 1;
#X connect 148 0 13 0;
#X connect 149 0 25 0;
#X connect 149 0 30 0;
#X connect 150 0 29 0;
#X connect 151 0 30 0;
#X connect 152 0 154 0;
#X connect 153 0 152 0;
#X connect 154 0 25 0;
#X connect 154 0 30 0;
#X connect 155 0 156 0;
#X connect 157 0 158 0;
#X connect 157 1 159 0;
#X connect 157 2 160 0;
#X connect 157 3 161 0;
#X connect 157 4 162 0;
#X connect 158 0 30 1;
#X connect 158 0 30 0;
#X connect 159 0 30 1;
#X connect 159 0 30 0;
#X connect 160 0 30 1;
#X connect 160 0 30 0;
#X connect 161 0 30 1;
#X connect 161 0 30 0;
#X connect 162 0 30 1;
#X connect 162 0 30 0;
