#N canvas 149 77 798 407 10;
#X obj 20 15 adc~;
#X obj 20 148 writesf~ 2;
#X msg 134 92 start;
#X msg 145 117 stop;
#X obj 161 17 bng 15 250 50 0 empty empty empty 17 7 0 10 -262144 -1
-1;
#X obj 161 40 bng 15 250 50 0 empty empty empty 17 7 0 10 -262144 -1
-1;
#X text 184 15 <- GRAVAR;
#X text 182 37 <- PARAR DE GRAVAR;
#X obj 345 42 bng 60 250 50 0 empty empty G_R_A_V_A 2 30 0 10 -260097
-262144 -262144;
#X msg 118 61 open /home/vilson/silabas/ba.wav;
#X obj 465 85 readsf~ 2;
#X obj 593 137 bng 20 250 50 0 empty empty empty 17 7 0 10 -86277 -257985
-1;
#X msg 547 56 start;
#X msg 578 91 stop;
#X msg 452 28 open /home/vilson/silabas/ba.wav;
#X obj 477 201 output~;
#X obj 222 237 mono-pitchshifter;
#X obj 632 80 r x;
#X obj 228 339 s~ sinal;
#X msg 414 150 0 \$1;
#X obj 464 165 autoscale;
#X obj 238 129 delay 3000;
#N canvas 354 70 736 518 silabario 1;
#X obj 342 3 cnv 15 150 40 empty empty empty 20 12 0 14 -204786 -66577
0;
#X obj 40 35 adc~;
#X obj 40 168 writesf~ 2;
#X msg 100 79 start;
#X msg 111 104 stop;
#X obj 179 34 bng 15 250 50 0 empty empty empty 17 7 0 10 -262144 -1
-1;
#X obj 181 60 bng 15 250 50 0 empty empty empty 17 7 0 10 -262144 -1
-1;
#X text 204 35 <- GRAVAR;
#X text 202 57 <- PARAR DE GRAVAR;
#X obj 388 22 bng 15 250 50 0 empty empty grava 20 7 0 10 -258113 -262144
-1;
#X msg 212 277 open /home/vilson/silabas/baadf.wav;
#X obj 534 111 readsf~ 2;
#X obj 443 22 bng 15 250 50 0 empty empty fala 20 7 0 10 -4034 -257985
-1;
#X msg 616 82 start;
#X msg 647 117 stop;
#X obj 258 149 delay 3000;
#X obj 551 -31 inlet;
#X obj 394 209 sprintf open /home/vilson/silabas/%s.wav;
#X msg 447 163 baadf;
#X obj 394 234 prepend set;
#X obj 619 -32 inlet;
#X obj 688 -32 inlet;
#X symbolatom 349 21 5 0 0 1 - - -;
#X obj 511 185 prepend set;
#X obj 540 281 outlet~;
#X obj 593 282 outlet~;
#X connect 1 0 2 0;
#X connect 1 1 2 1;
#X connect 3 0 2 0;
#X connect 4 0 2 0;
#X connect 5 0 10 0;
#X connect 5 0 3 0;
#X connect 6 0 4 0;
#X connect 9 0 5 0;
#X connect 9 0 15 0;
#X connect 10 0 2 0;
#X connect 10 0 11 0;
#X connect 11 0 24 0;
#X connect 11 1 25 0;
#X connect 12 0 13 0;
#X connect 12 0 10 0;
#X connect 13 0 11 0;
#X connect 14 0 11 0;
#X connect 15 0 6 0;
#X connect 16 0 17 0;
#X connect 17 0 19 0;
#X connect 18 0 17 0;
#X connect 18 0 23 0;
#X connect 19 0 10 0;
#X connect 20 0 9 0;
#X connect 21 0 12 0;
#X connect 23 0 22 0;
#X coords 0 -1 1 1 156 46 1 339 0;
#X restore 47 243 pd silabario;
#X connect 0 0 1 0;
#X connect 0 1 1 1;
#X connect 2 0 1 0;
#X connect 3 0 1 0;
#X connect 4 0 9 0;
#X connect 4 0 2 0;
#X connect 5 0 3 0;
#X connect 8 0 4 0;
#X connect 8 0 21 0;
#X connect 9 0 1 0;
#X connect 10 0 16 0;
#X connect 11 0 14 0;
#X connect 11 0 12 0;
#X connect 12 0 10 0;
#X connect 13 0 10 0;
#X connect 14 0 10 0;
#X connect 16 0 18 0;
#X connect 17 0 11 0;
#X connect 17 0 20 0;
#X connect 19 0 16 1;
#X connect 20 0 19 0;
#X connect 21 0 5 0;
