#N canvas 380 115 808 357 10;
#X obj 26 19 control-gemwin;
#X obj 182 62 gemhead;
#X obj 207 139 pix_texture;
#X obj 209 106 pix_image;
#X obj 207 260 square;
#X msg 255 78 open \$1;
#X obj 256 53 openpanel;
#X obj 255 30 bng 15 250 50 0 empty empty empty 17 7 0 10 -262144 -1
-1;
#X obj 213 200 rotateXYZ;
#X floatatom 227 164 5 0 0 0 - - -;
#X floatatom 272 165 5 0 0 0 - - -;
#X floatatom 314 165 5 0 0 0 - - -;
#X obj 316 257 text3d;
#X msg 343 235 font /usr/share/fonts/truetype/ttf-bitstream-vera/Vera.ttf
;
#X floatatom 376 286 5 0 0 0 - - -;
#X obj 538 26 gemhead;
#X floatatom 254 228 5 0 0 0 - - -;
#X obj 450 66 metro 100;
#X obj 456 112 f;
#X obj 483 114 + 1;
#X obj 441 31 tgl 15 0 empty empty empty 17 7 0 10 -262144 -1 -1 0
1;
#X obj 457 140 mod 360;
#X msg 328 214 text automata;
#X obj 457 189 translateXYZ;
#X floatatom 494 163 5 0 0 0 - - -;
#X floatatom 530 163 5 0 0 0 - - -;
#X floatatom 568 162 5 0 0 0 - - -;
#X obj 551 126 color;
#X obj 609 45 metro 250;
#X obj 618 13 tgl 15 0 empty empty empty 17 7 0 10 -262144 -1 -1 0
1;
#X obj 648 108 / 100;
#X obj 716 107 / 100;
#X obj 782 106 / 100;
#X obj 649 189 pack f f f;
#X msg 578 105 \$1 \$2 \$3;
#X obj 606 74 random 50;
#X obj 674 73 random 50;
#X obj 740 72 random 50;
#X obj 552 189 mod 20;
#X obj 537 277 autoscale -10 10;
#X connect 1 0 3 0;
#X connect 2 0 8 0;
#X connect 3 0 2 0;
#X connect 5 0 3 0;
#X connect 6 0 5 0;
#X connect 7 0 6 0;
#X connect 8 0 4 0;
#X connect 9 0 8 1;
#X connect 10 0 8 2;
#X connect 11 0 8 3;
#X connect 13 0 12 0;
#X connect 14 0 12 1;
#X connect 15 0 27 0;
#X connect 16 0 4 1;
#X connect 17 0 18 0;
#X connect 18 0 19 0;
#X connect 18 0 21 0;
#X connect 19 0 18 1;
#X connect 20 0 17 0;
#X connect 21 0 9 0;
#X connect 21 0 10 0;
#X connect 21 0 11 0;
#X connect 21 0 38 0;
#X connect 22 0 12 0;
#X connect 23 0 12 0;
#X connect 24 0 23 1;
#X connect 25 0 23 2;
#X connect 26 0 23 3;
#X connect 27 0 23 0;
#X connect 28 0 35 0;
#X connect 28 0 36 0;
#X connect 28 0 37 0;
#X connect 29 0 28 0;
#X connect 30 0 33 0;
#X connect 31 0 33 1;
#X connect 32 0 33 2;
#X connect 33 0 34 0;
#X connect 34 0 27 1;
#X connect 35 0 30 0;
#X connect 36 0 31 0;
#X connect 37 0 32 0;
#X connect 38 0 39 0;
#X connect 39 0 24 0;
