#N canvas 59 144 825 462 10;
#X obj -17 62 gemwin;
#X msg -17 13 create \, 1;
#X msg 7 32 destroy;
#X obj 86 -43 gemhead;
#X obj 86 155 pix_texture;
#X obj 86 112 pix_image;
#X obj 86 225 rotateXYZ;
#X floatatom 103 189 5 0 0 0 - - -;
#X floatatom 145 190 5 0 0 0 - - -;
#X floatatom 187 190 5 0 0 0 - - -;
#X obj 326 267 text3d;
#X msg 353 245 font /usr/share/fonts/truetype/ttf-bitstream-vera/Vera.ttf
;
#X msg 146 77 open /home/vilson/images/\$1.jpg;
#X obj 146 24 f;
#X obj 173 24 + 1;
#X obj 146 -30 tgl 15 0 empty empty empty 17 7 0 10 -262144 -1 -1 1
1;
#X obj 146 -2 metro 500;
#X obj 146 52 mod 8;
#X obj 86 270 square 3;
#X obj 507 211 loadbang;
#X obj 290 188 prepend set text;
#X obj 424 80 shell;
#X obj 467 119 bng 15 250 50 0 empty empty empty 17 7 0 10 -262144
-1 -1;
#X msg 416 46 /home/vilson/image.py arduino;
#X obj 402 119 print;
#X connect 1 0 0 0;
#X connect 2 0 0 0;
#X connect 3 0 5 0;
#X connect 4 0 6 0;
#X connect 5 0 4 0;
#X connect 6 0 18 0;
#X connect 7 0 6 1;
#X connect 8 0 6 2;
#X connect 9 0 6 3;
#X connect 11 0 10 0;
#X connect 12 0 5 0;
#X connect 13 0 14 0;
#X connect 13 0 17 0;
#X connect 14 0 13 1;
#X connect 15 0 16 0;
#X connect 16 0 13 0;
#X connect 17 0 12 0;
#X connect 19 0 11 0;
#X connect 20 0 10 0;
#X connect 21 0 24 0;
#X connect 21 1 22 0;
#X connect 23 0 21 0;
