#N canvas 791 113 450 300 10;
#X obj 91 134 midiout;
#X msg 78 61 F0 \, 42 \, 40 \, 6E \, 0 \, 1F \, 14 \, 0 \, F7;
#X msg 100 87 240 \, 66 \, 64 \, 110 \, 0 \, 31 \, 20 \, 0 \, 247;
#X msg 113 165 F0 \, 42 \, 40 \, 6E \, 0 \, 1 \, 0 \, 3 \, F7;
#X msg 119 192 240 \, 66 \, 64 \, 110 \, 0 \, 1 \, 1 \, 32 \, 247;
#X connect 1 0 0 0;
#X connect 2 0 0 0;
#X connect 4 0 0 0;
