#N canvas 0 0 450 300 10;
#N canvas 145 330 450 300 tbl2 0;
#X obj 113 43 inlet;
#X obj 159 98 i;
#X obj 201 99 i;
#X obj 174 44 inlet;
#X obj 216 43 inlet;
#X obj 113 159 outlet;
#X obj 159 159 outlet;
#X obj 201 159 outlet;
#X obj 113 68 t b b b;
#X obj 113 102 tgl 15 0 empty empty empty 17 7 0 10 -262144 -1 -1 0
1;
#X connect 0 0 8 0;
#X connect 1 0 6 0;
#X connect 2 0 7 0;
#X connect 3 0 1 1;
#X connect 4 0 2 1;
#X connect 8 0 9 0;
#X connect 8 1 1 0;
#X connect 8 2 2 0;
#X connect 9 0 5 0;
#X restore 316 143 pd tbl2;
#X obj 300 100 tgl 15 0 empty empty empty 17 7 0 10 -262144 -1 -1 0
1;
#X floatatom 333 97 5 0 0 0 - - -;
#X floatatom 378 97 5 0 0 0 - - -;
#X obj 296 190 tgl 15 0 empty empty empty 17 7 0 10 -262144 -1 -1 0
1;
#X floatatom 329 187 5 0 0 0 - - -;
#X floatatom 374 187 5 0 0 0 - - -;
#X connect 0 0 4 0;
#X connect 0 1 5 0;
#X connect 0 2 6 0;
#X connect 1 0 0 0;
#X connect 2 0 0 1;
#X connect 3 0 0 2;
