#N canvas 125 46 943 618 10;
#X obj 280 590 dac~;
#X obj 188 300 mono-pitchshifter;
#X obj 218 490 st-pureverb4;
#X msg 170 92 bang;
#X obj 89 88 tgl 15 0 empty empty empty 17 7 0 10 -262144 -1 -1 1 1
;
#X obj 194 384 st-flanger;
#X text 151 12 Effects can be modulated just like synths and percussion
modules. Mono effects have one inlet~/outlet~ \, stereo effects have
2 Quite simple really :);
#X text 656 440 mono-AMtremolo \, mono-vibrato;
#X text 413 340 resets phase;
#X text 526 464 st-AMtremolo \, st-vibrato \, st-flanger \, st-phaser
;
#X obj 527 413 cnv 15 240 25 empty empty modules_with_an_extra_inlet
10 12 0 14 -233017 -66577 0;
#X text 526 498 the above modules all have one extra inlet on the far
right to reset their phase. this can be either a bang \, or a float
value between 0 and 1 for the reset phase.;
#X msg 417 379 bang;
#X msg 412 357 0.25;
#X obj -28 380 st-flanger;
#X obj 3 494 st-vibrato;
#X msg 362 247 0 \$1;
#X obj 689 106 tgl 15 1 empty empty empty 0 -6 0 8 -225271 -1 -1 1
1;
#X floatatom 542 212 5 0 0 3 a0 - -;
#X floatatom 588 212 5 0 0 3 a1 - -;
#X floatatom 634 212 5 0 0 3 a2 - -;
#X floatatom 680 212 5 0 0 3 a3 - -;
#X floatatom 726 212 5 0 0 3 a4 - -;
#X floatatom 772 212 5 0 0 3 a5 - -;
#X text 712 75 <- argument sets port #;
#X obj 642 106 spigot;
#X floatatom 818 212 5 0 0 3 a6 - -;
#X floatatom 864 212 5 0 0 3 a7 - -;
#X obj 642 128 route analog;
#X obj 641 155 route 0 1 2 3 4 5 6 7;
#N canvas 978 22 499 396 display 0;
#X obj 6 7 inlet;
#X obj 6 28 mapping/resample 100;
#X obj 6 50 outlet;
#X obj 54 50 inlet;
#X obj 54 71 mapping/resample 100;
#X obj 54 93 outlet;
#X obj 103 93 inlet;
#X obj 103 114 mapping/resample 100;
#X obj 103 136 outlet;
#X obj 151 136 inlet;
#X obj 151 157 mapping/resample 100;
#X obj 151 179 outlet;
#X obj 200 179 inlet;
#X obj 200 200 mapping/resample 100;
#X obj 200 222 outlet;
#X obj 247 222 inlet;
#X obj 247 243 mapping/resample 100;
#X obj 247 265 outlet;
#X obj 295 265 inlet;
#X obj 295 286 mapping/resample 100;
#X obj 295 308 outlet;
#X obj 345 308 inlet;
#X obj 345 329 mapping/resample 100;
#X obj 345 351 outlet;
#X obj 60 290 receive ARDUINO_TEST_RESET;
#X connect 0 0 1 0;
#X connect 1 0 2 0;
#X connect 3 0 4 0;
#X connect 4 0 5 0;
#X connect 6 0 7 0;
#X connect 7 0 8 0;
#X connect 9 0 10 0;
#X connect 10 0 11 0;
#X connect 12 0 13 0;
#X connect 13 0 14 0;
#X connect 15 0 16 0;
#X connect 16 0 17 0;
#X connect 18 0 19 0;
#X connect 19 0 20 0;
#X connect 21 0 22 0;
#X connect 22 0 23 0;
#X connect 24 0 22 0;
#X connect 24 0 19 0;
#X connect 24 0 16 0;
#X connect 24 0 13 0;
#X connect 24 0 10 0;
#X connect 24 0 7 0;
#X connect 24 0 4 0;
#X connect 24 0 1 0;
#X restore 565 186 pd display values without pegging the CPU;
#X obj 642 76 arduino 4;
#X msg 740 35 analogIns 4 1;
#N canvas 162 133 610 460 serin 0;
#X obj 59 337 outlet;
#X obj 59 266 trigger bang anything;
#X obj 201 286 list;
#X obj 60 61 tgl 15 0 junk_to_hide_inlet ARDUINO_TEST_RESET 0 5 9 1
12 -262130 -1 -1 1 1;
#X obj 75 61 tgl 15 0 junk_to_hide_inlet ARDUINO_TEST_RESET 1 5 9 1
12 -262130 -1 -1 1 1;
#X obj 90 61 tgl 15 0 junk_to_hide_inlet ARDUINO_TEST_RESET 2 5 9 1
12 -262130 -1 -1 1 1;
#X obj 105 61 tgl 15 0 junk_to_hide_inlet ARDUINO_TEST_RESET 3 5 9
1 12 -262130 -1 -1 1 1;
#X obj 120 61 tgl 15 0 junk_to_hide_inlet ARDUINO_TEST_RESET 4 5 9
1 12 -262130 -1 -1 1 1;
#X obj 135 61 tgl 15 0 junk_to_hide_inlet ARDUINO_TEST_RESET 5 5 9
1 12 -262130 -1 -1 0 1;
#X obj 150 61 tgl 15 0 junk_to_hide_inlet ARDUINO_TEST_RESET 6 5 9
1 12 -262130 -1 -1 0 1;
#X obj 165 61 tgl 15 0 junk_to_hide_inlet ARDUINO_TEST_RESET 7 5 9
1 12 -262130 -1 -1 0 1;
#X msg 59 210 analogIns \$1 \$2;
#X msg 35 106 0 \$1;
#X msg 70 106 1 \$1;
#X msg 105 106 2 \$1;
#X msg 140 106 3 \$1;
#X msg 175 106 4 \$1;
#X msg 210 106 5 \$1;
#X msg 245 106 6 \$1;
#X msg 280 106 7 \$1;
#X msg 202 307 set \$1 \$2 \$3;
#X connect 1 0 0 0;
#X connect 1 1 2 0;
#X connect 2 0 20 0;
#X connect 3 0 12 0;
#X connect 4 0 13 0;
#X connect 5 0 14 0;
#X connect 6 0 15 0;
#X connect 7 0 16 0;
#X connect 8 0 17 0;
#X connect 9 0 18 0;
#X connect 10 0 19 0;
#X connect 11 0 1 0;
#X connect 12 0 11 0;
#X connect 13 0 11 0;
#X connect 14 0 11 0;
#X connect 15 0 11 0;
#X connect 16 0 11 0;
#X connect 17 0 11 0;
#X connect 18 0 11 0;
#X connect 19 0 11 0;
#X connect 20 0 0 0;
#X coords 0 -1 1 1 120 16 1 60 60;
#X restore 740 15 pd serin;
#X text 739 -2 which analogIns to enable:;
#X text 534 245 comment;
#X floatatom 524 259 5 0 0 0 - - -;
#X msg 408 278 1 \$1;
#X msg 459 291 2 \$1;
#X msg 521 308 3 \$1;
#X obj 480 239 * 25;
#X obj 172 115 perk-clap;
#X obj 86 106 metro 200;
#X obj 614 273 * 25;
#X obj 691 272 * 25;
#X connect 1 0 5 0;
#X connect 1 0 5 1;
#X connect 1 0 14 0;
#X connect 1 0 14 1;
#X connect 2 0 0 0;
#X connect 2 1 0 1;
#X connect 3 0 41 0;
#X connect 4 0 42 0;
#X connect 5 0 2 0;
#X connect 5 1 2 1;
#X connect 12 0 5 5;
#X connect 13 0 5 5;
#X connect 14 0 15 0;
#X connect 14 1 15 1;
#X connect 15 0 0 0;
#X connect 15 1 0 1;
#X connect 16 0 41 1;
#X connect 16 0 1 1;
#X connect 17 0 25 1;
#X connect 18 0 40 0;
#X connect 19 0 43 0;
#X connect 20 0 44 0;
#X connect 25 0 28 0;
#X connect 28 0 29 0;
#X connect 29 0 30 0;
#X connect 29 1 30 1;
#X connect 29 2 30 2;
#X connect 29 3 30 3;
#X connect 29 4 30 4;
#X connect 29 5 30 5;
#X connect 29 6 30 6;
#X connect 29 7 30 7;
#X connect 30 0 18 0;
#X connect 30 1 19 0;
#X connect 30 2 20 0;
#X connect 30 3 21 0;
#X connect 30 4 22 0;
#X connect 30 5 23 0;
#X connect 30 6 26 0;
#X connect 30 7 27 0;
#X connect 31 0 25 0;
#X connect 32 0 31 0;
#X connect 33 0 32 0;
#X connect 37 0 1 1;
#X connect 40 0 36 0;
#X connect 40 0 16 0;
#X connect 40 0 39 0;
#X connect 41 0 1 0;
#X connect 42 0 3 0;
#X connect 43 0 37 0;
#X connect 44 0 38 0;
