#N canvas 355 43 751 612 10;
#X obj -252 57 shell;
#X msg -252 19 twitter replies -e vilsonv@gmail.com -p tw1tt3r;
#X floatatom 210 48 5 0 0 0 - - -;
#X obj 110 55 print;
#X obj 91 20 netreceive 2727;
#X obj -159 463 perk-clap /key;
#X obj -131 383 tgl 15 0 empty empty empty 17 7 0 10 -262144 -1 -1
0 1;
#X obj -129 418 metro 400;
#X obj -165 383 bng 15 250 50 0 empty empty empty 17 7 0 10 -262144
-1 -1;
#X floatatom -69 382 5 0 0 0 - - -;
#X obj -115 589 dac~;
#X obj -177 341 counter;
#X obj -242 350 s2l;
#X obj -246 383 iter;
#X floatatom -174 311 5 0 0 0 - - -;
#X obj -215 254 t b;
#X obj -209 284 counter;
#X obj -87 148 tosymbol;
#X obj -134 228 bng 15 250 50 0 empty empty empty 17 7 0 10 -262144
-1 -1;
#X obj -217 139 sel clap;
#X obj -135 104 tosymbol;
#X obj -204 174 print;
#X msg -150 286 1;
#X msg -67 123 clap \, clap \, clap;
#X msg 74 171 s2l;
#X obj 76 122 tosymbol;
#X obj 74 215 list-drip;
#X obj 74 259 sel tum;
#X msg 151 84 tum \, tum \, tum;
#X obj 71 332 counter;
#X floatatom 157 300 5 0 0 0 - - -;
#X floatatom 88 368 5 0 0 0 - - -;
#X connect 0 0 20 0;
#X connect 1 0 0 0;
#X connect 4 0 3 0;
#X connect 4 0 20 0;
#X connect 4 0 25 0;
#X connect 4 1 2 0;
#X connect 5 0 10 0;
#X connect 6 0 7 0;
#X connect 7 0 5 0;
#X connect 8 0 5 0;
#X connect 9 0 7 1;
#X connect 11 0 5 0;
#X connect 12 0 13 0;
#X connect 15 0 16 0;
#X connect 16 0 14 0;
#X connect 16 0 5 0;
#X connect 17 0 15 0;
#X connect 18 0 15 0;
#X connect 19 0 15 0;
#X connect 19 0 21 0;
#X connect 20 0 19 0;
#X connect 22 0 16 2;
#X connect 23 0 17 0;
#X connect 24 0 26 0;
#X connect 25 0 24 0;
#X connect 26 0 27 0;
#X connect 27 0 30 0;
#X connect 27 0 29 0;
#X connect 28 0 25 0;
#X connect 29 0 5 0;
#X connect 29 0 31 0;
