#N canvas 730 137 450 300 10;
#X obj 62 103 shell;
#X msg 58 52 twitter friends -e vilsonv@gmail.com -p tw1tt3r;
#X obj 65 154 l2s;
#X obj 198 250 text3d;
#N canvas 0 0 450 300 gemwin 0;
#X obj 132 136 gemwin;
#X obj 67 89 outlet;
#X obj 67 10 inlet;
#X obj 67 41 route create;
#X msg 67 70 set destroy;
#X msg 142 68 set create;
#X msg 198 112 destroy;
#X msg 132 112 create \, 1;
#X connect 2 0 3 0;
#X connect 3 0 4 0;
#X connect 3 0 7 0;
#X connect 3 1 5 0;
#X connect 3 1 6 0;
#X connect 4 0 1 0;
#X connect 5 0 1 0;
#X connect 6 0 0 0;
#X connect 7 0 0 0;
#X restore 363 194 pd gemwin;
#X msg 294 154 destroy;
#X floatatom 251 193 5 0 0 0 - - -;
#X msg 199 146 text oiasdaf;
#X obj 145 86 gemhead;
#X obj 186 115 rotateXYZ;
#X floatatom 238 88 5 0 0 0 - - -;
#X floatatom 308 81 5 0 0 0 - - -;
#X msg 44 198 text \$1;
#X obj 53 246 print LALA;
#X connect 0 0 2 0;
#X connect 1 0 0 0;
#X connect 2 0 12 0;
#X connect 4 0 5 0;
#X connect 5 0 4 0;
#X connect 6 0 3 1;
#X connect 7 0 3 0;
#X connect 8 0 9 0;
#X connect 9 0 3 0;
#X connect 10 0 9 1;
#X connect 11 0 9 3;
#X connect 12 0 3 0;
#X connect 12 0 13 0;
